M48
; DRILL file {KiCad 9.0.6} date 2026-01-05T20:45:41+0000
; FORMAT={-:-/ absolute / metric / decimal}
; #@! TF.CreationDate,2026-01-05T20:45:41+00:00
; #@! TF.GenerationSoftware,Kicad,Pcbnew,9.0.6
; #@! TF.FileFunction,Plated,1,2,PTH
FMAT,2
METRIC
; #@! TA.AperFunction,Plated,PTH,ViaDrill
T1C0.300
; #@! TA.AperFunction,Plated,PTH,ComponentDrill
T2C1.000
; #@! TA.AperFunction,Plated,PTH,ComponentDrill
T3C1.500
%
G90
G05
T1
X395.287Y-50.006
X431.09Y-59.92
T2
X387.59Y-34.74
X387.59Y-52.52
X390.13Y-34.74
X390.13Y-52.52
X392.67Y-34.74
X392.67Y-52.52
X395.21Y-34.74
X395.21Y-52.52
X397.75Y-34.74
X397.75Y-52.52
X400.29Y-34.74
X400.29Y-52.52
X402.83Y-34.74
X402.83Y-52.52
X405.37Y-34.74
X405.37Y-52.52
X407.91Y-34.74
X407.91Y-52.52
X410.45Y-34.74
X410.45Y-52.52
X412.99Y-34.74
X412.99Y-52.52
X415.53Y-34.74
X415.53Y-52.52
X418.07Y-34.74
X418.07Y-52.52
X420.61Y-34.74
X420.61Y-52.52
X423.15Y-34.74
X423.15Y-52.52
X425.69Y-34.74
X425.69Y-52.52
X428.23Y-34.74
X428.23Y-52.52
X430.77Y-34.74
X430.77Y-52.52
X433.31Y-34.74
X433.31Y-52.52
X435.85Y-34.74
X435.85Y-52.52
T3
X31.75Y-40.64
X31.75Y-69.215
X34.131Y-126.365
X34.131Y-145.415
X36.512Y-88.265
X38.1Y-38.1
X38.1Y-66.675
X38.894Y-107.315
X40.481Y-123.825
X40.481Y-142.875
X42.862Y-85.725
X45.244Y-104.775
X50.8Y-69.215
X55.562Y-126.365
X57.15Y-66.675
X57.944Y-145.415
X60.325Y-88.265
X61.912Y-123.825
X64.294Y-142.875
X65.087Y-107.315
X66.675Y-85.725
X69.85Y-40.64
X69.85Y-69.215
X71.438Y-104.775
X74.612Y-126.365
X76.2Y-38.1
X76.2Y-66.675
X79.375Y-88.265
X80.962Y-123.825
X81.756Y-145.415
X84.138Y-107.315
X85.725Y-85.725
X88.106Y-142.875
X88.9Y-40.64
X88.9Y-69.215
X90.487Y-104.775
X93.662Y-126.365
X95.25Y-38.1
X95.25Y-66.675
X98.425Y-88.265
X100.012Y-123.825
X103.188Y-107.315
X104.775Y-85.725
X107.95Y-40.64
X107.95Y-69.215
X109.537Y-104.775
X112.712Y-126.365
X114.3Y-38.1
X114.3Y-66.675
X117.475Y-88.265
X119.062Y-123.825
X122.237Y-107.315
X123.825Y-85.725
X127.0Y-40.64
X127.0Y-69.215
X128.588Y-104.775
X131.762Y-126.365
X133.35Y-38.1
X133.35Y-66.675
X136.525Y-88.265
X138.112Y-123.825
X141.287Y-107.315
X142.875Y-85.725
X146.05Y-69.215
X147.637Y-104.775
X150.812Y-126.365
X152.4Y-66.675
X153.194Y-145.415
X155.575Y-40.64
X155.575Y-88.265
X157.162Y-123.825
X159.544Y-142.875
X160.338Y-107.315
X161.925Y-38.1
X161.925Y-85.725
X165.1Y-69.215
X166.688Y-104.775
X169.862Y-126.365
X171.45Y-66.675
X174.625Y-40.64
X174.625Y-88.265
X176.213Y-123.825
X179.387Y-107.315
X180.975Y-38.1
X180.975Y-85.725
X184.15Y-69.215
X185.737Y-104.775
X188.912Y-126.365
X190.5Y-66.675
X193.675Y-40.64
X193.675Y-88.265
X195.262Y-123.825
X198.438Y-107.315
X200.025Y-38.1
X200.025Y-85.725
X203.2Y-69.215
X204.787Y-104.775
X207.962Y-126.365
X209.55Y-66.675
X212.725Y-40.64
X212.725Y-88.265
X214.312Y-123.825
X217.487Y-107.315
X219.075Y-38.1
X219.075Y-85.725
X222.25Y-69.215
X223.837Y-104.775
X224.631Y-145.415
X227.012Y-126.365
X228.6Y-66.675
X230.981Y-142.875
X231.775Y-88.265
X233.362Y-123.825
X236.537Y-107.315
X238.125Y-85.725
X241.3Y-40.64
X241.3Y-69.215
X242.887Y-104.775
X246.062Y-126.365
X247.65Y-38.1
X247.65Y-66.675
X248.444Y-145.415
X250.825Y-88.265
X252.412Y-123.825
X254.794Y-142.875
X255.587Y-107.315
X257.175Y-85.725
X260.35Y-40.64
X260.35Y-69.215
X261.938Y-104.775
X266.7Y-38.1
X266.7Y-66.675
X269.875Y-88.265
X272.256Y-145.415
X274.637Y-107.315
X276.225Y-85.725
X278.606Y-142.875
X279.4Y-40.64
X280.988Y-104.775
X281.781Y-126.365
X285.75Y-38.1
X288.131Y-123.825
X288.925Y-69.215
X295.275Y-66.675
X296.069Y-97.79
X296.069Y-145.415
X298.45Y-40.64
X302.419Y-95.25
X302.419Y-142.875
X304.8Y-38.1
X322.262Y-40.64
X322.262Y-69.215
X322.262Y-88.265
X322.262Y-145.415
X328.613Y-38.1
X328.613Y-66.675
X328.613Y-85.725
X328.613Y-142.875
X341.312Y-40.64
X341.312Y-69.215
X341.312Y-88.265
X341.312Y-126.365
X341.312Y-145.415
X347.662Y-38.1
X347.662Y-66.675
X347.662Y-85.725
X347.662Y-123.825
X347.662Y-142.875
X360.363Y-40.64
X360.363Y-69.215
X360.363Y-88.265
X360.363Y-145.415
X366.712Y-38.1
X366.712Y-66.675
X366.712Y-85.725
X366.712Y-142.875
X384.175Y-69.215
X384.175Y-88.265
X384.175Y-107.315
X384.175Y-126.365
X390.525Y-66.675
X390.525Y-85.725
X390.525Y-104.775
X390.525Y-123.825
X393.7Y-145.415
X400.05Y-142.875
X403.225Y-69.215
X403.225Y-88.265
X403.225Y-107.315
X403.225Y-126.365
X409.575Y-66.675
X409.575Y-85.725
X409.575Y-104.775
X409.575Y-123.825
X422.275Y-69.215
X422.275Y-88.265
X422.275Y-107.315
X422.275Y-126.365
X422.275Y-145.415
X428.625Y-66.675
X428.625Y-85.725
X428.625Y-104.775
X428.625Y-123.825
X428.625Y-142.875
M30
