%TF.GenerationSoftware,KiCad,Pcbnew,9.0.6*%
%TF.CreationDate,2026-01-11T11:58:47+00:00*%
%TF.ProjectId,keebv3,6b656562-7633-42e6-9b69-6361645f7063,rev?*%
%TF.SameCoordinates,Original*%
%TF.FileFunction,Soldermask,Bot*%
%TF.FilePolarity,Negative*%
%FSLAX46Y46*%
G04 Gerber Fmt 4.6, Leading zero omitted, Abs format (unit mm)*
G04 Created by KiCad (PCBNEW 9.0.6) date 2026-01-11 11:58:47*
%MOMM*%
%LPD*%
G01*
G04 APERTURE LIST*
G04 Aperture macros list*
%AMRoundRect*
0 Rectangle with rounded corners*
0 $1 Rounding radius*
0 $2 $3 $4 $5 $6 $7 $8 $9 X,Y pos of 4 corners*
0 Add a 4 corners polygon primitive as box body*
4,1,4,$2,$3,$4,$5,$6,$7,$8,$9,$2,$3,0*
0 Add four circle primitives for the rounded corners*
1,1,$1+$1,$2,$3*
1,1,$1+$1,$4,$5*
1,1,$1+$1,$6,$7*
1,1,$1+$1,$8,$9*
0 Add four rect primitives between the rounded corners*
20,1,$1+$1,$2,$3,$4,$5,0*
20,1,$1+$1,$4,$5,$6,$7,0*
20,1,$1+$1,$6,$7,$8,$9,0*
20,1,$1+$1,$8,$9,$2,$3,0*%
%AMFreePoly0*
4,1,37,0.603843,0.796157,0.639018,0.796157,0.711114,0.766294,0.766294,0.711114,0.796157,0.639018,0.796157,0.603843,0.800000,0.600000,0.800000,-0.600000,0.796157,-0.603843,0.796157,-0.639018,0.766294,-0.711114,0.711114,-0.766294,0.639018,-0.796157,0.603843,-0.796157,0.600000,-0.800000,0.000000,-0.800000,0.000000,-0.796148,-0.078414,-0.796148,-0.232228,-0.765552,-0.377117,-0.705537,
-0.507515,-0.618408,-0.618408,-0.507515,-0.705537,-0.377117,-0.765552,-0.232228,-0.796148,-0.078414,-0.796148,0.078414,-0.765552,0.232228,-0.705537,0.377117,-0.618408,0.507515,-0.507515,0.618408,-0.377117,0.705537,-0.232228,0.765552,-0.078414,0.796148,0.000000,0.796148,0.000000,0.800000,0.600000,0.800000,0.603843,0.796157,0.603843,0.796157,$1*%
%AMFreePoly1*
4,1,37,0.000000,0.796148,0.078414,0.796148,0.232228,0.765552,0.377117,0.705537,0.507515,0.618408,0.618408,0.507515,0.705537,0.377117,0.765552,0.232228,0.796148,0.078414,0.796148,-0.078414,0.765552,-0.232228,0.705537,-0.377117,0.618408,-0.507515,0.507515,-0.618408,0.377117,-0.705537,0.232228,-0.765552,0.078414,-0.796148,0.000000,-0.796148,0.000000,-0.800000,-0.600000,-0.800000,
-0.603843,-0.796157,-0.639018,-0.796157,-0.711114,-0.766294,-0.766294,-0.711114,-0.796157,-0.639018,-0.796157,-0.603843,-0.800000,-0.600000,-0.800000,0.600000,-0.796157,0.603843,-0.796157,0.639018,-0.766294,0.711114,-0.711114,0.766294,-0.639018,0.796157,-0.603843,0.796157,-0.600000,0.800000,0.000000,0.800000,0.000000,0.796148,0.000000,0.796148,$1*%
G04 Aperture macros list end*
%ADD10C,1.700000*%
%ADD11C,4.000000*%
%ADD12C,2.200000*%
%ADD13C,3.200000*%
%ADD14C,1.850000*%
%ADD15RoundRect,0.200000X-0.600000X0.600000X-0.600000X-0.600000X0.600000X-0.600000X0.600000X0.600000X0*%
%ADD16C,1.600000*%
%ADD17FreePoly0,270.000000*%
%ADD18FreePoly1,270.000000*%
%ADD19C,3.050000*%
%ADD20RoundRect,0.225000X0.375000X-0.225000X0.375000X0.225000X-0.375000X0.225000X-0.375000X-0.225000X0*%
G04 APERTURE END LIST*
D10*
%TO.C,MX29*%
X259080000Y-71755000D03*
D11*
X264160000Y-71755000D03*
D10*
X269240000Y-71755000D03*
D12*
X266700000Y-66675000D03*
X260350000Y-69215000D03*
%TD*%
D10*
%TO.C,MX10*%
X240030000Y-43180000D03*
D11*
X245110000Y-43180000D03*
D10*
X250190000Y-43180000D03*
D12*
X247650000Y-38100000D03*
X241300000Y-40640000D03*
%TD*%
D10*
%TO.C,MX39*%
X78105000Y-90805000D03*
D11*
X83185000Y-90805000D03*
D10*
X88265000Y-90805000D03*
D12*
X85725000Y-85725000D03*
X79375000Y-88265000D03*
%TD*%
D10*
%TO.C,MX31*%
X320992500Y-71755000D03*
D11*
X326072500Y-71755000D03*
D10*
X331152500Y-71755000D03*
D12*
X328612500Y-66675000D03*
X322262500Y-69215000D03*
%TD*%
D10*
%TO.C,MX72*%
X421005000Y-109855000D03*
D11*
X426085000Y-109855000D03*
D10*
X431165000Y-109855000D03*
D12*
X428625000Y-104775000D03*
X422275000Y-107315000D03*
%TD*%
D13*
%TO.C,H2*%
X21431250Y-28575000D03*
%TD*%
D10*
%TO.C,MX15*%
X340042500Y-43180000D03*
D11*
X345122500Y-43180000D03*
D10*
X350202500Y-43180000D03*
D12*
X347662500Y-38100000D03*
X341312500Y-40640000D03*
%TD*%
D10*
%TO.C,MX48*%
X249555000Y-90805000D03*
D11*
X254635000Y-90805000D03*
D10*
X259715000Y-90805000D03*
D12*
X257175000Y-85725000D03*
X250825000Y-88265000D03*
%TD*%
D10*
%TO.C,MX40*%
X97155000Y-90805000D03*
D11*
X102235000Y-90805000D03*
D10*
X107315000Y-90805000D03*
D12*
X104775000Y-85725000D03*
X98425000Y-88265000D03*
%TD*%
D10*
%TO.C,MX42*%
X135255000Y-90805000D03*
D11*
X140335000Y-90805000D03*
D10*
X145415000Y-90805000D03*
D12*
X142875000Y-85725000D03*
X136525000Y-88265000D03*
%TD*%
D10*
%TO.C,MX24*%
X163830000Y-71755000D03*
D11*
X168910000Y-71755000D03*
D10*
X173990000Y-71755000D03*
D12*
X171450000Y-66675000D03*
X165100000Y-69215000D03*
%TD*%
D13*
%TO.C,H1*%
X19050000Y-154781250D03*
%TD*%
D10*
%TO.C,MX4*%
X106680000Y-43180000D03*
D11*
X111760000Y-43180000D03*
D10*
X116840000Y-43180000D03*
D12*
X114300000Y-38100000D03*
X107950000Y-40640000D03*
%TD*%
D10*
%TO.C,MX95*%
X247173750Y-147955000D03*
D11*
X252253750Y-147955000D03*
D10*
X257333750Y-147955000D03*
D12*
X254793750Y-142875000D03*
X248443750Y-145415000D03*
%TD*%
D10*
%TO.C,MX35*%
X401955000Y-71755000D03*
D11*
X407035000Y-71755000D03*
D10*
X412115000Y-71755000D03*
D12*
X409575000Y-66675000D03*
X403225000Y-69215000D03*
%TD*%
%TO.C,A1*%
X435720000Y-40905000D03*
D14*
X432690000Y-41205000D03*
X432690000Y-46055000D03*
D12*
X435720000Y-46355000D03*
D15*
X435850000Y-34740000D03*
D16*
X433310000Y-34740000D03*
D17*
X430770000Y-34740000D03*
D16*
X428230000Y-34740000D03*
X425690000Y-34740000D03*
X423150000Y-34740000D03*
X420610000Y-34740000D03*
D17*
X418070000Y-34740000D03*
D16*
X415530000Y-34740000D03*
X412990000Y-34740000D03*
X410450000Y-34740000D03*
X407910000Y-34740000D03*
D17*
X405370000Y-34740000D03*
D16*
X402830000Y-34740000D03*
X400290000Y-34740000D03*
X397750000Y-34740000D03*
X395210000Y-34740000D03*
D17*
X392670000Y-34740000D03*
D16*
X390130000Y-34740000D03*
X387590000Y-34740000D03*
X387590000Y-52520000D03*
X390130000Y-52520000D03*
D18*
X392670000Y-52520000D03*
D16*
X395210000Y-52520000D03*
X397750000Y-52520000D03*
X400290000Y-52520000D03*
X402830000Y-52520000D03*
D18*
X405370000Y-52520000D03*
D16*
X407910000Y-52520000D03*
X410450000Y-52520000D03*
X412990000Y-52520000D03*
X415530000Y-52520000D03*
D18*
X418070000Y-52520000D03*
D16*
X420610000Y-52520000D03*
X423150000Y-52520000D03*
X425690000Y-52520000D03*
X428230000Y-52520000D03*
D18*
X430770000Y-52520000D03*
D16*
X433310000Y-52520000D03*
X435850000Y-52520000D03*
%TD*%
D10*
%TO.C,MX89*%
X421005000Y-128905000D03*
D11*
X426085000Y-128905000D03*
D10*
X431165000Y-128905000D03*
D12*
X428625000Y-123825000D03*
X422275000Y-126365000D03*
%TD*%
D10*
%TO.C,MX75*%
X73342500Y-128905000D03*
D11*
X78422500Y-128905000D03*
D10*
X83502500Y-128905000D03*
D12*
X80962500Y-123825000D03*
X74612500Y-126365000D03*
%TD*%
D10*
%TO.C,MX63*%
X159067500Y-109855000D03*
D11*
X164147500Y-109855000D03*
D10*
X169227500Y-109855000D03*
D12*
X166687500Y-104775000D03*
X160337500Y-107315000D03*
%TD*%
D10*
%TO.C,MX46*%
X211455000Y-90805000D03*
D11*
X216535000Y-90805000D03*
D10*
X221615000Y-90805000D03*
D12*
X219075000Y-85725000D03*
X212725000Y-88265000D03*
%TD*%
D10*
%TO.C,MX91*%
X56673750Y-147955000D03*
D11*
X61753750Y-147955000D03*
D10*
X66833750Y-147955000D03*
D12*
X64293750Y-142875000D03*
X57943750Y-145415000D03*
%TD*%
D10*
%TO.C,MX23*%
X144780000Y-71755000D03*
D11*
X149860000Y-71755000D03*
D10*
X154940000Y-71755000D03*
D12*
X152400000Y-66675000D03*
X146050000Y-69215000D03*
%TD*%
D10*
%TO.C,MX1*%
X30480000Y-43180000D03*
D11*
X35560000Y-43180000D03*
D10*
X40640000Y-43180000D03*
D12*
X38100000Y-38100000D03*
X31750000Y-40640000D03*
%TD*%
D10*
%TO.C,MX5*%
X125730000Y-43180000D03*
D11*
X130810000Y-43180000D03*
D10*
X135890000Y-43180000D03*
D12*
X133350000Y-38100000D03*
X127000000Y-40640000D03*
%TD*%
D10*
%TO.C,MX98*%
X320992500Y-147955000D03*
D11*
X326072500Y-147955000D03*
D10*
X331152500Y-147955000D03*
D12*
X328612500Y-142875000D03*
X322262500Y-145415000D03*
%TD*%
D10*
%TO.C,MX22*%
X125730000Y-71755000D03*
D11*
X130810000Y-71755000D03*
D10*
X135890000Y-71755000D03*
D12*
X133350000Y-66675000D03*
X127000000Y-69215000D03*
%TD*%
D10*
%TO.C,MX17*%
X30480000Y-71755000D03*
D11*
X35560000Y-71755000D03*
D10*
X40640000Y-71755000D03*
D12*
X38100000Y-66675000D03*
X31750000Y-69215000D03*
%TD*%
D10*
%TO.C,MX62*%
X140017500Y-109855000D03*
D11*
X145097500Y-109855000D03*
D10*
X150177500Y-109855000D03*
D12*
X147637500Y-104775000D03*
X141287500Y-107315000D03*
%TD*%
D10*
%TO.C,MX78*%
X130492500Y-128905000D03*
D11*
X135572500Y-128905000D03*
D10*
X140652500Y-128905000D03*
D12*
X138112500Y-123825000D03*
X131762500Y-126365000D03*
%TD*%
D10*
%TO.C,MX74*%
X54292500Y-128905000D03*
D11*
X59372500Y-128905000D03*
D10*
X64452500Y-128905000D03*
D12*
X61912500Y-123825000D03*
X55562500Y-126365000D03*
%TD*%
D19*
%TO.C,MX93*%
X107003750Y-140955000D03*
D11*
X107003750Y-156195000D03*
D10*
X151923750Y-147955000D03*
D11*
X157003750Y-147955000D03*
D10*
X162083750Y-147955000D03*
D19*
X207003750Y-140955000D03*
D11*
X207003750Y-156195000D03*
D12*
X159543750Y-142875000D03*
X153193750Y-145415000D03*
%TD*%
D10*
%TO.C,MX25*%
X182880000Y-71755000D03*
D11*
X187960000Y-71755000D03*
D10*
X193040000Y-71755000D03*
D12*
X190500000Y-66675000D03*
X184150000Y-69215000D03*
%TD*%
D10*
%TO.C,MX55*%
X401955000Y-90805000D03*
D11*
X407035000Y-90805000D03*
D10*
X412115000Y-90805000D03*
D12*
X409575000Y-85725000D03*
X403225000Y-88265000D03*
%TD*%
D10*
%TO.C,MX59*%
X82867500Y-109855000D03*
D11*
X87947500Y-109855000D03*
D10*
X93027500Y-109855000D03*
D12*
X90487500Y-104775000D03*
X84137500Y-107315000D03*
%TD*%
D10*
%TO.C,MX81*%
X187642500Y-128905000D03*
D11*
X192722500Y-128905000D03*
D10*
X197802500Y-128905000D03*
D12*
X195262500Y-123825000D03*
X188912500Y-126365000D03*
%TD*%
D10*
%TO.C,MX26*%
X201930000Y-71755000D03*
D11*
X207010000Y-71755000D03*
D10*
X212090000Y-71755000D03*
D12*
X209550000Y-66675000D03*
X203200000Y-69215000D03*
%TD*%
D10*
%TO.C,MX79*%
X149542500Y-128905000D03*
D11*
X154622500Y-128905000D03*
D10*
X159702500Y-128905000D03*
D12*
X157162500Y-123825000D03*
X150812500Y-126365000D03*
%TD*%
D10*
%TO.C,MX11*%
X259080000Y-43180000D03*
D11*
X264160000Y-43180000D03*
D10*
X269240000Y-43180000D03*
D12*
X266700000Y-38100000D03*
X260350000Y-40640000D03*
%TD*%
D10*
%TO.C,MX32*%
X340042500Y-71755000D03*
D11*
X345122500Y-71755000D03*
D10*
X350202500Y-71755000D03*
D12*
X347662500Y-66675000D03*
X341312500Y-69215000D03*
%TD*%
D10*
%TO.C,MX49*%
X268605000Y-90805000D03*
D11*
X273685000Y-90805000D03*
D10*
X278765000Y-90805000D03*
D12*
X276225000Y-85725000D03*
X269875000Y-88265000D03*
%TD*%
D10*
%TO.C,MX27*%
X220980000Y-71755000D03*
D11*
X226060000Y-71755000D03*
D10*
X231140000Y-71755000D03*
D12*
X228600000Y-66675000D03*
X222250000Y-69215000D03*
%TD*%
D10*
%TO.C,MX44*%
X173355000Y-90805000D03*
D11*
X178435000Y-90805000D03*
D10*
X183515000Y-90805000D03*
D12*
X180975000Y-85725000D03*
X174625000Y-88265000D03*
%TD*%
D10*
%TO.C,MX41*%
X116205000Y-90805000D03*
D11*
X121285000Y-90805000D03*
D10*
X126365000Y-90805000D03*
D12*
X123825000Y-85725000D03*
X117475000Y-88265000D03*
%TD*%
D10*
%TO.C,MX96*%
X270986250Y-147955000D03*
D11*
X276066250Y-147955000D03*
D10*
X281146250Y-147955000D03*
D12*
X278606250Y-142875000D03*
X272256250Y-145415000D03*
%TD*%
D10*
%TO.C,MX86*%
X340042500Y-128905000D03*
D11*
X345122500Y-128905000D03*
D10*
X350202500Y-128905000D03*
D12*
X347662500Y-123825000D03*
X341312500Y-126365000D03*
%TD*%
D19*
%TO.C,MX85*%
X273691250Y-121905000D03*
D11*
X273691250Y-137145000D03*
D10*
X280511250Y-128905000D03*
D11*
X285591250Y-128905000D03*
D10*
X290671250Y-128905000D03*
D19*
X297491250Y-121905000D03*
D11*
X297491250Y-137145000D03*
D12*
X288131250Y-123825000D03*
X281781250Y-126365000D03*
%TD*%
D10*
%TO.C,MX71*%
X401955000Y-109855000D03*
D11*
X407035000Y-109855000D03*
D10*
X412115000Y-109855000D03*
D12*
X409575000Y-104775000D03*
X403225000Y-107315000D03*
%TD*%
D19*
%TO.C,MX101*%
X385610000Y-140955000D03*
D11*
X385610000Y-156195000D03*
D10*
X392430000Y-147955000D03*
D11*
X397510000Y-147955000D03*
D10*
X402590000Y-147955000D03*
D19*
X409410000Y-140955000D03*
D11*
X409410000Y-156195000D03*
D12*
X400050000Y-142875000D03*
X393700000Y-145415000D03*
%TD*%
D10*
%TO.C,MX64*%
X178117500Y-109855000D03*
D11*
X183197500Y-109855000D03*
D10*
X188277500Y-109855000D03*
D12*
X185737500Y-104775000D03*
X179387500Y-107315000D03*
%TD*%
D10*
%TO.C,MX56*%
X421005000Y-90805000D03*
D11*
X426085000Y-90805000D03*
D10*
X431165000Y-90805000D03*
D12*
X428625000Y-85725000D03*
X422275000Y-88265000D03*
%TD*%
D10*
%TO.C,MX18*%
X49530000Y-71755000D03*
D11*
X54610000Y-71755000D03*
D10*
X59690000Y-71755000D03*
D12*
X57150000Y-66675000D03*
X50800000Y-69215000D03*
%TD*%
D10*
%TO.C,MX80*%
X168592500Y-128905000D03*
D11*
X173672500Y-128905000D03*
D10*
X178752500Y-128905000D03*
D12*
X176212500Y-123825000D03*
X169862500Y-126365000D03*
%TD*%
D10*
%TO.C,MX6*%
X154305000Y-43180000D03*
D11*
X159385000Y-43180000D03*
D10*
X164465000Y-43180000D03*
D12*
X161925000Y-38100000D03*
X155575000Y-40640000D03*
%TD*%
D10*
%TO.C,MX53*%
X359092500Y-90805000D03*
D11*
X364172500Y-90805000D03*
D10*
X369252500Y-90805000D03*
D12*
X366712500Y-85725000D03*
X360362500Y-88265000D03*
%TD*%
D10*
%TO.C,MX12*%
X278130000Y-43180000D03*
D11*
X283210000Y-43180000D03*
D10*
X288290000Y-43180000D03*
D12*
X285750000Y-38100000D03*
X279400000Y-40640000D03*
%TD*%
D10*
%TO.C,MX94*%
X223361250Y-147955000D03*
D11*
X228441250Y-147955000D03*
D10*
X233521250Y-147955000D03*
D12*
X230981250Y-142875000D03*
X224631250Y-145415000D03*
%TD*%
D19*
%TO.C,MX30*%
X280835000Y-64755000D03*
D11*
X280835000Y-79995000D03*
D10*
X287655000Y-71755000D03*
D11*
X292735000Y-71755000D03*
D10*
X297815000Y-71755000D03*
D19*
X304635000Y-64755000D03*
D11*
X304635000Y-79995000D03*
D12*
X295275000Y-66675000D03*
X288925000Y-69215000D03*
%TD*%
D10*
%TO.C,MX47*%
X230505000Y-90805000D03*
D11*
X235585000Y-90805000D03*
D10*
X240665000Y-90805000D03*
D12*
X238125000Y-85725000D03*
X231775000Y-88265000D03*
%TD*%
D10*
%TO.C,MX82*%
X206692500Y-128905000D03*
D11*
X211772500Y-128905000D03*
D10*
X216852500Y-128905000D03*
D12*
X214312500Y-123825000D03*
X207962500Y-126365000D03*
%TD*%
D19*
%TO.C,MX50*%
X292878750Y-88430000D03*
X292878750Y-112230000D03*
D10*
X294798750Y-100330000D03*
D11*
X299878750Y-100330000D03*
D10*
X304958750Y-100330000D03*
D11*
X308118750Y-88430000D03*
X308118750Y-112230000D03*
D12*
X302418750Y-95250000D03*
X296068750Y-97790000D03*
%TD*%
D10*
%TO.C,MX73*%
X32861250Y-128905000D03*
D11*
X37941250Y-128905000D03*
D10*
X43021250Y-128905000D03*
D12*
X40481250Y-123825000D03*
X34131250Y-126365000D03*
%TD*%
D10*
%TO.C,MX92*%
X80486250Y-147955000D03*
D11*
X85566250Y-147955000D03*
D10*
X90646250Y-147955000D03*
D12*
X88106250Y-142875000D03*
X81756250Y-145415000D03*
%TD*%
D10*
%TO.C,MX69*%
X273367500Y-109855000D03*
D11*
X278447500Y-109855000D03*
D10*
X283527500Y-109855000D03*
D12*
X280987500Y-104775000D03*
X274637500Y-107315000D03*
%TD*%
D10*
%TO.C,MX37*%
X35242500Y-90805000D03*
D11*
X40322500Y-90805000D03*
D10*
X45402500Y-90805000D03*
D12*
X42862500Y-85725000D03*
X36512500Y-88265000D03*
%TD*%
D10*
%TO.C,MX60*%
X101917500Y-109855000D03*
D11*
X106997500Y-109855000D03*
D10*
X112077500Y-109855000D03*
D12*
X109537500Y-104775000D03*
X103187500Y-107315000D03*
%TD*%
D10*
%TO.C,MX77*%
X111442500Y-128905000D03*
D11*
X116522500Y-128905000D03*
D10*
X121602500Y-128905000D03*
D12*
X119062500Y-123825000D03*
X112712500Y-126365000D03*
%TD*%
D10*
%TO.C,MX52*%
X340042500Y-90805000D03*
D11*
X345122500Y-90805000D03*
D10*
X350202500Y-90805000D03*
D12*
X347662500Y-85725000D03*
X341312500Y-88265000D03*
%TD*%
D13*
%TO.C,H4*%
X452437500Y-154781250D03*
%TD*%
D10*
%TO.C,MX28*%
X240030000Y-71755000D03*
D11*
X245110000Y-71755000D03*
D10*
X250190000Y-71755000D03*
D12*
X247650000Y-66675000D03*
X241300000Y-69215000D03*
%TD*%
D10*
%TO.C,MX97*%
X294798750Y-147955000D03*
D11*
X299878750Y-147955000D03*
D10*
X304958750Y-147955000D03*
D12*
X302418750Y-142875000D03*
X296068750Y-145415000D03*
%TD*%
D10*
%TO.C,MX76*%
X92392500Y-128905000D03*
D11*
X97472500Y-128905000D03*
D10*
X102552500Y-128905000D03*
D12*
X100012500Y-123825000D03*
X93662500Y-126365000D03*
%TD*%
D10*
%TO.C,MX8*%
X192405000Y-43180000D03*
D11*
X197485000Y-43180000D03*
D10*
X202565000Y-43180000D03*
D12*
X200025000Y-38100000D03*
X193675000Y-40640000D03*
%TD*%
D10*
%TO.C,MX2*%
X68580000Y-43180000D03*
D11*
X73660000Y-43180000D03*
D10*
X78740000Y-43180000D03*
D12*
X76200000Y-38100000D03*
X69850000Y-40640000D03*
%TD*%
D10*
%TO.C,MX43*%
X154305000Y-90805000D03*
D11*
X159385000Y-90805000D03*
D10*
X164465000Y-90805000D03*
D12*
X161925000Y-85725000D03*
X155575000Y-88265000D03*
%TD*%
D10*
%TO.C,MX33*%
X359092500Y-71755000D03*
D11*
X364172500Y-71755000D03*
D10*
X369252500Y-71755000D03*
D12*
X366712500Y-66675000D03*
X360362500Y-69215000D03*
%TD*%
D10*
%TO.C,MX58*%
X63817500Y-109855000D03*
D11*
X68897500Y-109855000D03*
D10*
X73977500Y-109855000D03*
D12*
X71437500Y-104775000D03*
X65087500Y-107315000D03*
%TD*%
D10*
%TO.C,MX61*%
X120967500Y-109855000D03*
D11*
X126047500Y-109855000D03*
D10*
X131127500Y-109855000D03*
D12*
X128587500Y-104775000D03*
X122237500Y-107315000D03*
%TD*%
D13*
%TO.C,H3*%
X450056250Y-28575000D03*
%TD*%
D10*
%TO.C,MX88*%
X401955000Y-128905000D03*
D11*
X407035000Y-128905000D03*
D10*
X412115000Y-128905000D03*
D12*
X409575000Y-123825000D03*
X403225000Y-126365000D03*
%TD*%
D10*
%TO.C,MX99*%
X340042500Y-147955000D03*
D11*
X345122500Y-147955000D03*
D10*
X350202500Y-147955000D03*
D12*
X347662500Y-142875000D03*
X341312500Y-145415000D03*
%TD*%
D10*
%TO.C,MX66*%
X216217500Y-109855000D03*
D11*
X221297500Y-109855000D03*
D10*
X226377500Y-109855000D03*
D12*
X223837500Y-104775000D03*
X217487500Y-107315000D03*
%TD*%
D10*
%TO.C,MX38*%
X59055000Y-90805000D03*
D11*
X64135000Y-90805000D03*
D10*
X69215000Y-90805000D03*
D12*
X66675000Y-85725000D03*
X60325000Y-88265000D03*
%TD*%
D10*
%TO.C,MX70*%
X382905000Y-109855000D03*
D11*
X387985000Y-109855000D03*
D10*
X393065000Y-109855000D03*
D12*
X390525000Y-104775000D03*
X384175000Y-107315000D03*
%TD*%
D10*
%TO.C,MX16*%
X359092500Y-43180000D03*
D11*
X364172500Y-43180000D03*
D10*
X369252500Y-43180000D03*
D12*
X366712500Y-38100000D03*
X360362500Y-40640000D03*
%TD*%
D10*
%TO.C,MX20*%
X87630000Y-71755000D03*
D11*
X92710000Y-71755000D03*
D10*
X97790000Y-71755000D03*
D12*
X95250000Y-66675000D03*
X88900000Y-69215000D03*
%TD*%
D10*
%TO.C,MX83*%
X225742500Y-128905000D03*
D11*
X230822500Y-128905000D03*
D10*
X235902500Y-128905000D03*
D12*
X233362500Y-123825000D03*
X227012500Y-126365000D03*
%TD*%
D10*
%TO.C,MX102*%
X421005000Y-147955000D03*
D11*
X426085000Y-147955000D03*
D10*
X431165000Y-147955000D03*
D12*
X428625000Y-142875000D03*
X422275000Y-145415000D03*
%TD*%
D10*
%TO.C,MX90*%
X32861250Y-147955000D03*
D11*
X37941250Y-147955000D03*
D10*
X43021250Y-147955000D03*
D12*
X40481250Y-142875000D03*
X34131250Y-145415000D03*
%TD*%
D10*
%TO.C,MX100*%
X359092500Y-147955000D03*
D11*
X364172500Y-147955000D03*
D10*
X369252500Y-147955000D03*
D12*
X366712500Y-142875000D03*
X360362500Y-145415000D03*
%TD*%
D10*
%TO.C,MX54*%
X382905000Y-90805000D03*
D11*
X387985000Y-90805000D03*
D10*
X393065000Y-90805000D03*
D12*
X390525000Y-85725000D03*
X384175000Y-88265000D03*
%TD*%
D10*
%TO.C,MX13*%
X297180000Y-43180000D03*
D11*
X302260000Y-43180000D03*
D10*
X307340000Y-43180000D03*
D12*
X304800000Y-38100000D03*
X298450000Y-40640000D03*
%TD*%
D10*
%TO.C,MX34*%
X382905000Y-71755000D03*
D11*
X387985000Y-71755000D03*
D10*
X393065000Y-71755000D03*
D12*
X390525000Y-66675000D03*
X384175000Y-69215000D03*
%TD*%
D10*
%TO.C,MX87*%
X382905000Y-128905000D03*
D11*
X387985000Y-128905000D03*
D10*
X393065000Y-128905000D03*
D12*
X390525000Y-123825000D03*
X384175000Y-126365000D03*
%TD*%
D10*
%TO.C,MX3*%
X87630000Y-43180000D03*
D11*
X92710000Y-43180000D03*
D10*
X97790000Y-43180000D03*
D12*
X95250000Y-38100000D03*
X88900000Y-40640000D03*
%TD*%
D10*
%TO.C,MX67*%
X235267500Y-109855000D03*
D11*
X240347500Y-109855000D03*
D10*
X245427500Y-109855000D03*
D12*
X242887500Y-104775000D03*
X236537500Y-107315000D03*
%TD*%
D10*
%TO.C,MX57*%
X37623750Y-109855000D03*
D11*
X42703750Y-109855000D03*
D10*
X47783750Y-109855000D03*
D12*
X45243750Y-104775000D03*
X38893750Y-107315000D03*
%TD*%
D10*
%TO.C,MX14*%
X320992500Y-43180000D03*
D11*
X326072500Y-43180000D03*
D10*
X331152500Y-43180000D03*
D12*
X328612500Y-38100000D03*
X322262500Y-40640000D03*
%TD*%
D10*
%TO.C,MX68*%
X254317500Y-109855000D03*
D11*
X259397500Y-109855000D03*
D10*
X264477500Y-109855000D03*
D12*
X261937500Y-104775000D03*
X255587500Y-107315000D03*
%TD*%
D10*
%TO.C,MX36*%
X421005000Y-71755000D03*
D11*
X426085000Y-71755000D03*
D10*
X431165000Y-71755000D03*
D12*
X428625000Y-66675000D03*
X422275000Y-69215000D03*
%TD*%
D10*
%TO.C,MX9*%
X211455000Y-43180000D03*
D11*
X216535000Y-43180000D03*
D10*
X221615000Y-43180000D03*
D12*
X219075000Y-38100000D03*
X212725000Y-40640000D03*
%TD*%
D10*
%TO.C,MX21*%
X106680000Y-71755000D03*
D11*
X111760000Y-71755000D03*
D10*
X116840000Y-71755000D03*
D12*
X114300000Y-66675000D03*
X107950000Y-69215000D03*
%TD*%
D10*
%TO.C,MX7*%
X173355000Y-43180000D03*
D11*
X178435000Y-43180000D03*
D10*
X183515000Y-43180000D03*
D12*
X180975000Y-38100000D03*
X174625000Y-40640000D03*
%TD*%
D10*
%TO.C,MX84*%
X244792500Y-128905000D03*
D11*
X249872500Y-128905000D03*
D10*
X254952500Y-128905000D03*
D12*
X252412500Y-123825000D03*
X246062500Y-126365000D03*
%TD*%
D10*
%TO.C,MX45*%
X192405000Y-90805000D03*
D11*
X197485000Y-90805000D03*
D10*
X202565000Y-90805000D03*
D12*
X200025000Y-85725000D03*
X193675000Y-88265000D03*
%TD*%
D10*
%TO.C,MX51*%
X320992500Y-90805000D03*
D11*
X326072500Y-90805000D03*
D10*
X331152500Y-90805000D03*
D12*
X328612500Y-85725000D03*
X322262500Y-88265000D03*
%TD*%
D10*
%TO.C,MX65*%
X197167500Y-109855000D03*
D11*
X202247500Y-109855000D03*
D10*
X207327500Y-109855000D03*
D12*
X204787500Y-104775000D03*
X198437500Y-107315000D03*
%TD*%
D10*
%TO.C,MX19*%
X68580000Y-71755000D03*
D11*
X73660000Y-71755000D03*
D10*
X78740000Y-71755000D03*
D12*
X76200000Y-66675000D03*
X69850000Y-69215000D03*
%TD*%
D20*
%TO.C,D7*%
X186055000Y-42780000D03*
X186055000Y-39480000D03*
%TD*%
%TO.C,D29*%
X271780000Y-71355000D03*
X271780000Y-68055000D03*
%TD*%
%TO.C,D11*%
X271780000Y-42780000D03*
X271780000Y-39480000D03*
%TD*%
%TO.C,D81*%
X200342500Y-128505000D03*
X200342500Y-125205000D03*
%TD*%
%TO.C,D10*%
X252730000Y-42780000D03*
X252730000Y-39480000D03*
%TD*%
%TO.C,D5*%
X138430000Y-42780000D03*
X138430000Y-39480000D03*
%TD*%
%TO.C,D61*%
X133667500Y-109455000D03*
X133667500Y-106155000D03*
%TD*%
%TO.C,D44*%
X186055000Y-90405000D03*
X186055000Y-87105000D03*
%TD*%
%TO.C,D35*%
X414655000Y-71355000D03*
X414655000Y-68055000D03*
%TD*%
%TO.C,D31*%
X333692500Y-71355000D03*
X333692500Y-68055000D03*
%TD*%
%TO.C,D16*%
X371792500Y-42780000D03*
X371792500Y-39480000D03*
%TD*%
%TO.C,D23*%
X157480000Y-71355000D03*
X157480000Y-68055000D03*
%TD*%
%TO.C,D97*%
X307498750Y-147555000D03*
X307498750Y-144255000D03*
%TD*%
%TO.C,D6*%
X167005000Y-42780000D03*
X167005000Y-39480000D03*
%TD*%
%TO.C,D18*%
X62230000Y-71355000D03*
X62230000Y-68055000D03*
%TD*%
%TO.C,D21*%
X119380000Y-71355000D03*
X119380000Y-68055000D03*
%TD*%
%TO.C,D2*%
X81280000Y-42780000D03*
X81280000Y-39480000D03*
%TD*%
%TO.C,D82*%
X219392500Y-128505000D03*
X219392500Y-125205000D03*
%TD*%
%TO.C,D36*%
X433705000Y-71355000D03*
X433705000Y-68055000D03*
%TD*%
%TO.C,D64*%
X190817500Y-109455000D03*
X190817500Y-106155000D03*
%TD*%
%TO.C,D73*%
X45561250Y-128505000D03*
X45561250Y-125205000D03*
%TD*%
%TO.C,D43*%
X167005000Y-90405000D03*
X167005000Y-87105000D03*
%TD*%
%TO.C,D45*%
X205105000Y-90405000D03*
X205105000Y-87105000D03*
%TD*%
%TO.C,D76*%
X105092500Y-128505000D03*
X105092500Y-125205000D03*
%TD*%
%TO.C,D74*%
X66992500Y-128505000D03*
X66992500Y-125205000D03*
%TD*%
%TO.C,D26*%
X214630000Y-71355000D03*
X214630000Y-68055000D03*
%TD*%
%TO.C,D39*%
X90805000Y-90405000D03*
X90805000Y-87105000D03*
%TD*%
%TO.C,D4*%
X119380000Y-42780000D03*
X119380000Y-39480000D03*
%TD*%
%TO.C,D96*%
X283686250Y-147555000D03*
X283686250Y-144255000D03*
%TD*%
%TO.C,D70*%
X395605000Y-109455000D03*
X395605000Y-106155000D03*
%TD*%
%TO.C,D17*%
X43180000Y-71355000D03*
X43180000Y-68055000D03*
%TD*%
%TO.C,D88*%
X414655000Y-128505000D03*
X414655000Y-125205000D03*
%TD*%
%TO.C,D25*%
X195580000Y-71355000D03*
X195580000Y-68055000D03*
%TD*%
%TO.C,D62*%
X152717500Y-109455000D03*
X152717500Y-106155000D03*
%TD*%
%TO.C,D58*%
X76517500Y-109455000D03*
X76517500Y-106155000D03*
%TD*%
%TO.C,D46*%
X224155000Y-90405000D03*
X224155000Y-87105000D03*
%TD*%
%TO.C,D14*%
X333692500Y-42780000D03*
X333692500Y-39480000D03*
%TD*%
%TO.C,D63*%
X171767500Y-109455000D03*
X171767500Y-106155000D03*
%TD*%
%TO.C,D50*%
X307498750Y-99930000D03*
X307498750Y-96630000D03*
%TD*%
%TO.C,D93*%
X164623750Y-147555000D03*
X164623750Y-144255000D03*
%TD*%
%TO.C,D47*%
X243205000Y-90405000D03*
X243205000Y-87105000D03*
%TD*%
%TO.C,D55*%
X414655000Y-90405000D03*
X414655000Y-87105000D03*
%TD*%
%TO.C,D60*%
X114617500Y-109455000D03*
X114617500Y-106155000D03*
%TD*%
%TO.C,D65*%
X209867500Y-109455000D03*
X209867500Y-106155000D03*
%TD*%
%TO.C,D86*%
X352742500Y-128505000D03*
X352742500Y-125205000D03*
%TD*%
%TO.C,D56*%
X433705000Y-90405000D03*
X433705000Y-87105000D03*
%TD*%
%TO.C,D72*%
X433705000Y-109455000D03*
X433705000Y-106155000D03*
%TD*%
%TO.C,D78*%
X143192500Y-128505000D03*
X143192500Y-125205000D03*
%TD*%
%TO.C,D102*%
X433705000Y-147555000D03*
X433705000Y-144255000D03*
%TD*%
%TO.C,D1*%
X43180000Y-42780000D03*
X43180000Y-39480000D03*
%TD*%
%TO.C,D75*%
X86042500Y-128505000D03*
X86042500Y-125205000D03*
%TD*%
%TO.C,D83*%
X238442500Y-128505000D03*
X238442500Y-125205000D03*
%TD*%
%TO.C,D84*%
X257492500Y-128505000D03*
X257492500Y-125205000D03*
%TD*%
%TO.C,D101*%
X405130000Y-147555000D03*
X405130000Y-144255000D03*
%TD*%
%TO.C,D69*%
X286067500Y-109455000D03*
X286067500Y-106155000D03*
%TD*%
%TO.C,D89*%
X433705000Y-128505000D03*
X433705000Y-125205000D03*
%TD*%
%TO.C,D94*%
X236061250Y-147555000D03*
X236061250Y-144255000D03*
%TD*%
%TO.C,D79*%
X162242500Y-128505000D03*
X162242500Y-125205000D03*
%TD*%
%TO.C,D12*%
X290830000Y-42780000D03*
X290830000Y-39480000D03*
%TD*%
%TO.C,D53*%
X371792500Y-90405000D03*
X371792500Y-87105000D03*
%TD*%
%TO.C,D52*%
X352742500Y-90405000D03*
X352742500Y-87105000D03*
%TD*%
%TO.C,D32*%
X352742500Y-71355000D03*
X352742500Y-68055000D03*
%TD*%
%TO.C,D68*%
X267017500Y-109455000D03*
X267017500Y-106155000D03*
%TD*%
%TO.C,D48*%
X262255000Y-90405000D03*
X262255000Y-87105000D03*
%TD*%
%TO.C,D87*%
X395605000Y-128505000D03*
X395605000Y-125205000D03*
%TD*%
%TO.C,D41*%
X128905000Y-90405000D03*
X128905000Y-87105000D03*
%TD*%
%TO.C,D19*%
X81280000Y-71355000D03*
X81280000Y-68055000D03*
%TD*%
%TO.C,D100*%
X371792500Y-147555000D03*
X371792500Y-144255000D03*
%TD*%
%TO.C,D91*%
X69373750Y-147555000D03*
X69373750Y-144255000D03*
%TD*%
%TO.C,D98*%
X333692500Y-147555000D03*
X333692500Y-144255000D03*
%TD*%
%TO.C,D38*%
X71755000Y-90405000D03*
X71755000Y-87105000D03*
%TD*%
%TO.C,D80*%
X181292500Y-128505000D03*
X181292500Y-125205000D03*
%TD*%
%TO.C,D20*%
X100330000Y-71355000D03*
X100330000Y-68055000D03*
%TD*%
%TO.C,D66*%
X228917500Y-109455000D03*
X228917500Y-106155000D03*
%TD*%
%TO.C,D37*%
X47942500Y-90405000D03*
X47942500Y-87105000D03*
%TD*%
%TO.C,D28*%
X252730000Y-71355000D03*
X252730000Y-68055000D03*
%TD*%
%TO.C,D24*%
X176530000Y-71355000D03*
X176530000Y-68055000D03*
%TD*%
%TO.C,D27*%
X233680000Y-71355000D03*
X233680000Y-68055000D03*
%TD*%
%TO.C,D40*%
X109855000Y-90405000D03*
X109855000Y-87105000D03*
%TD*%
%TO.C,D57*%
X50323750Y-109455000D03*
X50323750Y-106155000D03*
%TD*%
%TO.C,D49*%
X281305000Y-90405000D03*
X281305000Y-87105000D03*
%TD*%
%TO.C,D22*%
X138430000Y-71355000D03*
X138430000Y-68055000D03*
%TD*%
%TO.C,D33*%
X371792500Y-71355000D03*
X371792500Y-68055000D03*
%TD*%
%TO.C,D59*%
X95567500Y-109455000D03*
X95567500Y-106155000D03*
%TD*%
%TO.C,D42*%
X147955000Y-90405000D03*
X147955000Y-87105000D03*
%TD*%
%TO.C,D34*%
X395605000Y-71355000D03*
X395605000Y-68055000D03*
%TD*%
%TO.C,D95*%
X259873750Y-147555000D03*
X259873750Y-144255000D03*
%TD*%
%TO.C,D77*%
X124142500Y-128505000D03*
X124142500Y-125205000D03*
%TD*%
%TO.C,D30*%
X300355000Y-71355000D03*
X300355000Y-68055000D03*
%TD*%
%TO.C,D54*%
X395605000Y-90405000D03*
X395605000Y-87105000D03*
%TD*%
%TO.C,D8*%
X205105000Y-42780000D03*
X205105000Y-39480000D03*
%TD*%
%TO.C,D71*%
X414655000Y-109455000D03*
X414655000Y-106155000D03*
%TD*%
%TO.C,D3*%
X100330000Y-42780000D03*
X100330000Y-39480000D03*
%TD*%
%TO.C,D15*%
X352742500Y-42780000D03*
X352742500Y-39480000D03*
%TD*%
%TO.C,D51*%
X333692500Y-90405000D03*
X333692500Y-87105000D03*
%TD*%
%TO.C,D13*%
X309880000Y-42780000D03*
X309880000Y-39480000D03*
%TD*%
%TO.C,D85*%
X293211250Y-128505000D03*
X293211250Y-125205000D03*
%TD*%
%TO.C,D99*%
X352742500Y-147555000D03*
X352742500Y-144255000D03*
%TD*%
%TO.C,D90*%
X45561250Y-147555000D03*
X45561250Y-144255000D03*
%TD*%
%TO.C,D92*%
X93186250Y-147555000D03*
X93186250Y-144255000D03*
%TD*%
%TO.C,D9*%
X224155000Y-42780000D03*
X224155000Y-39480000D03*
%TD*%
%TO.C,D67*%
X247967500Y-109455000D03*
X247967500Y-106155000D03*
%TD*%
M02*
