%TF.GenerationSoftware,KiCad,Pcbnew,9.0.6*%
%TF.CreationDate,2026-01-11T11:58:47+00:00*%
%TF.ProjectId,keebv3,6b656562-7633-42e6-9b69-6361645f7063,rev?*%
%TF.SameCoordinates,Original*%
%TF.FileFunction,Copper,L2,Bot*%
%TF.FilePolarity,Positive*%
%FSLAX46Y46*%
G04 Gerber Fmt 4.6, Leading zero omitted, Abs format (unit mm)*
G04 Created by KiCad (PCBNEW 9.0.6) date 2026-01-11 11:58:47*
%MOMM*%
%LPD*%
G01*
G04 APERTURE LIST*
G04 Aperture macros list*
%AMRoundRect*
0 Rectangle with rounded corners*
0 $1 Rounding radius*
0 $2 $3 $4 $5 $6 $7 $8 $9 X,Y pos of 4 corners*
0 Add a 4 corners polygon primitive as box body*
4,1,4,$2,$3,$4,$5,$6,$7,$8,$9,$2,$3,0*
0 Add four circle primitives for the rounded corners*
1,1,$1+$1,$2,$3*
1,1,$1+$1,$4,$5*
1,1,$1+$1,$6,$7*
1,1,$1+$1,$8,$9*
0 Add four rect primitives between the rounded corners*
20,1,$1+$1,$2,$3,$4,$5,0*
20,1,$1+$1,$4,$5,$6,$7,0*
20,1,$1+$1,$6,$7,$8,$9,0*
20,1,$1+$1,$8,$9,$2,$3,0*%
%AMFreePoly0*
4,1,37,0.603843,0.796157,0.639018,0.796157,0.711114,0.766294,0.766294,0.711114,0.796157,0.639018,0.796157,0.603843,0.800000,0.600000,0.800000,-0.600000,0.796157,-0.603843,0.796157,-0.639018,0.766294,-0.711114,0.711114,-0.766294,0.639018,-0.796157,0.603843,-0.796157,0.600000,-0.800000,0.000000,-0.800000,0.000000,-0.796148,-0.078414,-0.796148,-0.232228,-0.765552,-0.377117,-0.705537,
-0.507515,-0.618408,-0.618408,-0.507515,-0.705537,-0.377117,-0.765552,-0.232228,-0.796148,-0.078414,-0.796148,0.078414,-0.765552,0.232228,-0.705537,0.377117,-0.618408,0.507515,-0.507515,0.618408,-0.377117,0.705537,-0.232228,0.765552,-0.078414,0.796148,0.000000,0.796148,0.000000,0.800000,0.600000,0.800000,0.603843,0.796157,0.603843,0.796157,$1*%
%AMFreePoly1*
4,1,37,0.000000,0.796148,0.078414,0.796148,0.232228,0.765552,0.377117,0.705537,0.507515,0.618408,0.618408,0.507515,0.705537,0.377117,0.765552,0.232228,0.796148,0.078414,0.796148,-0.078414,0.765552,-0.232228,0.705537,-0.377117,0.618408,-0.507515,0.507515,-0.618408,0.377117,-0.705537,0.232228,-0.765552,0.078414,-0.796148,0.000000,-0.796148,0.000000,-0.800000,-0.600000,-0.800000,
-0.603843,-0.796157,-0.639018,-0.796157,-0.711114,-0.766294,-0.766294,-0.711114,-0.796157,-0.639018,-0.796157,-0.603843,-0.800000,-0.600000,-0.800000,0.600000,-0.796157,0.603843,-0.796157,0.639018,-0.766294,0.711114,-0.711114,0.766294,-0.639018,0.796157,-0.603843,0.796157,-0.600000,0.800000,0.000000,0.800000,0.000000,0.796148,0.000000,0.796148,$1*%
G04 Aperture macros list end*
%TA.AperFunction,ComponentPad*%
%ADD10C,2.200000*%
%TD*%
%TA.AperFunction,ComponentPad*%
%ADD11RoundRect,0.200000X-0.600000X0.600000X-0.600000X-0.600000X0.600000X-0.600000X0.600000X0.600000X0*%
%TD*%
%TA.AperFunction,ComponentPad*%
%ADD12C,1.600000*%
%TD*%
%TA.AperFunction,ComponentPad*%
%ADD13FreePoly0,270.000000*%
%TD*%
%TA.AperFunction,ComponentPad*%
%ADD14FreePoly1,270.000000*%
%TD*%
%TA.AperFunction,SMDPad,CuDef*%
%ADD15RoundRect,0.225000X0.375000X-0.225000X0.375000X0.225000X-0.375000X0.225000X-0.375000X-0.225000X0*%
%TD*%
%TA.AperFunction,ViaPad*%
%ADD16C,0.600000*%
%TD*%
%TA.AperFunction,Conductor*%
%ADD17C,0.200000*%
%TD*%
G04 APERTURE END LIST*
D10*
%TO.P,MX29,1,1*%
%TO.N,/COL 12*%
X266700000Y-66675000D03*
%TO.P,MX29,2,2*%
%TO.N,Net-(D29-A)*%
X260350000Y-69215000D03*
%TD*%
%TO.P,MX10,1,1*%
%TO.N,/COL 9*%
X247650000Y-38100000D03*
%TO.P,MX10,2,2*%
%TO.N,Net-(D10-A)*%
X241300000Y-40640000D03*
%TD*%
%TO.P,MX39,1,1*%
%TO.N,/COL 2*%
X85725000Y-85725000D03*
%TO.P,MX39,2,2*%
%TO.N,Net-(D39-A)*%
X79375000Y-88265000D03*
%TD*%
%TO.P,MX31,1,1*%
%TO.N,/COL 14*%
X328612500Y-66675000D03*
%TO.P,MX31,2,2*%
%TO.N,Net-(D31-A)*%
X322262500Y-69215000D03*
%TD*%
%TO.P,MX72,1,1*%
%TO.N,/COL 19*%
X428625000Y-104775000D03*
%TO.P,MX72,2,2*%
%TO.N,Net-(D72-A)*%
X422275000Y-107315000D03*
%TD*%
%TO.P,MX15,1,1*%
%TO.N,/COL 15*%
X347662500Y-38100000D03*
%TO.P,MX15,2,2*%
%TO.N,Net-(D15-A)*%
X341312500Y-40640000D03*
%TD*%
%TO.P,MX48,1,1*%
%TO.N,/COL 11*%
X257175000Y-85725000D03*
%TO.P,MX48,2,2*%
%TO.N,Net-(D48-A)*%
X250825000Y-88265000D03*
%TD*%
%TO.P,MX40,1,1*%
%TO.N,/COL 3*%
X104775000Y-85725000D03*
%TO.P,MX40,2,2*%
%TO.N,Net-(D40-A)*%
X98425000Y-88265000D03*
%TD*%
%TO.P,MX42,1,1*%
%TO.N,/COL 5*%
X142875000Y-85725000D03*
%TO.P,MX42,2,2*%
%TO.N,Net-(D42-A)*%
X136525000Y-88265000D03*
%TD*%
%TO.P,MX24,1,1*%
%TO.N,/COL 7*%
X171450000Y-66675000D03*
%TO.P,MX24,2,2*%
%TO.N,Net-(D24-A)*%
X165100000Y-69215000D03*
%TD*%
%TO.P,MX4,1,1*%
%TO.N,/COL 3*%
X114300000Y-38100000D03*
%TO.P,MX4,2,2*%
%TO.N,Net-(D4-A)*%
X107950000Y-40640000D03*
%TD*%
%TO.P,MX95,1,1*%
%TO.N,/COL 11*%
X254793750Y-142875000D03*
%TO.P,MX95,2,2*%
%TO.N,Net-(D95-A)*%
X248443750Y-145415000D03*
%TD*%
%TO.P,MX35,1,1*%
%TO.N,/COL 18*%
X409575000Y-66675000D03*
%TO.P,MX35,2,2*%
%TO.N,Net-(D35-A)*%
X403225000Y-69215000D03*
%TD*%
D11*
%TO.P,A1,1,GPIO0*%
%TO.N,/COL 0*%
X435850000Y-34740000D03*
D12*
%TO.P,A1,2,GPIO1*%
%TO.N,/COL 1*%
X433310000Y-34740000D03*
D13*
%TO.P,A1,3,GND*%
%TO.N,Net-(A1-GND-Pad13)*%
X430770000Y-34740000D03*
D12*
%TO.P,A1,4,GPIO2*%
%TO.N,/COL 2*%
X428230000Y-34740000D03*
%TO.P,A1,5,GPIO3*%
%TO.N,/COL 3*%
X425690000Y-34740000D03*
%TO.P,A1,6,GPIO4*%
%TO.N,/COL 4*%
X423150000Y-34740000D03*
%TO.P,A1,7,GPIO5*%
%TO.N,/COL 5*%
X420610000Y-34740000D03*
D13*
%TO.P,A1,8,GND*%
%TO.N,Net-(A1-GND-Pad13)*%
X418070000Y-34740000D03*
D12*
%TO.P,A1,9,GPIO6*%
%TO.N,/COL 6*%
X415530000Y-34740000D03*
%TO.P,A1,10,GPIO7*%
%TO.N,/COL 7*%
X412990000Y-34740000D03*
%TO.P,A1,11,GPIO8*%
%TO.N,/COL 8*%
X410450000Y-34740000D03*
%TO.P,A1,12,GPIO9*%
%TO.N,/COL 9*%
X407910000Y-34740000D03*
D13*
%TO.P,A1,13,GND*%
%TO.N,Net-(A1-GND-Pad13)*%
X405370000Y-34740000D03*
D12*
%TO.P,A1,14,GPIO10*%
%TO.N,/COL 10*%
X402830000Y-34740000D03*
%TO.P,A1,15,GPIO11*%
%TO.N,/COL 11*%
X400290000Y-34740000D03*
%TO.P,A1,16,GPIO12*%
%TO.N,/COL 12*%
X397750000Y-34740000D03*
%TO.P,A1,17,GPIO13*%
%TO.N,/COL 13*%
X395210000Y-34740000D03*
D13*
%TO.P,A1,18,GND*%
%TO.N,Net-(A1-GND-Pad13)*%
X392670000Y-34740000D03*
D12*
%TO.P,A1,19,GPIO14*%
%TO.N,/COL 14*%
X390130000Y-34740000D03*
%TO.P,A1,20,GPIO15*%
%TO.N,/COL 15*%
X387590000Y-34740000D03*
%TO.P,A1,21,GPIO16*%
%TO.N,/COL 16*%
X387590000Y-52520000D03*
%TO.P,A1,22,GPIO17*%
%TO.N,/COL 17*%
X390130000Y-52520000D03*
D14*
%TO.P,A1,23,GND*%
%TO.N,Net-(A1-GND-Pad13)*%
X392670000Y-52520000D03*
D12*
%TO.P,A1,24,GPIO18*%
%TO.N,/COL 18*%
X395210000Y-52520000D03*
%TO.P,A1,25,GPIO19*%
%TO.N,/COL 19*%
X397750000Y-52520000D03*
%TO.P,A1,26,GPIO20*%
%TO.N,/ROW 5*%
X400290000Y-52520000D03*
%TO.P,A1,27,GPIO21*%
%TO.N,/ROW 0*%
X402830000Y-52520000D03*
D14*
%TO.P,A1,28,GND*%
%TO.N,Net-(A1-GND-Pad13)*%
X405370000Y-52520000D03*
D12*
%TO.P,A1,29,GPIO22*%
%TO.N,/ROW 1*%
X407910000Y-52520000D03*
%TO.P,A1,30,RUN*%
%TO.N,unconnected-(A1-RUN-Pad30)*%
X410450000Y-52520000D03*
%TO.P,A1,31,GPIO26_ADC0*%
%TO.N,/ROW 2*%
X412990000Y-52520000D03*
%TO.P,A1,32,GPIO27_ADC1*%
%TO.N,/ROW 3*%
X415530000Y-52520000D03*
D14*
%TO.P,A1,33,AGND*%
%TO.N,unconnected-(A1-AGND-Pad33)*%
X418070000Y-52520000D03*
D12*
%TO.P,A1,34,GPIO28_ADC2*%
%TO.N,/ROW 4*%
X420610000Y-52520000D03*
%TO.P,A1,35,ADC_VREF*%
%TO.N,unconnected-(A1-ADC_VREF-Pad35)*%
X423150000Y-52520000D03*
%TO.P,A1,36,3V3*%
%TO.N,unconnected-(A1-3V3-Pad36)*%
X425690000Y-52520000D03*
%TO.P,A1,37,3V3_EN*%
%TO.N,unconnected-(A1-3V3_EN-Pad37)*%
X428230000Y-52520000D03*
D14*
%TO.P,A1,38,GND*%
%TO.N,Net-(A1-GND-Pad13)*%
X430770000Y-52520000D03*
D12*
%TO.P,A1,39,VSYS*%
%TO.N,unconnected-(A1-VSYS-Pad39)*%
X433310000Y-52520000D03*
%TO.P,A1,40,VBUS*%
%TO.N,unconnected-(A1-VBUS-Pad40)*%
X435850000Y-52520000D03*
%TD*%
D10*
%TO.P,MX89,1,1*%
%TO.N,/COL 19*%
X428625000Y-123825000D03*
%TO.P,MX89,2,2*%
%TO.N,Net-(D89-A)*%
X422275000Y-126365000D03*
%TD*%
%TO.P,MX75,1,1*%
%TO.N,/COL 2*%
X80962500Y-123825000D03*
%TO.P,MX75,2,2*%
%TO.N,Net-(D75-A)*%
X74612500Y-126365000D03*
%TD*%
%TO.P,MX63,1,1*%
%TO.N,/COL 6*%
X166687500Y-104775000D03*
%TO.P,MX63,2,2*%
%TO.N,Net-(D63-A)*%
X160337500Y-107315000D03*
%TD*%
%TO.P,MX46,1,1*%
%TO.N,/COL 9*%
X219075000Y-85725000D03*
%TO.P,MX46,2,2*%
%TO.N,Net-(D46-A)*%
X212725000Y-88265000D03*
%TD*%
%TO.P,MX91,1,1*%
%TO.N,/COL 1*%
X64293750Y-142875000D03*
%TO.P,MX91,2,2*%
%TO.N,Net-(D91-A)*%
X57943750Y-145415000D03*
%TD*%
%TO.P,MX23,1,1*%
%TO.N,/COL 6*%
X152400000Y-66675000D03*
%TO.P,MX23,2,2*%
%TO.N,Net-(D23-A)*%
X146050000Y-69215000D03*
%TD*%
%TO.P,MX1,1,1*%
%TO.N,/COL 0*%
X38100000Y-38100000D03*
%TO.P,MX1,2,2*%
%TO.N,Net-(D1-A)*%
X31750000Y-40640000D03*
%TD*%
%TO.P,MX5,1,1*%
%TO.N,/COL 4*%
X133350000Y-38100000D03*
%TO.P,MX5,2,2*%
%TO.N,Net-(D5-A)*%
X127000000Y-40640000D03*
%TD*%
%TO.P,MX98,1,1*%
%TO.N,/COL 14*%
X328612500Y-142875000D03*
%TO.P,MX98,2,2*%
%TO.N,Net-(D98-A)*%
X322262500Y-145415000D03*
%TD*%
%TO.P,MX22,1,1*%
%TO.N,/COL 5*%
X133350000Y-66675000D03*
%TO.P,MX22,2,2*%
%TO.N,Net-(D22-A)*%
X127000000Y-69215000D03*
%TD*%
%TO.P,MX17,1,1*%
%TO.N,/COL 0*%
X38100000Y-66675000D03*
%TO.P,MX17,2,2*%
%TO.N,Net-(D17-A)*%
X31750000Y-69215000D03*
%TD*%
%TO.P,MX62,1,1*%
%TO.N,/COL 5*%
X147637500Y-104775000D03*
%TO.P,MX62,2,2*%
%TO.N,Net-(D62-A)*%
X141287500Y-107315000D03*
%TD*%
%TO.P,MX78,1,1*%
%TO.N,/COL 5*%
X138112500Y-123825000D03*
%TO.P,MX78,2,2*%
%TO.N,Net-(D78-A)*%
X131762500Y-126365000D03*
%TD*%
%TO.P,MX74,1,1*%
%TO.N,/COL 1*%
X61912500Y-123825000D03*
%TO.P,MX74,2,2*%
%TO.N,Net-(D74-A)*%
X55562500Y-126365000D03*
%TD*%
%TO.P,MX93,1,1*%
%TO.N,/COL 5*%
X159543750Y-142875000D03*
%TO.P,MX93,2,2*%
%TO.N,Net-(D93-A)*%
X153193750Y-145415000D03*
%TD*%
%TO.P,MX25,1,1*%
%TO.N,/COL 8*%
X190500000Y-66675000D03*
%TO.P,MX25,2,2*%
%TO.N,Net-(D25-A)*%
X184150000Y-69215000D03*
%TD*%
%TO.P,MX55,1,1*%
%TO.N,/COL 18*%
X409575000Y-85725000D03*
%TO.P,MX55,2,2*%
%TO.N,Net-(D55-A)*%
X403225000Y-88265000D03*
%TD*%
%TO.P,MX59,1,1*%
%TO.N,/COL 2*%
X90487500Y-104775000D03*
%TO.P,MX59,2,2*%
%TO.N,Net-(D59-A)*%
X84137500Y-107315000D03*
%TD*%
%TO.P,MX81,1,1*%
%TO.N,/COL 8*%
X195262500Y-123825000D03*
%TO.P,MX81,2,2*%
%TO.N,Net-(D81-A)*%
X188912500Y-126365000D03*
%TD*%
%TO.P,MX26,1,1*%
%TO.N,/COL 9*%
X209550000Y-66675000D03*
%TO.P,MX26,2,2*%
%TO.N,Net-(D26-A)*%
X203200000Y-69215000D03*
%TD*%
%TO.P,MX79,1,1*%
%TO.N,/COL 6*%
X157162500Y-123825000D03*
%TO.P,MX79,2,2*%
%TO.N,Net-(D79-A)*%
X150812500Y-126365000D03*
%TD*%
%TO.P,MX11,1,1*%
%TO.N,/COL 10*%
X266700000Y-38100000D03*
%TO.P,MX11,2,2*%
%TO.N,Net-(D11-A)*%
X260350000Y-40640000D03*
%TD*%
%TO.P,MX32,1,1*%
%TO.N,/COL 15*%
X347662500Y-66675000D03*
%TO.P,MX32,2,2*%
%TO.N,Net-(D32-A)*%
X341312500Y-69215000D03*
%TD*%
%TO.P,MX49,1,1*%
%TO.N,/COL 12*%
X276225000Y-85725000D03*
%TO.P,MX49,2,2*%
%TO.N,Net-(D49-A)*%
X269875000Y-88265000D03*
%TD*%
%TO.P,MX27,1,1*%
%TO.N,/COL 10*%
X228600000Y-66675000D03*
%TO.P,MX27,2,2*%
%TO.N,Net-(D27-A)*%
X222250000Y-69215000D03*
%TD*%
%TO.P,MX44,1,1*%
%TO.N,/COL 7*%
X180975000Y-85725000D03*
%TO.P,MX44,2,2*%
%TO.N,Net-(D44-A)*%
X174625000Y-88265000D03*
%TD*%
%TO.P,MX41,1,1*%
%TO.N,/COL 4*%
X123825000Y-85725000D03*
%TO.P,MX41,2,2*%
%TO.N,Net-(D41-A)*%
X117475000Y-88265000D03*
%TD*%
%TO.P,MX96,1,1*%
%TO.N,/COL 12*%
X278606250Y-142875000D03*
%TO.P,MX96,2,2*%
%TO.N,Net-(D96-A)*%
X272256250Y-145415000D03*
%TD*%
%TO.P,MX86,1,1*%
%TO.N,/COL 15*%
X347662500Y-123825000D03*
%TO.P,MX86,2,2*%
%TO.N,Net-(D86-A)*%
X341312500Y-126365000D03*
%TD*%
%TO.P,MX85,1,1*%
%TO.N,/COL 12*%
X288131250Y-123825000D03*
%TO.P,MX85,2,2*%
%TO.N,Net-(D85-A)*%
X281781250Y-126365000D03*
%TD*%
%TO.P,MX71,1,1*%
%TO.N,/COL 18*%
X409575000Y-104775000D03*
%TO.P,MX71,2,2*%
%TO.N,Net-(D71-A)*%
X403225000Y-107315000D03*
%TD*%
%TO.P,MX101,1,1*%
%TO.N,/COL 17*%
X400050000Y-142875000D03*
%TO.P,MX101,2,2*%
%TO.N,Net-(D101-A)*%
X393700000Y-145415000D03*
%TD*%
%TO.P,MX64,1,1*%
%TO.N,/COL 7*%
X185737500Y-104775000D03*
%TO.P,MX64,2,2*%
%TO.N,Net-(D64-A)*%
X179387500Y-107315000D03*
%TD*%
%TO.P,MX56,1,1*%
%TO.N,/COL 19*%
X428625000Y-85725000D03*
%TO.P,MX56,2,2*%
%TO.N,Net-(D56-A)*%
X422275000Y-88265000D03*
%TD*%
%TO.P,MX18,1,1*%
%TO.N,/COL 1*%
X57150000Y-66675000D03*
%TO.P,MX18,2,2*%
%TO.N,Net-(D18-A)*%
X50800000Y-69215000D03*
%TD*%
%TO.P,MX80,1,1*%
%TO.N,/COL 7*%
X176212500Y-123825000D03*
%TO.P,MX80,2,2*%
%TO.N,Net-(D80-A)*%
X169862500Y-126365000D03*
%TD*%
%TO.P,MX6,1,1*%
%TO.N,/COL 5*%
X161925000Y-38100000D03*
%TO.P,MX6,2,2*%
%TO.N,Net-(D6-A)*%
X155575000Y-40640000D03*
%TD*%
%TO.P,MX53,1,1*%
%TO.N,/COL 16*%
X366712500Y-85725000D03*
%TO.P,MX53,2,2*%
%TO.N,Net-(D53-A)*%
X360362500Y-88265000D03*
%TD*%
%TO.P,MX12,1,1*%
%TO.N,/COL 11*%
X285750000Y-38100000D03*
%TO.P,MX12,2,2*%
%TO.N,Net-(D12-A)*%
X279400000Y-40640000D03*
%TD*%
%TO.P,MX94,1,1*%
%TO.N,/COL 10*%
X230981250Y-142875000D03*
%TO.P,MX94,2,2*%
%TO.N,Net-(D94-A)*%
X224631250Y-145415000D03*
%TD*%
%TO.P,MX30,1,1*%
%TO.N,/COL 13*%
X295275000Y-66675000D03*
%TO.P,MX30,2,2*%
%TO.N,Net-(D30-A)*%
X288925000Y-69215000D03*
%TD*%
%TO.P,MX47,1,1*%
%TO.N,/COL 10*%
X238125000Y-85725000D03*
%TO.P,MX47,2,2*%
%TO.N,Net-(D47-A)*%
X231775000Y-88265000D03*
%TD*%
%TO.P,MX82,1,1*%
%TO.N,/COL 9*%
X214312500Y-123825000D03*
%TO.P,MX82,2,2*%
%TO.N,Net-(D82-A)*%
X207962500Y-126365000D03*
%TD*%
%TO.P,MX50,1,1*%
%TO.N,/COL 13*%
X302418750Y-95250000D03*
%TO.P,MX50,2,2*%
%TO.N,Net-(D50-A)*%
X296068750Y-97790000D03*
%TD*%
%TO.P,MX73,1,1*%
%TO.N,/COL 0*%
X40481250Y-123825000D03*
%TO.P,MX73,2,2*%
%TO.N,Net-(D73-A)*%
X34131250Y-126365000D03*
%TD*%
%TO.P,MX92,1,1*%
%TO.N,/COL 2*%
X88106250Y-142875000D03*
%TO.P,MX92,2,2*%
%TO.N,Net-(D92-A)*%
X81756250Y-145415000D03*
%TD*%
%TO.P,MX69,1,1*%
%TO.N,/COL 12*%
X280987500Y-104775000D03*
%TO.P,MX69,2,2*%
%TO.N,Net-(D69-A)*%
X274637500Y-107315000D03*
%TD*%
%TO.P,MX37,1,1*%
%TO.N,/COL 0*%
X42862500Y-85725000D03*
%TO.P,MX37,2,2*%
%TO.N,Net-(D37-A)*%
X36512500Y-88265000D03*
%TD*%
%TO.P,MX60,1,1*%
%TO.N,/COL 3*%
X109537500Y-104775000D03*
%TO.P,MX60,2,2*%
%TO.N,Net-(D60-A)*%
X103187500Y-107315000D03*
%TD*%
%TO.P,MX77,1,1*%
%TO.N,/COL 4*%
X119062500Y-123825000D03*
%TO.P,MX77,2,2*%
%TO.N,Net-(D77-A)*%
X112712500Y-126365000D03*
%TD*%
%TO.P,MX52,1,1*%
%TO.N,/COL 15*%
X347662500Y-85725000D03*
%TO.P,MX52,2,2*%
%TO.N,Net-(D52-A)*%
X341312500Y-88265000D03*
%TD*%
%TO.P,MX28,1,1*%
%TO.N,/COL 11*%
X247650000Y-66675000D03*
%TO.P,MX28,2,2*%
%TO.N,Net-(D28-A)*%
X241300000Y-69215000D03*
%TD*%
%TO.P,MX97,1,1*%
%TO.N,/COL 13*%
X302418750Y-142875000D03*
%TO.P,MX97,2,2*%
%TO.N,Net-(D97-A)*%
X296068750Y-145415000D03*
%TD*%
%TO.P,MX76,1,1*%
%TO.N,/COL 3*%
X100012500Y-123825000D03*
%TO.P,MX76,2,2*%
%TO.N,Net-(D76-A)*%
X93662500Y-126365000D03*
%TD*%
%TO.P,MX8,1,1*%
%TO.N,/COL 7*%
X200025000Y-38100000D03*
%TO.P,MX8,2,2*%
%TO.N,Net-(D8-A)*%
X193675000Y-40640000D03*
%TD*%
%TO.P,MX2,1,1*%
%TO.N,/COL 1*%
X76200000Y-38100000D03*
%TO.P,MX2,2,2*%
%TO.N,Net-(D2-A)*%
X69850000Y-40640000D03*
%TD*%
%TO.P,MX43,1,1*%
%TO.N,/COL 6*%
X161925000Y-85725000D03*
%TO.P,MX43,2,2*%
%TO.N,Net-(D43-A)*%
X155575000Y-88265000D03*
%TD*%
%TO.P,MX33,1,1*%
%TO.N,/COL 16*%
X366712500Y-66675000D03*
%TO.P,MX33,2,2*%
%TO.N,Net-(D33-A)*%
X360362500Y-69215000D03*
%TD*%
%TO.P,MX58,1,1*%
%TO.N,/COL 1*%
X71437500Y-104775000D03*
%TO.P,MX58,2,2*%
%TO.N,Net-(D58-A)*%
X65087500Y-107315000D03*
%TD*%
%TO.P,MX61,1,1*%
%TO.N,/COL 4*%
X128587500Y-104775000D03*
%TO.P,MX61,2,2*%
%TO.N,Net-(D61-A)*%
X122237500Y-107315000D03*
%TD*%
%TO.P,MX88,1,1*%
%TO.N,/COL 18*%
X409575000Y-123825000D03*
%TO.P,MX88,2,2*%
%TO.N,Net-(D88-A)*%
X403225000Y-126365000D03*
%TD*%
%TO.P,MX99,1,1*%
%TO.N,/COL 15*%
X347662500Y-142875000D03*
%TO.P,MX99,2,2*%
%TO.N,Net-(D99-A)*%
X341312500Y-145415000D03*
%TD*%
%TO.P,MX66,1,1*%
%TO.N,/COL 9*%
X223837500Y-104775000D03*
%TO.P,MX66,2,2*%
%TO.N,Net-(D66-A)*%
X217487500Y-107315000D03*
%TD*%
%TO.P,MX38,1,1*%
%TO.N,/COL 1*%
X66675000Y-85725000D03*
%TO.P,MX38,2,2*%
%TO.N,Net-(D38-A)*%
X60325000Y-88265000D03*
%TD*%
%TO.P,MX70,1,1*%
%TO.N,/COL 17*%
X390525000Y-104775000D03*
%TO.P,MX70,2,2*%
%TO.N,Net-(D70-A)*%
X384175000Y-107315000D03*
%TD*%
%TO.P,MX16,1,1*%
%TO.N,/COL 16*%
X366712500Y-38100000D03*
%TO.P,MX16,2,2*%
%TO.N,Net-(D16-A)*%
X360362500Y-40640000D03*
%TD*%
%TO.P,MX20,1,1*%
%TO.N,/COL 3*%
X95250000Y-66675000D03*
%TO.P,MX20,2,2*%
%TO.N,Net-(D20-A)*%
X88900000Y-69215000D03*
%TD*%
%TO.P,MX83,1,1*%
%TO.N,/COL 10*%
X233362500Y-123825000D03*
%TO.P,MX83,2,2*%
%TO.N,Net-(D83-A)*%
X227012500Y-126365000D03*
%TD*%
%TO.P,MX102,1,1*%
%TO.N,/COL 19*%
X428625000Y-142875000D03*
%TO.P,MX102,2,2*%
%TO.N,Net-(D102-A)*%
X422275000Y-145415000D03*
%TD*%
%TO.P,MX90,1,1*%
%TO.N,/COL 0*%
X40481250Y-142875000D03*
%TO.P,MX90,2,2*%
%TO.N,Net-(D90-A)*%
X34131250Y-145415000D03*
%TD*%
%TO.P,MX100,1,1*%
%TO.N,/COL 16*%
X366712500Y-142875000D03*
%TO.P,MX100,2,2*%
%TO.N,Net-(D100-A)*%
X360362500Y-145415000D03*
%TD*%
%TO.P,MX54,1,1*%
%TO.N,/COL 17*%
X390525000Y-85725000D03*
%TO.P,MX54,2,2*%
%TO.N,Net-(D54-A)*%
X384175000Y-88265000D03*
%TD*%
%TO.P,MX13,1,1*%
%TO.N,/COL 13*%
X304800000Y-38100000D03*
%TO.P,MX13,2,2*%
%TO.N,Net-(D13-A)*%
X298450000Y-40640000D03*
%TD*%
%TO.P,MX34,1,1*%
%TO.N,/COL 17*%
X390525000Y-66675000D03*
%TO.P,MX34,2,2*%
%TO.N,Net-(D34-A)*%
X384175000Y-69215000D03*
%TD*%
%TO.P,MX87,1,1*%
%TO.N,/COL 17*%
X390525000Y-123825000D03*
%TO.P,MX87,2,2*%
%TO.N,Net-(D87-A)*%
X384175000Y-126365000D03*
%TD*%
%TO.P,MX3,1,1*%
%TO.N,/COL 2*%
X95250000Y-38100000D03*
%TO.P,MX3,2,2*%
%TO.N,Net-(D3-A)*%
X88900000Y-40640000D03*
%TD*%
%TO.P,MX67,1,1*%
%TO.N,/COL 10*%
X242887500Y-104775000D03*
%TO.P,MX67,2,2*%
%TO.N,Net-(D67-A)*%
X236537500Y-107315000D03*
%TD*%
%TO.P,MX57,1,1*%
%TO.N,/COL 0*%
X45243750Y-104775000D03*
%TO.P,MX57,2,2*%
%TO.N,Net-(D57-A)*%
X38893750Y-107315000D03*
%TD*%
%TO.P,MX14,1,1*%
%TO.N,/COL 14*%
X328612500Y-38100000D03*
%TO.P,MX14,2,2*%
%TO.N,Net-(D14-A)*%
X322262500Y-40640000D03*
%TD*%
%TO.P,MX68,1,1*%
%TO.N,/COL 11*%
X261937500Y-104775000D03*
%TO.P,MX68,2,2*%
%TO.N,Net-(D68-A)*%
X255587500Y-107315000D03*
%TD*%
%TO.P,MX36,1,1*%
%TO.N,/COL 19*%
X428625000Y-66675000D03*
%TO.P,MX36,2,2*%
%TO.N,Net-(D36-A)*%
X422275000Y-69215000D03*
%TD*%
%TO.P,MX9,1,1*%
%TO.N,/COL 8*%
X219075000Y-38100000D03*
%TO.P,MX9,2,2*%
%TO.N,Net-(D9-A)*%
X212725000Y-40640000D03*
%TD*%
%TO.P,MX21,1,1*%
%TO.N,/COL 4*%
X114300000Y-66675000D03*
%TO.P,MX21,2,2*%
%TO.N,Net-(D21-A)*%
X107950000Y-69215000D03*
%TD*%
%TO.P,MX7,1,1*%
%TO.N,/COL 6*%
X180975000Y-38100000D03*
%TO.P,MX7,2,2*%
%TO.N,Net-(D7-A)*%
X174625000Y-40640000D03*
%TD*%
%TO.P,MX84,1,1*%
%TO.N,/COL 11*%
X252412500Y-123825000D03*
%TO.P,MX84,2,2*%
%TO.N,Net-(D84-A)*%
X246062500Y-126365000D03*
%TD*%
%TO.P,MX45,1,1*%
%TO.N,/COL 8*%
X200025000Y-85725000D03*
%TO.P,MX45,2,2*%
%TO.N,Net-(D45-A)*%
X193675000Y-88265000D03*
%TD*%
%TO.P,MX51,1,1*%
%TO.N,/COL 14*%
X328612500Y-85725000D03*
%TO.P,MX51,2,2*%
%TO.N,Net-(D51-A)*%
X322262500Y-88265000D03*
%TD*%
%TO.P,MX65,1,1*%
%TO.N,/COL 8*%
X204787500Y-104775000D03*
%TO.P,MX65,2,2*%
%TO.N,Net-(D65-A)*%
X198437500Y-107315000D03*
%TD*%
%TO.P,MX19,1,1*%
%TO.N,/COL 2*%
X76200000Y-66675000D03*
%TO.P,MX19,2,2*%
%TO.N,Net-(D19-A)*%
X69850000Y-69215000D03*
%TD*%
D15*
%TO.P,D7,1,K*%
%TO.N,/ROW 0*%
X186055000Y-42780000D03*
%TO.P,D7,2,A*%
%TO.N,Net-(D7-A)*%
X186055000Y-39480000D03*
%TD*%
%TO.P,D29,1,K*%
%TO.N,/ROW 1*%
X271780000Y-71355000D03*
%TO.P,D29,2,A*%
%TO.N,Net-(D29-A)*%
X271780000Y-68055000D03*
%TD*%
%TO.P,D11,1,K*%
%TO.N,/ROW 0*%
X271780000Y-42780000D03*
%TO.P,D11,2,A*%
%TO.N,Net-(D11-A)*%
X271780000Y-39480000D03*
%TD*%
%TO.P,D81,1,K*%
%TO.N,/ROW 4*%
X200342500Y-128505000D03*
%TO.P,D81,2,A*%
%TO.N,Net-(D81-A)*%
X200342500Y-125205000D03*
%TD*%
%TO.P,D10,1,K*%
%TO.N,/ROW 0*%
X252730000Y-42780000D03*
%TO.P,D10,2,A*%
%TO.N,Net-(D10-A)*%
X252730000Y-39480000D03*
%TD*%
%TO.P,D5,1,K*%
%TO.N,/ROW 0*%
X138430000Y-42780000D03*
%TO.P,D5,2,A*%
%TO.N,Net-(D5-A)*%
X138430000Y-39480000D03*
%TD*%
%TO.P,D61,1,K*%
%TO.N,/ROW 3*%
X133667500Y-109455000D03*
%TO.P,D61,2,A*%
%TO.N,Net-(D61-A)*%
X133667500Y-106155000D03*
%TD*%
%TO.P,D44,1,K*%
%TO.N,/ROW 2*%
X186055000Y-90405000D03*
%TO.P,D44,2,A*%
%TO.N,Net-(D44-A)*%
X186055000Y-87105000D03*
%TD*%
%TO.P,D35,1,K*%
%TO.N,/ROW 1*%
X414655000Y-71355000D03*
%TO.P,D35,2,A*%
%TO.N,Net-(D35-A)*%
X414655000Y-68055000D03*
%TD*%
%TO.P,D31,1,K*%
%TO.N,/ROW 1*%
X333692500Y-71355000D03*
%TO.P,D31,2,A*%
%TO.N,Net-(D31-A)*%
X333692500Y-68055000D03*
%TD*%
%TO.P,D16,1,K*%
%TO.N,/ROW 0*%
X371792500Y-42780000D03*
%TO.P,D16,2,A*%
%TO.N,Net-(D16-A)*%
X371792500Y-39480000D03*
%TD*%
%TO.P,D23,1,K*%
%TO.N,/ROW 1*%
X157480000Y-71355000D03*
%TO.P,D23,2,A*%
%TO.N,Net-(D23-A)*%
X157480000Y-68055000D03*
%TD*%
%TO.P,D97,1,K*%
%TO.N,/ROW 5*%
X307498750Y-147555000D03*
%TO.P,D97,2,A*%
%TO.N,Net-(D97-A)*%
X307498750Y-144255000D03*
%TD*%
%TO.P,D6,1,K*%
%TO.N,/ROW 0*%
X167005000Y-42780000D03*
%TO.P,D6,2,A*%
%TO.N,Net-(D6-A)*%
X167005000Y-39480000D03*
%TD*%
%TO.P,D18,1,K*%
%TO.N,/ROW 1*%
X62230000Y-71355000D03*
%TO.P,D18,2,A*%
%TO.N,Net-(D18-A)*%
X62230000Y-68055000D03*
%TD*%
%TO.P,D21,1,K*%
%TO.N,/ROW 1*%
X119380000Y-71355000D03*
%TO.P,D21,2,A*%
%TO.N,Net-(D21-A)*%
X119380000Y-68055000D03*
%TD*%
%TO.P,D2,1,K*%
%TO.N,/ROW 0*%
X81280000Y-42780000D03*
%TO.P,D2,2,A*%
%TO.N,Net-(D2-A)*%
X81280000Y-39480000D03*
%TD*%
%TO.P,D82,1,K*%
%TO.N,/ROW 4*%
X219392500Y-128505000D03*
%TO.P,D82,2,A*%
%TO.N,Net-(D82-A)*%
X219392500Y-125205000D03*
%TD*%
%TO.P,D36,1,K*%
%TO.N,/ROW 1*%
X433705000Y-71355000D03*
%TO.P,D36,2,A*%
%TO.N,Net-(D36-A)*%
X433705000Y-68055000D03*
%TD*%
%TO.P,D64,1,K*%
%TO.N,/ROW 3*%
X190817500Y-109455000D03*
%TO.P,D64,2,A*%
%TO.N,Net-(D64-A)*%
X190817500Y-106155000D03*
%TD*%
%TO.P,D73,1,K*%
%TO.N,/ROW 4*%
X45561250Y-128505000D03*
%TO.P,D73,2,A*%
%TO.N,Net-(D73-A)*%
X45561250Y-125205000D03*
%TD*%
%TO.P,D43,1,K*%
%TO.N,/ROW 2*%
X167005000Y-90405000D03*
%TO.P,D43,2,A*%
%TO.N,Net-(D43-A)*%
X167005000Y-87105000D03*
%TD*%
%TO.P,D45,1,K*%
%TO.N,/ROW 2*%
X205105000Y-90405000D03*
%TO.P,D45,2,A*%
%TO.N,Net-(D45-A)*%
X205105000Y-87105000D03*
%TD*%
%TO.P,D76,1,K*%
%TO.N,/ROW 4*%
X105092500Y-128505000D03*
%TO.P,D76,2,A*%
%TO.N,Net-(D76-A)*%
X105092500Y-125205000D03*
%TD*%
%TO.P,D74,1,K*%
%TO.N,/ROW 4*%
X66992500Y-128505000D03*
%TO.P,D74,2,A*%
%TO.N,Net-(D74-A)*%
X66992500Y-125205000D03*
%TD*%
%TO.P,D26,1,K*%
%TO.N,/ROW 1*%
X214630000Y-71355000D03*
%TO.P,D26,2,A*%
%TO.N,Net-(D26-A)*%
X214630000Y-68055000D03*
%TD*%
%TO.P,D39,1,K*%
%TO.N,/ROW 2*%
X90805000Y-90405000D03*
%TO.P,D39,2,A*%
%TO.N,Net-(D39-A)*%
X90805000Y-87105000D03*
%TD*%
%TO.P,D4,1,K*%
%TO.N,/ROW 0*%
X119380000Y-42780000D03*
%TO.P,D4,2,A*%
%TO.N,Net-(D4-A)*%
X119380000Y-39480000D03*
%TD*%
%TO.P,D96,1,K*%
%TO.N,/ROW 5*%
X283686250Y-147555000D03*
%TO.P,D96,2,A*%
%TO.N,Net-(D96-A)*%
X283686250Y-144255000D03*
%TD*%
%TO.P,D70,1,K*%
%TO.N,/ROW 3*%
X395605000Y-109455000D03*
%TO.P,D70,2,A*%
%TO.N,Net-(D70-A)*%
X395605000Y-106155000D03*
%TD*%
%TO.P,D17,1,K*%
%TO.N,/ROW 1*%
X43180000Y-71355000D03*
%TO.P,D17,2,A*%
%TO.N,Net-(D17-A)*%
X43180000Y-68055000D03*
%TD*%
%TO.P,D88,1,K*%
%TO.N,/ROW 4*%
X414655000Y-128505000D03*
%TO.P,D88,2,A*%
%TO.N,Net-(D88-A)*%
X414655000Y-125205000D03*
%TD*%
%TO.P,D25,1,K*%
%TO.N,/ROW 1*%
X195580000Y-71355000D03*
%TO.P,D25,2,A*%
%TO.N,Net-(D25-A)*%
X195580000Y-68055000D03*
%TD*%
%TO.P,D62,1,K*%
%TO.N,/ROW 3*%
X152717500Y-109455000D03*
%TO.P,D62,2,A*%
%TO.N,Net-(D62-A)*%
X152717500Y-106155000D03*
%TD*%
%TO.P,D58,1,K*%
%TO.N,/ROW 3*%
X76517500Y-109455000D03*
%TO.P,D58,2,A*%
%TO.N,Net-(D58-A)*%
X76517500Y-106155000D03*
%TD*%
%TO.P,D46,1,K*%
%TO.N,/ROW 2*%
X224155000Y-90405000D03*
%TO.P,D46,2,A*%
%TO.N,Net-(D46-A)*%
X224155000Y-87105000D03*
%TD*%
%TO.P,D14,1,K*%
%TO.N,/ROW 0*%
X333692500Y-42780000D03*
%TO.P,D14,2,A*%
%TO.N,Net-(D14-A)*%
X333692500Y-39480000D03*
%TD*%
%TO.P,D63,1,K*%
%TO.N,/ROW 3*%
X171767500Y-109455000D03*
%TO.P,D63,2,A*%
%TO.N,Net-(D63-A)*%
X171767500Y-106155000D03*
%TD*%
%TO.P,D50,1,K*%
%TO.N,/ROW 2*%
X307498750Y-99930000D03*
%TO.P,D50,2,A*%
%TO.N,Net-(D50-A)*%
X307498750Y-96630000D03*
%TD*%
%TO.P,D93,1,K*%
%TO.N,/ROW 5*%
X164623750Y-147555000D03*
%TO.P,D93,2,A*%
%TO.N,Net-(D93-A)*%
X164623750Y-144255000D03*
%TD*%
%TO.P,D47,1,K*%
%TO.N,/ROW 2*%
X243205000Y-90405000D03*
%TO.P,D47,2,A*%
%TO.N,Net-(D47-A)*%
X243205000Y-87105000D03*
%TD*%
%TO.P,D55,1,K*%
%TO.N,/ROW 2*%
X414655000Y-90405000D03*
%TO.P,D55,2,A*%
%TO.N,Net-(D55-A)*%
X414655000Y-87105000D03*
%TD*%
%TO.P,D60,1,K*%
%TO.N,/ROW 3*%
X114617500Y-109455000D03*
%TO.P,D60,2,A*%
%TO.N,Net-(D60-A)*%
X114617500Y-106155000D03*
%TD*%
%TO.P,D65,1,K*%
%TO.N,/ROW 3*%
X209867500Y-109455000D03*
%TO.P,D65,2,A*%
%TO.N,Net-(D65-A)*%
X209867500Y-106155000D03*
%TD*%
%TO.P,D86,1,K*%
%TO.N,/ROW 4*%
X352742500Y-128505000D03*
%TO.P,D86,2,A*%
%TO.N,Net-(D86-A)*%
X352742500Y-125205000D03*
%TD*%
%TO.P,D56,1,K*%
%TO.N,/ROW 2*%
X433705000Y-90405000D03*
%TO.P,D56,2,A*%
%TO.N,Net-(D56-A)*%
X433705000Y-87105000D03*
%TD*%
%TO.P,D72,1,K*%
%TO.N,/ROW 3*%
X433705000Y-109455000D03*
%TO.P,D72,2,A*%
%TO.N,Net-(D72-A)*%
X433705000Y-106155000D03*
%TD*%
%TO.P,D78,1,K*%
%TO.N,/ROW 4*%
X143192500Y-128505000D03*
%TO.P,D78,2,A*%
%TO.N,Net-(D78-A)*%
X143192500Y-125205000D03*
%TD*%
%TO.P,D102,1,K*%
%TO.N,/ROW 5*%
X433705000Y-147555000D03*
%TO.P,D102,2,A*%
%TO.N,Net-(D102-A)*%
X433705000Y-144255000D03*
%TD*%
%TO.P,D1,1,K*%
%TO.N,/ROW 0*%
X43180000Y-42780000D03*
%TO.P,D1,2,A*%
%TO.N,Net-(D1-A)*%
X43180000Y-39480000D03*
%TD*%
%TO.P,D75,1,K*%
%TO.N,/ROW 4*%
X86042500Y-128505000D03*
%TO.P,D75,2,A*%
%TO.N,Net-(D75-A)*%
X86042500Y-125205000D03*
%TD*%
%TO.P,D83,1,K*%
%TO.N,/ROW 4*%
X238442500Y-128505000D03*
%TO.P,D83,2,A*%
%TO.N,Net-(D83-A)*%
X238442500Y-125205000D03*
%TD*%
%TO.P,D84,1,K*%
%TO.N,/ROW 4*%
X257492500Y-128505000D03*
%TO.P,D84,2,A*%
%TO.N,Net-(D84-A)*%
X257492500Y-125205000D03*
%TD*%
%TO.P,D101,1,K*%
%TO.N,/ROW 5*%
X405130000Y-147555000D03*
%TO.P,D101,2,A*%
%TO.N,Net-(D101-A)*%
X405130000Y-144255000D03*
%TD*%
%TO.P,D69,1,K*%
%TO.N,/ROW 3*%
X286067500Y-109455000D03*
%TO.P,D69,2,A*%
%TO.N,Net-(D69-A)*%
X286067500Y-106155000D03*
%TD*%
%TO.P,D89,1,K*%
%TO.N,/ROW 4*%
X433705000Y-128505000D03*
%TO.P,D89,2,A*%
%TO.N,Net-(D89-A)*%
X433705000Y-125205000D03*
%TD*%
%TO.P,D94,1,K*%
%TO.N,/ROW 5*%
X236061250Y-147555000D03*
%TO.P,D94,2,A*%
%TO.N,Net-(D94-A)*%
X236061250Y-144255000D03*
%TD*%
%TO.P,D79,1,K*%
%TO.N,/ROW 4*%
X162242500Y-128505000D03*
%TO.P,D79,2,A*%
%TO.N,Net-(D79-A)*%
X162242500Y-125205000D03*
%TD*%
%TO.P,D12,1,K*%
%TO.N,/ROW 0*%
X290830000Y-42780000D03*
%TO.P,D12,2,A*%
%TO.N,Net-(D12-A)*%
X290830000Y-39480000D03*
%TD*%
%TO.P,D53,1,K*%
%TO.N,/ROW 2*%
X371792500Y-90405000D03*
%TO.P,D53,2,A*%
%TO.N,Net-(D53-A)*%
X371792500Y-87105000D03*
%TD*%
%TO.P,D52,1,K*%
%TO.N,/ROW 2*%
X352742500Y-90405000D03*
%TO.P,D52,2,A*%
%TO.N,Net-(D52-A)*%
X352742500Y-87105000D03*
%TD*%
%TO.P,D32,1,K*%
%TO.N,/ROW 1*%
X352742500Y-71355000D03*
%TO.P,D32,2,A*%
%TO.N,Net-(D32-A)*%
X352742500Y-68055000D03*
%TD*%
%TO.P,D68,1,K*%
%TO.N,/ROW 3*%
X267017500Y-109455000D03*
%TO.P,D68,2,A*%
%TO.N,Net-(D68-A)*%
X267017500Y-106155000D03*
%TD*%
%TO.P,D48,1,K*%
%TO.N,/ROW 2*%
X262255000Y-90405000D03*
%TO.P,D48,2,A*%
%TO.N,Net-(D48-A)*%
X262255000Y-87105000D03*
%TD*%
%TO.P,D87,1,K*%
%TO.N,/ROW 4*%
X395605000Y-128505000D03*
%TO.P,D87,2,A*%
%TO.N,Net-(D87-A)*%
X395605000Y-125205000D03*
%TD*%
%TO.P,D41,1,K*%
%TO.N,/ROW 2*%
X128905000Y-90405000D03*
%TO.P,D41,2,A*%
%TO.N,Net-(D41-A)*%
X128905000Y-87105000D03*
%TD*%
%TO.P,D19,1,K*%
%TO.N,/ROW 1*%
X81280000Y-71355000D03*
%TO.P,D19,2,A*%
%TO.N,Net-(D19-A)*%
X81280000Y-68055000D03*
%TD*%
%TO.P,D100,1,K*%
%TO.N,/ROW 5*%
X371792500Y-147555000D03*
%TO.P,D100,2,A*%
%TO.N,Net-(D100-A)*%
X371792500Y-144255000D03*
%TD*%
%TO.P,D91,1,K*%
%TO.N,/ROW 5*%
X69373750Y-147555000D03*
%TO.P,D91,2,A*%
%TO.N,Net-(D91-A)*%
X69373750Y-144255000D03*
%TD*%
%TO.P,D98,1,K*%
%TO.N,/ROW 5*%
X333692500Y-147555000D03*
%TO.P,D98,2,A*%
%TO.N,Net-(D98-A)*%
X333692500Y-144255000D03*
%TD*%
%TO.P,D38,1,K*%
%TO.N,/ROW 2*%
X71755000Y-90405000D03*
%TO.P,D38,2,A*%
%TO.N,Net-(D38-A)*%
X71755000Y-87105000D03*
%TD*%
%TO.P,D80,1,K*%
%TO.N,/ROW 4*%
X181292500Y-128505000D03*
%TO.P,D80,2,A*%
%TO.N,Net-(D80-A)*%
X181292500Y-125205000D03*
%TD*%
%TO.P,D20,1,K*%
%TO.N,/ROW 1*%
X100330000Y-71355000D03*
%TO.P,D20,2,A*%
%TO.N,Net-(D20-A)*%
X100330000Y-68055000D03*
%TD*%
%TO.P,D66,1,K*%
%TO.N,/ROW 3*%
X228917500Y-109455000D03*
%TO.P,D66,2,A*%
%TO.N,Net-(D66-A)*%
X228917500Y-106155000D03*
%TD*%
%TO.P,D37,1,K*%
%TO.N,/ROW 2*%
X47942500Y-90405000D03*
%TO.P,D37,2,A*%
%TO.N,Net-(D37-A)*%
X47942500Y-87105000D03*
%TD*%
%TO.P,D28,1,K*%
%TO.N,/ROW 1*%
X252730000Y-71355000D03*
%TO.P,D28,2,A*%
%TO.N,Net-(D28-A)*%
X252730000Y-68055000D03*
%TD*%
%TO.P,D24,1,K*%
%TO.N,/ROW 1*%
X176530000Y-71355000D03*
%TO.P,D24,2,A*%
%TO.N,Net-(D24-A)*%
X176530000Y-68055000D03*
%TD*%
%TO.P,D27,1,K*%
%TO.N,/ROW 1*%
X233680000Y-71355000D03*
%TO.P,D27,2,A*%
%TO.N,Net-(D27-A)*%
X233680000Y-68055000D03*
%TD*%
%TO.P,D40,1,K*%
%TO.N,/ROW 2*%
X109855000Y-90405000D03*
%TO.P,D40,2,A*%
%TO.N,Net-(D40-A)*%
X109855000Y-87105000D03*
%TD*%
%TO.P,D57,1,K*%
%TO.N,/ROW 3*%
X50323750Y-109455000D03*
%TO.P,D57,2,A*%
%TO.N,Net-(D57-A)*%
X50323750Y-106155000D03*
%TD*%
%TO.P,D49,1,K*%
%TO.N,/ROW 2*%
X281305000Y-90405000D03*
%TO.P,D49,2,A*%
%TO.N,Net-(D49-A)*%
X281305000Y-87105000D03*
%TD*%
%TO.P,D22,1,K*%
%TO.N,/ROW 1*%
X138430000Y-71355000D03*
%TO.P,D22,2,A*%
%TO.N,Net-(D22-A)*%
X138430000Y-68055000D03*
%TD*%
%TO.P,D33,1,K*%
%TO.N,/ROW 1*%
X371792500Y-71355000D03*
%TO.P,D33,2,A*%
%TO.N,Net-(D33-A)*%
X371792500Y-68055000D03*
%TD*%
%TO.P,D59,1,K*%
%TO.N,/ROW 3*%
X95567500Y-109455000D03*
%TO.P,D59,2,A*%
%TO.N,Net-(D59-A)*%
X95567500Y-106155000D03*
%TD*%
%TO.P,D42,1,K*%
%TO.N,/ROW 2*%
X147955000Y-90405000D03*
%TO.P,D42,2,A*%
%TO.N,Net-(D42-A)*%
X147955000Y-87105000D03*
%TD*%
%TO.P,D34,1,K*%
%TO.N,/ROW 1*%
X395605000Y-71355000D03*
%TO.P,D34,2,A*%
%TO.N,Net-(D34-A)*%
X395605000Y-68055000D03*
%TD*%
%TO.P,D95,1,K*%
%TO.N,/ROW 5*%
X259873750Y-147555000D03*
%TO.P,D95,2,A*%
%TO.N,Net-(D95-A)*%
X259873750Y-144255000D03*
%TD*%
%TO.P,D77,1,K*%
%TO.N,/ROW 4*%
X124142500Y-128505000D03*
%TO.P,D77,2,A*%
%TO.N,Net-(D77-A)*%
X124142500Y-125205000D03*
%TD*%
%TO.P,D30,1,K*%
%TO.N,/ROW 1*%
X300355000Y-71355000D03*
%TO.P,D30,2,A*%
%TO.N,Net-(D30-A)*%
X300355000Y-68055000D03*
%TD*%
%TO.P,D54,1,K*%
%TO.N,/ROW 2*%
X395605000Y-90405000D03*
%TO.P,D54,2,A*%
%TO.N,Net-(D54-A)*%
X395605000Y-87105000D03*
%TD*%
%TO.P,D8,1,K*%
%TO.N,/ROW 0*%
X205105000Y-42780000D03*
%TO.P,D8,2,A*%
%TO.N,Net-(D8-A)*%
X205105000Y-39480000D03*
%TD*%
%TO.P,D71,1,K*%
%TO.N,/ROW 3*%
X414655000Y-109455000D03*
%TO.P,D71,2,A*%
%TO.N,Net-(D71-A)*%
X414655000Y-106155000D03*
%TD*%
%TO.P,D3,1,K*%
%TO.N,/ROW 0*%
X100330000Y-42780000D03*
%TO.P,D3,2,A*%
%TO.N,Net-(D3-A)*%
X100330000Y-39480000D03*
%TD*%
%TO.P,D15,1,K*%
%TO.N,/ROW 0*%
X352742500Y-42780000D03*
%TO.P,D15,2,A*%
%TO.N,Net-(D15-A)*%
X352742500Y-39480000D03*
%TD*%
%TO.P,D51,1,K*%
%TO.N,/ROW 2*%
X333692500Y-90405000D03*
%TO.P,D51,2,A*%
%TO.N,Net-(D51-A)*%
X333692500Y-87105000D03*
%TD*%
%TO.P,D13,1,K*%
%TO.N,/ROW 0*%
X309880000Y-42780000D03*
%TO.P,D13,2,A*%
%TO.N,Net-(D13-A)*%
X309880000Y-39480000D03*
%TD*%
%TO.P,D85,1,K*%
%TO.N,/ROW 4*%
X293211250Y-128505000D03*
%TO.P,D85,2,A*%
%TO.N,Net-(D85-A)*%
X293211250Y-125205000D03*
%TD*%
%TO.P,D99,1,K*%
%TO.N,/ROW 5*%
X352742500Y-147555000D03*
%TO.P,D99,2,A*%
%TO.N,Net-(D99-A)*%
X352742500Y-144255000D03*
%TD*%
%TO.P,D90,1,K*%
%TO.N,/ROW 5*%
X45561250Y-147555000D03*
%TO.P,D90,2,A*%
%TO.N,Net-(D90-A)*%
X45561250Y-144255000D03*
%TD*%
%TO.P,D92,1,K*%
%TO.N,/ROW 5*%
X93186250Y-147555000D03*
%TO.P,D92,2,A*%
%TO.N,Net-(D92-A)*%
X93186250Y-144255000D03*
%TD*%
%TO.P,D9,1,K*%
%TO.N,/ROW 0*%
X224155000Y-42780000D03*
%TO.P,D9,2,A*%
%TO.N,Net-(D9-A)*%
X224155000Y-39480000D03*
%TD*%
%TO.P,D67,1,K*%
%TO.N,/ROW 3*%
X247967500Y-109455000D03*
%TO.P,D67,2,A*%
%TO.N,Net-(D67-A)*%
X247967500Y-106155000D03*
%TD*%
D16*
%TO.N,Net-(A1-GND-Pad13)*%
X395287500Y-50006250D03*
%TO.N,/ROW 5*%
X431090000Y-59920000D03*
%TD*%
D17*
%TO.N,/ROW 4*%
X290426250Y-131290000D02*
X260277500Y-131290000D01*
X107843500Y-131256000D02*
X105092500Y-128505000D01*
X398356000Y-131256000D02*
X395605000Y-128505000D01*
X216641500Y-131256000D02*
X203093500Y-131256000D01*
X83291500Y-131256000D02*
X69743500Y-131256000D01*
X295962250Y-131256000D02*
X293211250Y-128505000D01*
X121391500Y-131256000D02*
X107843500Y-131256000D01*
X178541500Y-131256000D02*
X164993500Y-131256000D01*
X241193500Y-131256000D02*
X238442500Y-128505000D01*
X219392500Y-128505000D02*
X216641500Y-131256000D01*
X126893500Y-131256000D02*
X124142500Y-128505000D01*
X181292500Y-128505000D02*
X178541500Y-131256000D01*
X355493500Y-131256000D02*
X352742500Y-128505000D01*
X411904000Y-131256000D02*
X398356000Y-131256000D01*
X417406000Y-131256000D02*
X414655000Y-128505000D01*
X184043500Y-131256000D02*
X181292500Y-128505000D01*
X88793500Y-131256000D02*
X86042500Y-128505000D01*
X420610000Y-56590000D02*
X420610000Y-52520000D01*
X352742500Y-128505000D02*
X349991500Y-131256000D01*
X222143500Y-131256000D02*
X219392500Y-128505000D01*
X293211250Y-128505000D02*
X290426250Y-131290000D01*
X102341500Y-131256000D02*
X88793500Y-131256000D01*
X48312250Y-131256000D02*
X45561250Y-128505000D01*
X260277500Y-131290000D02*
X257492500Y-128505000D01*
X197591500Y-131256000D02*
X184043500Y-131256000D01*
X66992500Y-128505000D02*
X64241500Y-131256000D01*
X69743500Y-131256000D02*
X66992500Y-128505000D01*
X143192500Y-128505000D02*
X140441500Y-131256000D01*
X235691500Y-131256000D02*
X222143500Y-131256000D01*
X200342500Y-128505000D02*
X197591500Y-131256000D01*
X238442500Y-128505000D02*
X235691500Y-131256000D01*
X349991500Y-131256000D02*
X295962250Y-131256000D01*
X203093500Y-131256000D02*
X200342500Y-128505000D01*
X254741500Y-131256000D02*
X241193500Y-131256000D01*
X425461410Y-56760000D02*
X420440000Y-56760000D01*
X162242500Y-128505000D02*
X159491500Y-131256000D01*
X164993500Y-131256000D02*
X162242500Y-128505000D01*
X433705000Y-128505000D02*
X430954000Y-131256000D01*
X435809000Y-126401000D02*
X435809000Y-67107590D01*
X414655000Y-128505000D02*
X411904000Y-131256000D01*
X420440000Y-56760000D02*
X420610000Y-56590000D01*
X105092500Y-128505000D02*
X102341500Y-131256000D01*
X430954000Y-131256000D02*
X417406000Y-131256000D01*
X124142500Y-128505000D02*
X121391500Y-131256000D01*
X159491500Y-131256000D02*
X145943500Y-131256000D01*
X257492500Y-128505000D02*
X254741500Y-131256000D01*
X433705000Y-128505000D02*
X435809000Y-126401000D01*
X395605000Y-128505000D02*
X392854000Y-131256000D01*
X86042500Y-128505000D02*
X83291500Y-131256000D01*
X64241500Y-131256000D02*
X48312250Y-131256000D01*
X140441500Y-131256000D02*
X126893500Y-131256000D01*
X145943500Y-131256000D02*
X143192500Y-128505000D01*
X392854000Y-131256000D02*
X355493500Y-131256000D01*
X435809000Y-67107590D02*
X425461410Y-56760000D01*
%TO.N,Net-(A1-GND-Pad13)*%
X416969000Y-35841000D02*
X418070000Y-34740000D01*
X406471000Y-35841000D02*
X416969000Y-35841000D01*
X393771000Y-35841000D02*
X404269000Y-35841000D01*
X392670000Y-34740000D02*
X393771000Y-35841000D01*
X402856250Y-50006250D02*
X395287500Y-50006250D01*
X406476000Y-51414000D02*
X405370000Y-52520000D01*
X418070000Y-34740000D02*
X419171000Y-35841000D01*
X430770000Y-34740000D02*
X430770000Y-52520000D01*
X405370000Y-34740000D02*
X406471000Y-35841000D01*
X405370000Y-52520000D02*
X402856250Y-50006250D01*
X430770000Y-52520000D02*
X429664000Y-51414000D01*
X429664000Y-51414000D02*
X406476000Y-51414000D01*
X404269000Y-35841000D02*
X405370000Y-34740000D01*
X419171000Y-35841000D02*
X429669000Y-35841000D01*
X429669000Y-35841000D02*
X430770000Y-34740000D01*
%TO.N,/COL 19*%
X411956250Y-66675000D02*
X397668750Y-52387500D01*
X428625000Y-66675000D02*
X411956250Y-66675000D01*
%TO.N,/ROW 3*%
X212618500Y-112206000D02*
X209867500Y-109455000D01*
X430954000Y-112206000D02*
X417406000Y-112206000D01*
X207116500Y-112206000D02*
X193568500Y-112206000D01*
X286067500Y-109455000D02*
X283316500Y-112206000D01*
X425974310Y-57840000D02*
X415670000Y-57840000D01*
X264266500Y-112206000D02*
X250718500Y-112206000D01*
X390479000Y-114581000D02*
X291193500Y-114581000D01*
X433705000Y-109455000D02*
X435408000Y-107752000D01*
X53074750Y-112206000D02*
X50323750Y-109455000D01*
X415530000Y-57700000D02*
X415530000Y-52520000D01*
X174518500Y-112206000D02*
X171767500Y-109455000D01*
X417406000Y-112206000D02*
X414655000Y-109455000D01*
X114617500Y-109455000D02*
X111866500Y-112206000D01*
X245216500Y-112206000D02*
X231668500Y-112206000D01*
X188066500Y-112206000D02*
X174518500Y-112206000D01*
X414655000Y-109455000D02*
X411904000Y-112206000D01*
X190817500Y-109455000D02*
X188066500Y-112206000D01*
X247967500Y-109455000D02*
X245216500Y-112206000D01*
X155468500Y-112206000D02*
X153126250Y-109863750D01*
X291193500Y-114581000D02*
X286067500Y-109455000D01*
X435408000Y-107752000D02*
X435408000Y-67273690D01*
X76517500Y-109455000D02*
X73766500Y-112206000D01*
X283316500Y-112206000D02*
X269768500Y-112206000D01*
X267017500Y-109455000D02*
X264266500Y-112206000D01*
X269768500Y-112206000D02*
X267017500Y-109455000D01*
X133667500Y-109455000D02*
X130916500Y-112206000D01*
X150784000Y-112206000D02*
X136418500Y-112206000D01*
X111866500Y-112206000D02*
X98318500Y-112206000D01*
X231668500Y-112206000D02*
X228917500Y-109455000D01*
X435408000Y-67273690D02*
X425974310Y-57840000D01*
X136418500Y-112206000D02*
X133667500Y-109455000D01*
X117368500Y-112206000D02*
X114617500Y-109455000D01*
X92816500Y-112206000D02*
X79268500Y-112206000D01*
X79268500Y-112206000D02*
X76517500Y-109455000D01*
X228917500Y-109455000D02*
X226166500Y-112206000D01*
X433705000Y-109455000D02*
X430954000Y-112206000D01*
X95567500Y-109455000D02*
X92816500Y-112206000D01*
X153126250Y-109863750D02*
X150784000Y-112206000D01*
X226166500Y-112206000D02*
X212618500Y-112206000D01*
X153126250Y-109863750D02*
X152717500Y-109455000D01*
X398356000Y-112206000D02*
X395605000Y-109455000D01*
X73766500Y-112206000D02*
X53074750Y-112206000D01*
X193568500Y-112206000D02*
X190817500Y-109455000D01*
X415670000Y-57840000D02*
X415530000Y-57700000D01*
X250718500Y-112206000D02*
X247967500Y-109455000D01*
X98318500Y-112206000D02*
X95567500Y-109455000D01*
X171767500Y-109455000D02*
X169016500Y-112206000D01*
X169016500Y-112206000D02*
X155468500Y-112206000D01*
X209867500Y-109455000D02*
X207116500Y-112206000D01*
X395605000Y-109455000D02*
X390479000Y-114581000D01*
X130916500Y-112206000D02*
X117368500Y-112206000D01*
X411904000Y-112206000D02*
X398356000Y-112206000D01*
%TO.N,/ROW 1*%
X330941500Y-74106000D02*
X303106000Y-74106000D01*
X336443500Y-74106000D02*
X333692500Y-71355000D01*
X198331000Y-74106000D02*
X195580000Y-71355000D01*
X333692500Y-71355000D02*
X330941500Y-74106000D01*
X233680000Y-71355000D02*
X230929000Y-74106000D01*
X81280000Y-71355000D02*
X78529000Y-74106000D01*
X269029000Y-74106000D02*
X255481000Y-74106000D01*
X217381000Y-74106000D02*
X214630000Y-71355000D01*
X392854000Y-74106000D02*
X374543500Y-74106000D01*
X103081000Y-74106000D02*
X100330000Y-71355000D01*
X141181000Y-74106000D02*
X138430000Y-71355000D01*
X407910000Y-58640000D02*
X407910000Y-52520000D01*
X371792500Y-71355000D02*
X369041500Y-74106000D01*
X411904000Y-74106000D02*
X398356000Y-74106000D01*
X154729000Y-74106000D02*
X141181000Y-74106000D01*
X434606000Y-67605890D02*
X426590110Y-59590000D01*
X119380000Y-71355000D02*
X116629000Y-74106000D01*
X417406000Y-74106000D02*
X414655000Y-71355000D01*
X116629000Y-74106000D02*
X103081000Y-74106000D01*
X374543500Y-74106000D02*
X371792500Y-71355000D01*
X176530000Y-71355000D02*
X173779000Y-74106000D01*
X195580000Y-71355000D02*
X192829000Y-74106000D01*
X160231000Y-74106000D02*
X157480000Y-71355000D01*
X433705000Y-71355000D02*
X430954000Y-74106000D01*
X100330000Y-71355000D02*
X97579000Y-74106000D01*
X255481000Y-74106000D02*
X252730000Y-71355000D01*
X135679000Y-74106000D02*
X122131000Y-74106000D01*
X408860000Y-59590000D02*
X407910000Y-58640000D01*
X157480000Y-71355000D02*
X154729000Y-74106000D01*
X122131000Y-74106000D02*
X119380000Y-71355000D01*
X214630000Y-71355000D02*
X211879000Y-74106000D01*
X433705000Y-71355000D02*
X434606000Y-70454000D01*
X352742500Y-71355000D02*
X349991500Y-74106000D01*
X236431000Y-74106000D02*
X233680000Y-71355000D01*
X271780000Y-71355000D02*
X269029000Y-74106000D01*
X414655000Y-71355000D02*
X411904000Y-74106000D01*
X355493500Y-74106000D02*
X352742500Y-71355000D01*
X78529000Y-74106000D02*
X64981000Y-74106000D01*
X297604000Y-74106000D02*
X274531000Y-74106000D01*
X300355000Y-71355000D02*
X297604000Y-74106000D01*
X192829000Y-74106000D02*
X179281000Y-74106000D01*
X303106000Y-74106000D02*
X300355000Y-71355000D01*
X426590110Y-59590000D02*
X408860000Y-59590000D01*
X62205000Y-71355000D02*
X59454000Y-74106000D01*
X434606000Y-70454000D02*
X434606000Y-67605890D01*
X395605000Y-71355000D02*
X392854000Y-74106000D01*
X398356000Y-74106000D02*
X395605000Y-71355000D01*
X84031000Y-74106000D02*
X81280000Y-71355000D01*
X59454000Y-74106000D02*
X45931000Y-74106000D01*
X64981000Y-74106000D02*
X62230000Y-71355000D01*
X249979000Y-74106000D02*
X236431000Y-74106000D01*
X430954000Y-74106000D02*
X417406000Y-74106000D01*
X252730000Y-71355000D02*
X249979000Y-74106000D01*
X211879000Y-74106000D02*
X198331000Y-74106000D01*
X179281000Y-74106000D02*
X176530000Y-71355000D01*
X97579000Y-74106000D02*
X84031000Y-74106000D01*
X230929000Y-74106000D02*
X217381000Y-74106000D01*
X138430000Y-71355000D02*
X135679000Y-74106000D01*
X349991500Y-74106000D02*
X336443500Y-74106000D01*
X62230000Y-71355000D02*
X62205000Y-71355000D01*
X45931000Y-74106000D02*
X43180000Y-71355000D01*
X173779000Y-74106000D02*
X160231000Y-74106000D01*
X369041500Y-74106000D02*
X355493500Y-74106000D01*
X274531000Y-74106000D02*
X271780000Y-71355000D01*
%TO.N,/ROW 2*%
X417406000Y-93156000D02*
X430954000Y-93156000D01*
X278554000Y-93156000D02*
X281305000Y-90405000D01*
X293581000Y-102681000D02*
X304747750Y-102681000D01*
X336443500Y-93156000D02*
X349991500Y-93156000D01*
X392854000Y-93156000D02*
X395605000Y-90405000D01*
X281305000Y-90405000D02*
X293581000Y-102681000D01*
X147955000Y-90405000D02*
X150706000Y-93156000D01*
X395605000Y-90405000D02*
X398356000Y-93156000D01*
X243205000Y-90405000D02*
X243205000Y-92838500D01*
X167005000Y-90405000D02*
X169756000Y-93156000D01*
X205105000Y-90405000D02*
X207856000Y-93156000D01*
X398356000Y-93156000D02*
X411904000Y-93156000D01*
X371792500Y-90405000D02*
X369041500Y-93156000D01*
X224155000Y-90405000D02*
X226906000Y-93156000D01*
X188806000Y-93156000D02*
X202354000Y-93156000D01*
X374543500Y-93156000D02*
X392854000Y-93156000D01*
X93556000Y-93156000D02*
X107104000Y-93156000D01*
X412830000Y-59070000D02*
X412990000Y-58910000D01*
X324167500Y-99930000D02*
X333692500Y-90405000D01*
X50693500Y-93156000D02*
X69004000Y-93156000D01*
X164254000Y-93156000D02*
X167005000Y-90405000D01*
X90805000Y-90405000D02*
X93556000Y-93156000D01*
X426756210Y-59189000D02*
X412830000Y-59189000D01*
X169756000Y-93156000D02*
X183304000Y-93156000D01*
X281305000Y-90405000D02*
X281400000Y-90310000D01*
X430954000Y-93156000D02*
X433705000Y-90405000D01*
X186055000Y-90405000D02*
X188806000Y-93156000D01*
X265006000Y-93156000D02*
X278554000Y-93156000D01*
X369041500Y-93156000D02*
X355493500Y-93156000D01*
X371792500Y-90405000D02*
X374543500Y-93156000D01*
X145204000Y-93156000D02*
X147955000Y-90405000D01*
X112606000Y-93156000D02*
X126154000Y-93156000D01*
X107104000Y-93156000D02*
X109855000Y-90405000D01*
X412990000Y-58910000D02*
X412990000Y-52520000D01*
X47942500Y-90405000D02*
X50693500Y-93156000D01*
X71755000Y-90405000D02*
X74506000Y-93156000D01*
X242887500Y-93156000D02*
X259504000Y-93156000D01*
X88054000Y-93156000D02*
X90805000Y-90405000D01*
X307498750Y-99930000D02*
X324167500Y-99930000D01*
X221404000Y-93156000D02*
X224155000Y-90405000D01*
X262255000Y-90405000D02*
X265006000Y-93156000D01*
X109855000Y-90405000D02*
X112606000Y-93156000D01*
X411904000Y-93156000D02*
X414655000Y-90405000D01*
X412830000Y-59189000D02*
X412830000Y-59070000D01*
X126154000Y-93156000D02*
X128905000Y-90405000D01*
X226906000Y-93156000D02*
X242887500Y-93156000D01*
X281400000Y-90310000D02*
X281940000Y-90310000D01*
X69004000Y-93156000D02*
X71755000Y-90405000D01*
X128905000Y-90405000D02*
X131656000Y-93156000D01*
X150706000Y-93156000D02*
X164254000Y-93156000D01*
X207856000Y-93156000D02*
X221404000Y-93156000D01*
X131656000Y-93156000D02*
X145204000Y-93156000D01*
X433705000Y-90405000D02*
X435007000Y-89103000D01*
X435007000Y-67439790D02*
X426756210Y-59189000D01*
X349991500Y-93156000D02*
X352742500Y-90405000D01*
X202354000Y-93156000D02*
X205105000Y-90405000D01*
X435007000Y-89103000D02*
X435007000Y-67439790D01*
X414655000Y-90405000D02*
X417406000Y-93156000D01*
X243205000Y-92838500D02*
X242887500Y-93156000D01*
X259504000Y-93156000D02*
X262255000Y-90405000D01*
X333692500Y-90405000D02*
X336443500Y-93156000D01*
X183304000Y-93156000D02*
X186055000Y-90405000D01*
X304747750Y-102681000D02*
X307498750Y-99930000D01*
X74506000Y-93156000D02*
X88054000Y-93156000D01*
X355493500Y-93156000D02*
X352742500Y-90405000D01*
%TO.N,/ROW 5*%
X374543500Y-150306000D02*
X371792500Y-147555000D01*
X433705000Y-147555000D02*
X430954000Y-150306000D01*
X307498750Y-147555000D02*
X304747750Y-150306000D01*
X236061250Y-147555000D02*
X229772250Y-153844000D01*
X164623750Y-147555000D02*
X161872750Y-150306000D01*
X336443500Y-150306000D02*
X333692500Y-147555000D01*
X369041500Y-150306000D02*
X355493500Y-150306000D01*
X72124750Y-150306000D02*
X69373750Y-147555000D01*
X69373750Y-147555000D02*
X66622750Y-150306000D01*
X238812250Y-150306000D02*
X236061250Y-147555000D01*
X405130000Y-147555000D02*
X402379000Y-150306000D01*
X164623750Y-147555000D02*
X164708750Y-147470000D01*
X45556250Y-147560000D02*
X45420000Y-147560000D01*
X45561250Y-147555000D02*
X45556250Y-147560000D01*
X433705000Y-147555000D02*
X436210000Y-145050000D01*
X259873750Y-147555000D02*
X257122750Y-150306000D01*
X430954000Y-150306000D02*
X407881000Y-150306000D01*
X310249750Y-150306000D02*
X307498750Y-147555000D01*
X436210000Y-145050000D02*
X436210000Y-65040000D01*
X286437250Y-150306000D02*
X283686250Y-147555000D01*
X161872750Y-150306000D02*
X95937250Y-150306000D01*
X371792500Y-147555000D02*
X369041500Y-150306000D01*
X355493500Y-150306000D02*
X352742500Y-147555000D01*
X402379000Y-150306000D02*
X374543500Y-150306000D01*
X93186250Y-147555000D02*
X90435250Y-150306000D01*
X304747750Y-150306000D02*
X286437250Y-150306000D01*
X48312250Y-150306000D02*
X45561250Y-147555000D01*
X330941500Y-150306000D02*
X310249750Y-150306000D01*
X280935250Y-150306000D02*
X262624750Y-150306000D01*
X352742500Y-147555000D02*
X349991500Y-150306000D01*
X333692500Y-147555000D02*
X330941500Y-150306000D01*
X349991500Y-150306000D02*
X336443500Y-150306000D01*
X95937250Y-150306000D02*
X93186250Y-147555000D01*
X283686250Y-147555000D02*
X280935250Y-150306000D01*
X66622750Y-150306000D02*
X48312250Y-150306000D01*
X90435250Y-150306000D02*
X72124750Y-150306000D01*
X407881000Y-150306000D02*
X405130000Y-147555000D01*
X257122750Y-150306000D02*
X238812250Y-150306000D01*
X436210000Y-65040000D02*
X431090000Y-59920000D01*
X229772250Y-153844000D02*
X170912750Y-153844000D01*
X262624750Y-150306000D02*
X259873750Y-147555000D01*
X170912750Y-153844000D02*
X164623750Y-147555000D01*
%TO.N,/ROW 0*%
X221404000Y-45531000D02*
X207856000Y-45531000D01*
X138430000Y-42780000D02*
X135679000Y-45531000D01*
X167005000Y-42780000D02*
X167005000Y-43467250D01*
X183304000Y-45531000D02*
X169068750Y-45531000D01*
X84031000Y-45531000D02*
X81280000Y-42780000D01*
X205105000Y-42780000D02*
X202354000Y-45531000D01*
X45931000Y-45531000D02*
X43180000Y-42780000D01*
X309880000Y-42780000D02*
X307129000Y-45531000D01*
X349991500Y-45531000D02*
X336443500Y-45531000D01*
X226906000Y-45531000D02*
X224155000Y-42780000D01*
X78529000Y-45531000D02*
X45931000Y-45531000D01*
X97579000Y-45531000D02*
X84031000Y-45531000D01*
X169068750Y-45531000D02*
X141181000Y-45531000D01*
X122131000Y-45531000D02*
X119380000Y-42780000D01*
X352742500Y-42780000D02*
X349991500Y-45531000D01*
X274531000Y-45531000D02*
X288079000Y-45531000D01*
X288079000Y-45531000D02*
X290830000Y-42780000D01*
X207856000Y-45531000D02*
X205105000Y-42780000D01*
X293581000Y-45531000D02*
X290830000Y-42780000D01*
X401724000Y-51414000D02*
X380426500Y-51414000D01*
X307129000Y-45531000D02*
X293581000Y-45531000D01*
X271780000Y-42780000D02*
X274531000Y-45531000D01*
X249979000Y-45531000D02*
X226906000Y-45531000D01*
X380426500Y-51414000D02*
X371792500Y-42780000D01*
X103081000Y-45531000D02*
X100330000Y-42780000D01*
X188806000Y-45531000D02*
X186055000Y-42780000D01*
X141181000Y-45531000D02*
X138430000Y-42780000D01*
X333692500Y-42780000D02*
X330941500Y-45531000D01*
X224155000Y-42780000D02*
X221404000Y-45531000D01*
X119380000Y-42780000D02*
X116629000Y-45531000D01*
X167005000Y-43467250D02*
X169068750Y-45531000D01*
X252730000Y-42780000D02*
X249979000Y-45531000D01*
X255481000Y-45531000D02*
X252730000Y-42780000D01*
X355493500Y-45531000D02*
X352742500Y-42780000D01*
X402830000Y-52520000D02*
X401724000Y-51414000D01*
X116629000Y-45531000D02*
X103081000Y-45531000D01*
X371792500Y-42780000D02*
X369041500Y-45531000D01*
X369041500Y-45531000D02*
X355493500Y-45531000D01*
X330941500Y-45531000D02*
X312631000Y-45531000D01*
X135679000Y-45531000D02*
X122131000Y-45531000D01*
X186055000Y-42780000D02*
X183304000Y-45531000D01*
X100330000Y-42780000D02*
X97579000Y-45531000D01*
X81280000Y-42780000D02*
X78529000Y-45531000D01*
X271780000Y-42780000D02*
X269029000Y-45531000D01*
X336443500Y-45531000D02*
X333692500Y-42780000D01*
X312631000Y-45531000D02*
X309880000Y-42780000D01*
X202354000Y-45531000D02*
X188806000Y-45531000D01*
X269029000Y-45531000D02*
X255481000Y-45531000D01*
%TO.N,Net-(D1-A)*%
X31750000Y-40640000D02*
X42020000Y-40640000D01*
X31750000Y-40640000D02*
X42020000Y-40640000D01*
X31750000Y-40640000D02*
X42020000Y-40640000D01*
X42020000Y-40640000D02*
X43180000Y-39480000D01*
X42020000Y-40640000D02*
X43180000Y-39480000D01*
X31750000Y-40640000D02*
X42020000Y-40640000D01*
X42020000Y-40640000D02*
X43180000Y-39480000D01*
X42020000Y-40640000D02*
X43180000Y-39480000D01*
%TO.N,Net-(D2-A)*%
X69850000Y-40640000D02*
X80120000Y-40640000D01*
X80120000Y-40640000D02*
X81280000Y-39480000D01*
X69850000Y-40640000D02*
X80120000Y-40640000D01*
X69850000Y-40640000D02*
X80120000Y-40640000D01*
X80120000Y-40640000D02*
X81280000Y-39480000D01*
X80120000Y-40640000D02*
X81280000Y-39480000D01*
X69850000Y-40640000D02*
X80120000Y-40640000D01*
X80120000Y-40640000D02*
X81280000Y-39480000D01*
%TO.N,Net-(D3-A)*%
X99170000Y-40640000D02*
X100330000Y-39480000D01*
X99170000Y-40640000D02*
X100330000Y-39480000D01*
X88900000Y-40640000D02*
X99170000Y-40640000D01*
X88900000Y-40640000D02*
X99170000Y-40640000D01*
X88900000Y-40640000D02*
X99170000Y-40640000D01*
X99170000Y-40640000D02*
X100330000Y-39480000D01*
X88900000Y-40640000D02*
X99170000Y-40640000D01*
X99170000Y-40640000D02*
X100330000Y-39480000D01*
%TO.N,Net-(D4-A)*%
X118220000Y-40640000D02*
X119380000Y-39480000D01*
X107950000Y-40640000D02*
X118220000Y-40640000D01*
X118220000Y-40640000D02*
X119380000Y-39480000D01*
X118220000Y-40640000D02*
X119380000Y-39480000D01*
X107950000Y-40640000D02*
X118220000Y-40640000D01*
X107950000Y-40640000D02*
X118220000Y-40640000D01*
X118220000Y-40640000D02*
X119380000Y-39480000D01*
X107950000Y-40640000D02*
X118220000Y-40640000D01*
%TO.N,Net-(D5-A)*%
X127000000Y-40640000D02*
X137270000Y-40640000D01*
X127000000Y-40640000D02*
X137270000Y-40640000D01*
X127000000Y-40640000D02*
X137270000Y-40640000D01*
X137270000Y-40640000D02*
X138430000Y-39480000D01*
X127000000Y-40640000D02*
X137270000Y-40640000D01*
X137270000Y-40640000D02*
X138430000Y-39480000D01*
X137270000Y-40640000D02*
X138430000Y-39480000D01*
X137270000Y-40640000D02*
X138430000Y-39480000D01*
%TO.N,Net-(D6-A)*%
X155575000Y-40640000D02*
X165845000Y-40640000D01*
X155575000Y-40640000D02*
X165845000Y-40640000D01*
X165845000Y-40640000D02*
X167005000Y-39480000D01*
X165845000Y-40640000D02*
X167005000Y-39480000D01*
X165845000Y-40640000D02*
X167005000Y-39480000D01*
X155575000Y-40640000D02*
X165845000Y-40640000D01*
%TO.N,Net-(D7-A)*%
X174625000Y-40640000D02*
X184895000Y-40640000D01*
X174625000Y-40640000D02*
X184895000Y-40640000D01*
X174625000Y-40640000D02*
X184895000Y-40640000D01*
X184895000Y-40640000D02*
X186055000Y-39480000D01*
X184895000Y-40640000D02*
X186055000Y-39480000D01*
X184895000Y-40640000D02*
X186055000Y-39480000D01*
%TO.N,Net-(D8-A)*%
X203945000Y-40640000D02*
X205105000Y-39480000D01*
X193675000Y-40640000D02*
X203945000Y-40640000D01*
X193675000Y-40640000D02*
X203945000Y-40640000D01*
X203945000Y-40640000D02*
X205105000Y-39480000D01*
X203945000Y-40640000D02*
X205105000Y-39480000D01*
X203945000Y-40640000D02*
X205105000Y-39480000D01*
X193675000Y-40640000D02*
X203945000Y-40640000D01*
X193675000Y-40640000D02*
X203945000Y-40640000D01*
%TO.N,Net-(D9-A)*%
X212725000Y-40640000D02*
X222995000Y-40640000D01*
X222995000Y-40640000D02*
X224155000Y-39480000D01*
X212725000Y-40640000D02*
X222995000Y-40640000D01*
X222995000Y-40640000D02*
X224155000Y-39480000D01*
X222995000Y-40640000D02*
X224155000Y-39480000D01*
X212725000Y-40640000D02*
X222995000Y-40640000D01*
X222995000Y-40640000D02*
X224155000Y-39480000D01*
X212725000Y-40640000D02*
X222995000Y-40640000D01*
%TO.N,Net-(D10-A)*%
X251570000Y-40640000D02*
X252730000Y-39480000D01*
X251570000Y-40640000D02*
X252730000Y-39480000D01*
X251570000Y-40640000D02*
X252730000Y-39480000D01*
X241300000Y-40640000D02*
X251570000Y-40640000D01*
X241300000Y-40640000D02*
X251570000Y-40640000D01*
X241300000Y-40640000D02*
X251570000Y-40640000D01*
X241300000Y-40640000D02*
X251570000Y-40640000D01*
X251570000Y-40640000D02*
X252730000Y-39480000D01*
%TO.N,Net-(D11-A)*%
X260350000Y-40640000D02*
X270620000Y-40640000D01*
X270620000Y-40640000D02*
X271780000Y-39480000D01*
X270620000Y-40640000D02*
X271780000Y-39480000D01*
X260350000Y-40640000D02*
X270620000Y-40640000D01*
X270620000Y-40640000D02*
X271780000Y-39480000D01*
X260350000Y-40640000D02*
X270620000Y-40640000D01*
X260350000Y-40640000D02*
X270620000Y-40640000D01*
X270620000Y-40640000D02*
X271780000Y-39480000D01*
%TO.N,Net-(D12-A)*%
X289670000Y-40640000D02*
X290830000Y-39480000D01*
X289670000Y-40640000D02*
X290830000Y-39480000D01*
X279400000Y-40640000D02*
X289670000Y-40640000D01*
X279400000Y-40640000D02*
X289670000Y-40640000D01*
X289670000Y-40640000D02*
X290830000Y-39480000D01*
X279400000Y-40640000D02*
X289670000Y-40640000D01*
X289670000Y-40640000D02*
X290830000Y-39480000D01*
X279400000Y-40640000D02*
X289670000Y-40640000D01*
%TO.N,Net-(D13-A)*%
X298450000Y-40640000D02*
X308720000Y-40640000D01*
X308720000Y-40640000D02*
X309880000Y-39480000D01*
X308720000Y-40640000D02*
X309880000Y-39480000D01*
X308720000Y-40640000D02*
X309880000Y-39480000D01*
X298450000Y-40640000D02*
X308720000Y-40640000D01*
X298450000Y-40640000D02*
X308720000Y-40640000D01*
X298450000Y-40640000D02*
X308720000Y-40640000D01*
X308720000Y-40640000D02*
X309880000Y-39480000D01*
%TO.N,Net-(D14-A)*%
X322262500Y-40640000D02*
X332532500Y-40640000D01*
X332532500Y-40640000D02*
X333692500Y-39480000D01*
X322262500Y-40640000D02*
X332532500Y-40640000D01*
X332532500Y-40640000D02*
X333692500Y-39480000D01*
X332532500Y-40640000D02*
X333692500Y-39480000D01*
X332532500Y-40640000D02*
X333692500Y-39480000D01*
X322262500Y-40640000D02*
X332532500Y-40640000D01*
X322262500Y-40640000D02*
X332532500Y-40640000D01*
%TO.N,Net-(D15-A)*%
X351582500Y-40640000D02*
X352742500Y-39480000D01*
X351582500Y-40640000D02*
X352742500Y-39480000D01*
X341312500Y-40640000D02*
X351582500Y-40640000D01*
X351582500Y-40640000D02*
X352742500Y-39480000D01*
X341312500Y-40640000D02*
X351582500Y-40640000D01*
X351582500Y-40640000D02*
X352742500Y-39480000D01*
X341312500Y-40640000D02*
X351582500Y-40640000D01*
X341312500Y-40640000D02*
X351582500Y-40640000D01*
%TO.N,Net-(D16-A)*%
X360362500Y-40640000D02*
X370632500Y-40640000D01*
X360362500Y-40640000D02*
X370632500Y-40640000D01*
X370632500Y-40640000D02*
X371792500Y-39480000D01*
X370632500Y-40640000D02*
X371792500Y-39480000D01*
X370632500Y-40640000D02*
X371792500Y-39480000D01*
X360362500Y-40640000D02*
X370632500Y-40640000D01*
X370632500Y-40640000D02*
X371792500Y-39480000D01*
X360362500Y-40640000D02*
X370632500Y-40640000D01*
%TO.N,Net-(D17-A)*%
X31750000Y-69215000D02*
X42020000Y-69215000D01*
X31750000Y-69215000D02*
X42020000Y-69215000D01*
X42020000Y-69215000D02*
X43180000Y-68055000D01*
X42020000Y-69215000D02*
X43180000Y-68055000D01*
X31750000Y-69215000D02*
X42020000Y-69215000D01*
X42020000Y-69215000D02*
X43180000Y-68055000D01*
X42020000Y-69215000D02*
X43180000Y-68055000D01*
X31750000Y-69215000D02*
X42020000Y-69215000D01*
%TO.N,Net-(D18-A)*%
X61070000Y-69215000D02*
X62230000Y-68055000D01*
X50800000Y-69215000D02*
X61070000Y-69215000D01*
X50800000Y-69215000D02*
X61070000Y-69215000D01*
X61070000Y-69215000D02*
X62230000Y-68055000D01*
X50800000Y-69215000D02*
X61070000Y-69215000D01*
X61070000Y-69215000D02*
X62230000Y-68055000D01*
X61070000Y-69215000D02*
X62230000Y-68055000D01*
X50800000Y-69215000D02*
X61070000Y-69215000D01*
%TO.N,Net-(D19-A)*%
X80120000Y-69215000D02*
X81280000Y-68055000D01*
X69850000Y-69215000D02*
X80120000Y-69215000D01*
X80120000Y-69215000D02*
X81280000Y-68055000D01*
X80120000Y-69215000D02*
X81280000Y-68055000D01*
X69850000Y-69215000D02*
X80120000Y-69215000D01*
X80120000Y-69215000D02*
X81280000Y-68055000D01*
X69850000Y-69215000D02*
X80120000Y-69215000D01*
X69850000Y-69215000D02*
X80120000Y-69215000D01*
%TO.N,Net-(D20-A)*%
X99170000Y-69215000D02*
X100330000Y-68055000D01*
X99170000Y-69215000D02*
X100330000Y-68055000D01*
X99170000Y-69215000D02*
X100330000Y-68055000D01*
X99170000Y-69215000D02*
X100330000Y-68055000D01*
X88900000Y-69215000D02*
X99170000Y-69215000D01*
X88900000Y-69215000D02*
X99170000Y-69215000D01*
X88900000Y-69215000D02*
X99170000Y-69215000D01*
X88900000Y-69215000D02*
X99170000Y-69215000D01*
%TO.N,Net-(D21-A)*%
X107950000Y-69215000D02*
X118220000Y-69215000D01*
X118220000Y-69215000D02*
X119380000Y-68055000D01*
X107950000Y-69215000D02*
X118220000Y-69215000D01*
X107950000Y-69215000D02*
X118220000Y-69215000D01*
X118220000Y-69215000D02*
X119380000Y-68055000D01*
X118220000Y-69215000D02*
X119380000Y-68055000D01*
X107950000Y-69215000D02*
X118220000Y-69215000D01*
X118220000Y-69215000D02*
X119380000Y-68055000D01*
%TO.N,Net-(D22-A)*%
X137270000Y-69215000D02*
X138430000Y-68055000D01*
X127000000Y-69215000D02*
X137270000Y-69215000D01*
X127000000Y-69215000D02*
X137270000Y-69215000D01*
X137270000Y-69215000D02*
X138430000Y-68055000D01*
X137270000Y-69215000D02*
X138430000Y-68055000D01*
X127000000Y-69215000D02*
X137270000Y-69215000D01*
X137270000Y-69215000D02*
X138430000Y-68055000D01*
X127000000Y-69215000D02*
X137270000Y-69215000D01*
%TO.N,Net-(D23-A)*%
X156320000Y-69215000D02*
X157480000Y-68055000D01*
X146050000Y-69215000D02*
X156320000Y-69215000D01*
X146050000Y-69215000D02*
X156320000Y-69215000D01*
X156320000Y-69215000D02*
X157480000Y-68055000D01*
X156320000Y-69215000D02*
X157480000Y-68055000D01*
X146050000Y-69215000D02*
X156320000Y-69215000D01*
X146050000Y-69215000D02*
X156320000Y-69215000D01*
X156320000Y-69215000D02*
X157480000Y-68055000D01*
%TO.N,Net-(D24-A)*%
X165100000Y-69215000D02*
X175370000Y-69215000D01*
X165100000Y-69215000D02*
X175370000Y-69215000D01*
X175370000Y-69215000D02*
X176530000Y-68055000D01*
X165100000Y-69215000D02*
X175370000Y-69215000D01*
X175370000Y-69215000D02*
X176530000Y-68055000D01*
X165100000Y-69215000D02*
X175370000Y-69215000D01*
X175370000Y-69215000D02*
X176530000Y-68055000D01*
X175370000Y-69215000D02*
X176530000Y-68055000D01*
%TO.N,Net-(D25-A)*%
X194420000Y-69215000D02*
X195580000Y-68055000D01*
X184150000Y-69215000D02*
X194420000Y-69215000D01*
X194420000Y-69215000D02*
X195580000Y-68055000D01*
X194420000Y-69215000D02*
X195580000Y-68055000D01*
X184150000Y-69215000D02*
X194420000Y-69215000D01*
X184150000Y-69215000D02*
X194420000Y-69215000D01*
X194420000Y-69215000D02*
X195580000Y-68055000D01*
X184150000Y-69215000D02*
X194420000Y-69215000D01*
%TO.N,Net-(D26-A)*%
X213470000Y-69215000D02*
X214630000Y-68055000D01*
X203200000Y-69215000D02*
X213470000Y-69215000D01*
X203200000Y-69215000D02*
X213470000Y-69215000D01*
X213470000Y-69215000D02*
X214630000Y-68055000D01*
X213470000Y-69215000D02*
X214630000Y-68055000D01*
X213470000Y-69215000D02*
X214630000Y-68055000D01*
X203200000Y-69215000D02*
X213470000Y-69215000D01*
X203200000Y-69215000D02*
X213470000Y-69215000D01*
%TO.N,Net-(D27-A)*%
X232520000Y-69215000D02*
X233680000Y-68055000D01*
X232520000Y-69215000D02*
X233680000Y-68055000D01*
X222250000Y-69215000D02*
X232520000Y-69215000D01*
X222250000Y-69215000D02*
X232520000Y-69215000D01*
X232520000Y-69215000D02*
X233680000Y-68055000D01*
X222250000Y-69215000D02*
X232520000Y-69215000D01*
X232520000Y-69215000D02*
X233680000Y-68055000D01*
X222250000Y-69215000D02*
X232520000Y-69215000D01*
%TO.N,Net-(D28-A)*%
X251570000Y-69215000D02*
X252730000Y-68055000D01*
X241300000Y-69215000D02*
X251570000Y-69215000D01*
X241300000Y-69215000D02*
X251570000Y-69215000D01*
X251570000Y-69215000D02*
X252730000Y-68055000D01*
X241300000Y-69215000D02*
X251570000Y-69215000D01*
X251570000Y-69215000D02*
X252730000Y-68055000D01*
X241300000Y-69215000D02*
X251570000Y-69215000D01*
X251570000Y-69215000D02*
X252730000Y-68055000D01*
%TO.N,Net-(D29-A)*%
X270620000Y-69215000D02*
X271780000Y-68055000D01*
X270620000Y-69215000D02*
X271780000Y-68055000D01*
X270620000Y-69215000D02*
X271780000Y-68055000D01*
X260350000Y-69215000D02*
X270620000Y-69215000D01*
X260350000Y-69215000D02*
X270620000Y-69215000D01*
X260350000Y-69215000D02*
X270620000Y-69215000D01*
X260350000Y-69215000D02*
X270620000Y-69215000D01*
X270620000Y-69215000D02*
X271780000Y-68055000D01*
%TO.N,Net-(D30-A)*%
X299195000Y-69215000D02*
X300355000Y-68055000D01*
X299195000Y-69215000D02*
X300355000Y-68055000D01*
X299195000Y-69215000D02*
X300355000Y-68055000D01*
X288925000Y-69215000D02*
X299195000Y-69215000D01*
X288925000Y-69215000D02*
X299195000Y-69215000D01*
X299195000Y-69215000D02*
X300355000Y-68055000D01*
X288925000Y-69215000D02*
X299195000Y-69215000D01*
X288925000Y-69215000D02*
X299195000Y-69215000D01*
%TO.N,Net-(D31-A)*%
X322262500Y-69215000D02*
X332532500Y-69215000D01*
X332532500Y-69215000D02*
X333692500Y-68055000D01*
X322262500Y-69215000D02*
X332532500Y-69215000D01*
X332532500Y-69215000D02*
X333692500Y-68055000D01*
X332532500Y-69215000D02*
X333692500Y-68055000D01*
X332532500Y-69215000D02*
X333692500Y-68055000D01*
X322262500Y-69215000D02*
X332532500Y-69215000D01*
X322262500Y-69215000D02*
X332532500Y-69215000D01*
%TO.N,Net-(D32-A)*%
X351582500Y-69215000D02*
X352742500Y-68055000D01*
X341312500Y-69215000D02*
X351582500Y-69215000D01*
X351582500Y-69215000D02*
X352742500Y-68055000D01*
X351582500Y-69215000D02*
X352742500Y-68055000D01*
X341312500Y-69215000D02*
X351582500Y-69215000D01*
X341312500Y-69215000D02*
X351582500Y-69215000D01*
X351582500Y-69215000D02*
X352742500Y-68055000D01*
X341312500Y-69215000D02*
X351582500Y-69215000D01*
%TO.N,Net-(D33-A)*%
X370632500Y-69215000D02*
X371792500Y-68055000D01*
X360362500Y-69215000D02*
X370632500Y-69215000D01*
X360362500Y-69215000D02*
X370632500Y-69215000D01*
X370632500Y-69215000D02*
X371792500Y-68055000D01*
X360362500Y-69215000D02*
X370632500Y-69215000D01*
X360362500Y-69215000D02*
X370632500Y-69215000D01*
X370632500Y-69215000D02*
X371792500Y-68055000D01*
X370632500Y-69215000D02*
X371792500Y-68055000D01*
%TO.N,Net-(D34-A)*%
X384175000Y-69215000D02*
X394445000Y-69215000D01*
X384175000Y-69215000D02*
X394445000Y-69215000D01*
X394445000Y-69215000D02*
X395605000Y-68055000D01*
X384175000Y-69215000D02*
X394445000Y-69215000D01*
X394445000Y-69215000D02*
X395605000Y-68055000D01*
X394445000Y-69215000D02*
X395605000Y-68055000D01*
X384175000Y-69215000D02*
X394445000Y-69215000D01*
X394445000Y-69215000D02*
X395605000Y-68055000D01*
%TO.N,Net-(D35-A)*%
X413495000Y-69215000D02*
X414655000Y-68055000D01*
X413495000Y-69215000D02*
X414655000Y-68055000D01*
X403225000Y-69215000D02*
X413495000Y-69215000D01*
X413495000Y-69215000D02*
X414655000Y-68055000D01*
X413495000Y-69215000D02*
X414655000Y-68055000D01*
X403225000Y-69215000D02*
X413495000Y-69215000D01*
X403225000Y-69215000D02*
X413495000Y-69215000D01*
X403225000Y-69215000D02*
X413495000Y-69215000D01*
%TO.N,Net-(D36-A)*%
X422275000Y-69215000D02*
X432545000Y-69215000D01*
X422275000Y-69215000D02*
X432545000Y-69215000D01*
X432545000Y-69215000D02*
X433705000Y-68055000D01*
X432545000Y-69215000D02*
X433705000Y-68055000D01*
X432545000Y-69215000D02*
X433705000Y-68055000D01*
X422275000Y-69215000D02*
X432545000Y-69215000D01*
X432545000Y-69215000D02*
X433705000Y-68055000D01*
X422275000Y-69215000D02*
X432545000Y-69215000D01*
%TO.N,Net-(D37-A)*%
X46782500Y-88265000D02*
X47942500Y-87105000D01*
X36512500Y-88265000D02*
X46782500Y-88265000D01*
X46782500Y-88265000D02*
X47942500Y-87105000D01*
X46782500Y-88265000D02*
X47942500Y-87105000D01*
X36512500Y-88265000D02*
X46782500Y-88265000D01*
X36512500Y-88265000D02*
X46782500Y-88265000D01*
X36512500Y-88265000D02*
X46782500Y-88265000D01*
X46782500Y-88265000D02*
X47942500Y-87105000D01*
%TO.N,Net-(D38-A)*%
X70595000Y-88265000D02*
X71755000Y-87105000D01*
X60325000Y-88265000D02*
X70595000Y-88265000D01*
X60325000Y-88265000D02*
X70595000Y-88265000D01*
X70595000Y-88265000D02*
X71755000Y-87105000D01*
X70595000Y-88265000D02*
X71755000Y-87105000D01*
X60325000Y-88265000D02*
X70595000Y-88265000D01*
X70595000Y-88265000D02*
X71755000Y-87105000D01*
X60325000Y-88265000D02*
X70595000Y-88265000D01*
%TO.N,Net-(D39-A)*%
X79375000Y-88265000D02*
X89645000Y-88265000D01*
X89645000Y-88265000D02*
X90805000Y-87105000D01*
X79375000Y-88265000D02*
X89645000Y-88265000D01*
X89645000Y-88265000D02*
X90805000Y-87105000D01*
X79375000Y-88265000D02*
X89645000Y-88265000D01*
X89645000Y-88265000D02*
X90805000Y-87105000D01*
X89645000Y-88265000D02*
X90805000Y-87105000D01*
X79375000Y-88265000D02*
X89645000Y-88265000D01*
%TO.N,Net-(D40-A)*%
X98425000Y-88265000D02*
X108695000Y-88265000D01*
X108695000Y-88265000D02*
X109855000Y-87105000D01*
X98425000Y-88265000D02*
X108695000Y-88265000D01*
X108695000Y-88265000D02*
X109855000Y-87105000D01*
X98425000Y-88265000D02*
X108695000Y-88265000D01*
X108695000Y-88265000D02*
X109855000Y-87105000D01*
X108695000Y-88265000D02*
X109855000Y-87105000D01*
X98425000Y-88265000D02*
X108695000Y-88265000D01*
%TO.N,Net-(D41-A)*%
X117475000Y-88265000D02*
X127745000Y-88265000D01*
X117475000Y-88265000D02*
X127745000Y-88265000D01*
X127745000Y-88265000D02*
X128905000Y-87105000D01*
X117475000Y-88265000D02*
X127745000Y-88265000D01*
X127745000Y-88265000D02*
X128905000Y-87105000D01*
X117475000Y-88265000D02*
X127745000Y-88265000D01*
X127745000Y-88265000D02*
X128905000Y-87105000D01*
X127745000Y-88265000D02*
X128905000Y-87105000D01*
%TO.N,Net-(D42-A)*%
X136525000Y-88265000D02*
X146795000Y-88265000D01*
X146795000Y-88265000D02*
X147955000Y-87105000D01*
X146795000Y-88265000D02*
X147955000Y-87105000D01*
X136525000Y-88265000D02*
X146795000Y-88265000D01*
X136525000Y-88265000D02*
X146795000Y-88265000D01*
X136525000Y-88265000D02*
X146795000Y-88265000D01*
X146795000Y-88265000D02*
X147955000Y-87105000D01*
X146795000Y-88265000D02*
X147955000Y-87105000D01*
%TO.N,Net-(D43-A)*%
X155575000Y-88265000D02*
X165845000Y-88265000D01*
X155575000Y-88265000D02*
X165845000Y-88265000D01*
X165845000Y-88265000D02*
X167005000Y-87105000D01*
X165845000Y-88265000D02*
X167005000Y-87105000D01*
X155575000Y-88265000D02*
X165845000Y-88265000D01*
X165845000Y-88265000D02*
X167005000Y-87105000D01*
X155575000Y-88265000D02*
X165845000Y-88265000D01*
X165845000Y-88265000D02*
X167005000Y-87105000D01*
%TO.N,Net-(D44-A)*%
X184895000Y-88265000D02*
X186055000Y-87105000D01*
X184895000Y-88265000D02*
X186055000Y-87105000D01*
X174625000Y-88265000D02*
X184895000Y-88265000D01*
X174625000Y-88265000D02*
X184895000Y-88265000D01*
X184895000Y-88265000D02*
X186055000Y-87105000D01*
X184895000Y-88265000D02*
X186055000Y-87105000D01*
X174625000Y-88265000D02*
X184895000Y-88265000D01*
X174625000Y-88265000D02*
X184895000Y-88265000D01*
%TO.N,Net-(D45-A)*%
X203945000Y-88265000D02*
X205105000Y-87105000D01*
X203945000Y-88265000D02*
X205105000Y-87105000D01*
X193675000Y-88265000D02*
X203945000Y-88265000D01*
X193675000Y-88265000D02*
X203945000Y-88265000D01*
X203945000Y-88265000D02*
X205105000Y-87105000D01*
X193675000Y-88265000D02*
X203945000Y-88265000D01*
X193675000Y-88265000D02*
X203945000Y-88265000D01*
X203945000Y-88265000D02*
X205105000Y-87105000D01*
%TO.N,Net-(D46-A)*%
X212725000Y-88265000D02*
X222995000Y-88265000D01*
X212725000Y-88265000D02*
X222995000Y-88265000D01*
X222995000Y-88265000D02*
X224155000Y-87105000D01*
X222995000Y-88265000D02*
X224155000Y-87105000D01*
X212725000Y-88265000D02*
X222995000Y-88265000D01*
X212725000Y-88265000D02*
X222995000Y-88265000D01*
X222995000Y-88265000D02*
X224155000Y-87105000D01*
X222995000Y-88265000D02*
X224155000Y-87105000D01*
%TO.N,Net-(D47-A)*%
X231775000Y-88265000D02*
X242045000Y-88265000D01*
X231775000Y-88265000D02*
X242045000Y-88265000D01*
X231775000Y-88265000D02*
X242045000Y-88265000D01*
X242045000Y-88265000D02*
X243205000Y-87105000D01*
X242045000Y-88265000D02*
X243205000Y-87105000D01*
X231775000Y-88265000D02*
X242045000Y-88265000D01*
X242045000Y-88265000D02*
X243205000Y-87105000D01*
X242045000Y-88265000D02*
X243205000Y-87105000D01*
%TO.N,Net-(D48-A)*%
X250825000Y-88265000D02*
X261095000Y-88265000D01*
X261095000Y-88265000D02*
X262255000Y-87105000D01*
X250825000Y-88265000D02*
X261095000Y-88265000D01*
X261095000Y-88265000D02*
X262255000Y-87105000D01*
X261095000Y-88265000D02*
X262255000Y-87105000D01*
X250825000Y-88265000D02*
X261095000Y-88265000D01*
X261095000Y-88265000D02*
X262255000Y-87105000D01*
X250825000Y-88265000D02*
X261095000Y-88265000D01*
%TO.N,Net-(D49-A)*%
X280145000Y-88265000D02*
X281305000Y-87105000D01*
X269875000Y-88265000D02*
X280145000Y-88265000D01*
X269875000Y-88265000D02*
X280145000Y-88265000D01*
X269875000Y-88265000D02*
X280145000Y-88265000D01*
X280145000Y-88265000D02*
X281305000Y-87105000D01*
X280145000Y-88265000D02*
X281305000Y-87105000D01*
X280145000Y-88265000D02*
X281305000Y-87105000D01*
X269875000Y-88265000D02*
X280145000Y-88265000D01*
%TO.N,Net-(D50-A)*%
X296068750Y-97790000D02*
X306338750Y-97790000D01*
X306338750Y-97790000D02*
X307498750Y-96630000D01*
X296068750Y-97790000D02*
X306338750Y-97790000D01*
X306338750Y-97790000D02*
X307498750Y-96630000D01*
X306338750Y-97790000D02*
X307498750Y-96630000D01*
X296068750Y-97790000D02*
X306338750Y-97790000D01*
X306338750Y-97790000D02*
X307498750Y-96630000D01*
X296068750Y-97790000D02*
X306338750Y-97790000D01*
%TO.N,Net-(D51-A)*%
X322262500Y-88265000D02*
X332532500Y-88265000D01*
X332532500Y-88265000D02*
X333692500Y-87105000D01*
X322262500Y-88265000D02*
X332532500Y-88265000D01*
X332532500Y-88265000D02*
X333692500Y-87105000D01*
X322262500Y-88265000D02*
X332532500Y-88265000D01*
X332532500Y-88265000D02*
X333692500Y-87105000D01*
X332532500Y-88265000D02*
X333692500Y-87105000D01*
X322262500Y-88265000D02*
X332532500Y-88265000D01*
%TO.N,Net-(D52-A)*%
X351582500Y-88265000D02*
X352742500Y-87105000D01*
X341312500Y-88265000D02*
X351582500Y-88265000D01*
X351582500Y-88265000D02*
X352742500Y-87105000D01*
X341312500Y-88265000D02*
X351582500Y-88265000D01*
X351582500Y-88265000D02*
X352742500Y-87105000D01*
X351582500Y-88265000D02*
X352742500Y-87105000D01*
X341312500Y-88265000D02*
X351582500Y-88265000D01*
X341312500Y-88265000D02*
X351582500Y-88265000D01*
%TO.N,Net-(D53-A)*%
X370632500Y-88265000D02*
X371792500Y-87105000D01*
X360362500Y-88265000D02*
X370632500Y-88265000D01*
X370632500Y-88265000D02*
X371792500Y-87105000D01*
X370632500Y-88265000D02*
X371792500Y-87105000D01*
X360362500Y-88265000D02*
X370632500Y-88265000D01*
X360362500Y-88265000D02*
X370632500Y-88265000D01*
X360362500Y-88265000D02*
X370632500Y-88265000D01*
X370632500Y-88265000D02*
X371792500Y-87105000D01*
%TO.N,Net-(D54-A)*%
X394445000Y-88265000D02*
X395605000Y-87105000D01*
X394445000Y-88265000D02*
X395605000Y-87105000D01*
X384175000Y-88265000D02*
X394445000Y-88265000D01*
X394445000Y-88265000D02*
X395605000Y-87105000D01*
X384175000Y-88265000D02*
X394445000Y-88265000D01*
X394445000Y-88265000D02*
X395605000Y-87105000D01*
X384175000Y-88265000D02*
X394445000Y-88265000D01*
X384175000Y-88265000D02*
X394445000Y-88265000D01*
%TO.N,Net-(D55-A)*%
X403225000Y-88265000D02*
X413495000Y-88265000D01*
X413495000Y-88265000D02*
X414655000Y-87105000D01*
X413495000Y-88265000D02*
X414655000Y-87105000D01*
X403225000Y-88265000D02*
X413495000Y-88265000D01*
X413495000Y-88265000D02*
X414655000Y-87105000D01*
X413495000Y-88265000D02*
X414655000Y-87105000D01*
X403225000Y-88265000D02*
X413495000Y-88265000D01*
X403225000Y-88265000D02*
X413495000Y-88265000D01*
%TO.N,Net-(D56-A)*%
X432545000Y-88265000D02*
X433705000Y-87105000D01*
X432545000Y-88265000D02*
X433705000Y-87105000D01*
X422275000Y-88265000D02*
X432545000Y-88265000D01*
X432545000Y-88265000D02*
X433705000Y-87105000D01*
X422275000Y-88265000D02*
X432545000Y-88265000D01*
X432545000Y-88265000D02*
X433705000Y-87105000D01*
X422275000Y-88265000D02*
X432545000Y-88265000D01*
X422275000Y-88265000D02*
X432545000Y-88265000D01*
%TO.N,Net-(D57-A)*%
X38893750Y-107315000D02*
X49163750Y-107315000D01*
X38893750Y-107315000D02*
X49163750Y-107315000D01*
X38893750Y-107315000D02*
X49163750Y-107315000D01*
X38893750Y-107315000D02*
X49163750Y-107315000D01*
X49163750Y-107315000D02*
X50323750Y-106155000D01*
X49163750Y-107315000D02*
X50323750Y-106155000D01*
X49163750Y-107315000D02*
X50323750Y-106155000D01*
X49163750Y-107315000D02*
X50323750Y-106155000D01*
%TO.N,Net-(D58-A)*%
X65087500Y-107315000D02*
X75357500Y-107315000D01*
X75357500Y-107315000D02*
X76517500Y-106155000D01*
X65087500Y-107315000D02*
X75357500Y-107315000D01*
X75357500Y-107315000D02*
X76517500Y-106155000D01*
X65087500Y-107315000D02*
X75357500Y-107315000D01*
X75357500Y-107315000D02*
X76517500Y-106155000D01*
X75357500Y-107315000D02*
X76517500Y-106155000D01*
X65087500Y-107315000D02*
X75357500Y-107315000D01*
%TO.N,Net-(D59-A)*%
X94407500Y-107315000D02*
X95567500Y-106155000D01*
X94407500Y-107315000D02*
X95567500Y-106155000D01*
X84137500Y-107315000D02*
X94407500Y-107315000D01*
X94407500Y-107315000D02*
X95567500Y-106155000D01*
X84137500Y-107315000D02*
X94407500Y-107315000D01*
X94407500Y-107315000D02*
X95567500Y-106155000D01*
X84137500Y-107315000D02*
X94407500Y-107315000D01*
X84137500Y-107315000D02*
X94407500Y-107315000D01*
%TO.N,Net-(D60-A)*%
X103187500Y-107315000D02*
X113457500Y-107315000D01*
X113457500Y-107315000D02*
X114617500Y-106155000D01*
X113457500Y-107315000D02*
X114617500Y-106155000D01*
X103187500Y-107315000D02*
X113457500Y-107315000D01*
X113457500Y-107315000D02*
X114617500Y-106155000D01*
X103187500Y-107315000D02*
X113457500Y-107315000D01*
X113457500Y-107315000D02*
X114617500Y-106155000D01*
X103187500Y-107315000D02*
X113457500Y-107315000D01*
%TO.N,Net-(D61-A)*%
X122237500Y-107315000D02*
X132507500Y-107315000D01*
X132507500Y-107315000D02*
X133667500Y-106155000D01*
X122237500Y-107315000D02*
X132507500Y-107315000D01*
X132507500Y-107315000D02*
X133667500Y-106155000D01*
X122237500Y-107315000D02*
X132507500Y-107315000D01*
X132507500Y-107315000D02*
X133667500Y-106155000D01*
X132507500Y-107315000D02*
X133667500Y-106155000D01*
X122237500Y-107315000D02*
X132507500Y-107315000D01*
%TO.N,Net-(D62-A)*%
X141287500Y-107315000D02*
X151557500Y-107315000D01*
X151557500Y-107315000D02*
X152717500Y-106155000D01*
X151557500Y-107315000D02*
X152717500Y-106155000D01*
X141287500Y-107315000D02*
X151557500Y-107315000D01*
X141287500Y-107315000D02*
X151557500Y-107315000D01*
X151557500Y-107315000D02*
X152717500Y-106155000D01*
X141287500Y-107315000D02*
X151557500Y-107315000D01*
X151557500Y-107315000D02*
X152717500Y-106155000D01*
%TO.N,Net-(D63-A)*%
X170607500Y-107315000D02*
X171767500Y-106155000D01*
X170607500Y-107315000D02*
X171767500Y-106155000D01*
X170607500Y-107315000D02*
X171767500Y-106155000D01*
X170607500Y-107315000D02*
X171767500Y-106155000D01*
X160337500Y-107315000D02*
X170607500Y-107315000D01*
X160337500Y-107315000D02*
X170607500Y-107315000D01*
X160337500Y-107315000D02*
X170607500Y-107315000D01*
X160337500Y-107315000D02*
X170607500Y-107315000D01*
%TO.N,Net-(D64-A)*%
X179387500Y-107315000D02*
X189657500Y-107315000D01*
X179387500Y-107315000D02*
X189657500Y-107315000D01*
X189657500Y-107315000D02*
X190817500Y-106155000D01*
X179387500Y-107315000D02*
X189657500Y-107315000D01*
X189657500Y-107315000D02*
X190817500Y-106155000D01*
X179387500Y-107315000D02*
X189657500Y-107315000D01*
X189657500Y-107315000D02*
X190817500Y-106155000D01*
X189657500Y-107315000D02*
X190817500Y-106155000D01*
%TO.N,Net-(D65-A)*%
X208707500Y-107315000D02*
X209867500Y-106155000D01*
X198437500Y-107315000D02*
X208707500Y-107315000D01*
X208707500Y-107315000D02*
X209867500Y-106155000D01*
X198437500Y-107315000D02*
X208707500Y-107315000D01*
X198437500Y-107315000D02*
X208707500Y-107315000D01*
X208707500Y-107315000D02*
X209867500Y-106155000D01*
X208707500Y-107315000D02*
X209867500Y-106155000D01*
X198437500Y-107315000D02*
X208707500Y-107315000D01*
%TO.N,Net-(D66-A)*%
X217487500Y-107315000D02*
X227757500Y-107315000D01*
X227757500Y-107315000D02*
X228917500Y-106155000D01*
X217487500Y-107315000D02*
X227757500Y-107315000D01*
X227757500Y-107315000D02*
X228917500Y-106155000D01*
X227757500Y-107315000D02*
X228917500Y-106155000D01*
X217487500Y-107315000D02*
X227757500Y-107315000D01*
X227757500Y-107315000D02*
X228917500Y-106155000D01*
X217487500Y-107315000D02*
X227757500Y-107315000D01*
%TO.N,Net-(D67-A)*%
X246807500Y-107315000D02*
X247967500Y-106155000D01*
X246807500Y-107315000D02*
X247967500Y-106155000D01*
X236537500Y-107315000D02*
X246807500Y-107315000D01*
X246807500Y-107315000D02*
X247967500Y-106155000D01*
X246807500Y-107315000D02*
X247967500Y-106155000D01*
X236537500Y-107315000D02*
X246807500Y-107315000D01*
X236537500Y-107315000D02*
X246807500Y-107315000D01*
X236537500Y-107315000D02*
X246807500Y-107315000D01*
%TO.N,Net-(D68-A)*%
X265857500Y-107315000D02*
X267017500Y-106155000D01*
X265857500Y-107315000D02*
X267017500Y-106155000D01*
X255587500Y-107315000D02*
X265857500Y-107315000D01*
X265857500Y-107315000D02*
X267017500Y-106155000D01*
X255587500Y-107315000D02*
X265857500Y-107315000D01*
X255587500Y-107315000D02*
X265857500Y-107315000D01*
X265857500Y-107315000D02*
X267017500Y-106155000D01*
X255587500Y-107315000D02*
X265857500Y-107315000D01*
%TO.N,Net-(D69-A)*%
X274637500Y-107315000D02*
X284907500Y-107315000D01*
X284907500Y-107315000D02*
X286067500Y-106155000D01*
X274637500Y-107315000D02*
X284907500Y-107315000D01*
X284907500Y-107315000D02*
X286067500Y-106155000D01*
X274637500Y-107315000D02*
X284907500Y-107315000D01*
X284907500Y-107315000D02*
X286067500Y-106155000D01*
X274637500Y-107315000D02*
X284907500Y-107315000D01*
X284907500Y-107315000D02*
X286067500Y-106155000D01*
%TO.N,Net-(D70-A)*%
X384175000Y-107315000D02*
X394445000Y-107315000D01*
X384175000Y-107315000D02*
X394445000Y-107315000D01*
X394445000Y-107315000D02*
X395605000Y-106155000D01*
X384175000Y-107315000D02*
X394445000Y-107315000D01*
X384175000Y-107315000D02*
X394445000Y-107315000D01*
X394445000Y-107315000D02*
X395605000Y-106155000D01*
X394445000Y-107315000D02*
X395605000Y-106155000D01*
X394445000Y-107315000D02*
X395605000Y-106155000D01*
%TO.N,Net-(D71-A)*%
X413495000Y-107315000D02*
X414655000Y-106155000D01*
X403225000Y-107315000D02*
X413495000Y-107315000D01*
X413495000Y-107315000D02*
X414655000Y-106155000D01*
X403225000Y-107315000D02*
X413495000Y-107315000D01*
X403225000Y-107315000D02*
X413495000Y-107315000D01*
X413495000Y-107315000D02*
X414655000Y-106155000D01*
X413495000Y-107315000D02*
X414655000Y-106155000D01*
X403225000Y-107315000D02*
X413495000Y-107315000D01*
%TO.N,Net-(D72-A)*%
X422275000Y-107315000D02*
X432545000Y-107315000D01*
X422275000Y-107315000D02*
X432545000Y-107315000D01*
X422275000Y-107315000D02*
X432545000Y-107315000D01*
X432545000Y-107315000D02*
X433705000Y-106155000D01*
X432545000Y-107315000D02*
X433705000Y-106155000D01*
X432545000Y-107315000D02*
X433705000Y-106155000D01*
X432545000Y-107315000D02*
X433705000Y-106155000D01*
X422275000Y-107315000D02*
X432545000Y-107315000D01*
%TO.N,Net-(D73-A)*%
X44401250Y-126365000D02*
X45561250Y-125205000D01*
X44401250Y-126365000D02*
X45561250Y-125205000D01*
X34131250Y-126365000D02*
X44401250Y-126365000D01*
X34131250Y-126365000D02*
X44401250Y-126365000D01*
X44401250Y-126365000D02*
X45561250Y-125205000D01*
X44401250Y-126365000D02*
X45561250Y-125205000D01*
X34131250Y-126365000D02*
X44401250Y-126365000D01*
X34131250Y-126365000D02*
X44401250Y-126365000D01*
%TO.N,Net-(D74-A)*%
X65832500Y-126365000D02*
X66992500Y-125205000D01*
X55562500Y-126365000D02*
X65832500Y-126365000D01*
X65832500Y-126365000D02*
X66992500Y-125205000D01*
X55562500Y-126365000D02*
X65832500Y-126365000D01*
X65832500Y-126365000D02*
X66992500Y-125205000D01*
X55562500Y-126365000D02*
X65832500Y-126365000D01*
X55562500Y-126365000D02*
X65832500Y-126365000D01*
X65832500Y-126365000D02*
X66992500Y-125205000D01*
%TO.N,Net-(D75-A)*%
X84882500Y-126365000D02*
X86042500Y-125205000D01*
X74612500Y-126365000D02*
X84882500Y-126365000D01*
X74612500Y-126365000D02*
X84882500Y-126365000D01*
X84882500Y-126365000D02*
X86042500Y-125205000D01*
X74612500Y-126365000D02*
X84882500Y-126365000D01*
X84882500Y-126365000D02*
X86042500Y-125205000D01*
X74612500Y-126365000D02*
X84882500Y-126365000D01*
X84882500Y-126365000D02*
X86042500Y-125205000D01*
%TO.N,Net-(D76-A)*%
X103932500Y-126365000D02*
X105092500Y-125205000D01*
X93662500Y-126365000D02*
X103932500Y-126365000D01*
X93662500Y-126365000D02*
X103932500Y-126365000D01*
X103932500Y-126365000D02*
X105092500Y-125205000D01*
X103932500Y-126365000D02*
X105092500Y-125205000D01*
X93662500Y-126365000D02*
X103932500Y-126365000D01*
X93662500Y-126365000D02*
X103932500Y-126365000D01*
X103932500Y-126365000D02*
X105092500Y-125205000D01*
%TO.N,Net-(D77-A)*%
X112712500Y-126365000D02*
X122982500Y-126365000D01*
X122982500Y-126365000D02*
X124142500Y-125205000D01*
X112712500Y-126365000D02*
X122982500Y-126365000D01*
X122982500Y-126365000D02*
X124142500Y-125205000D01*
X122982500Y-126365000D02*
X124142500Y-125205000D01*
X112712500Y-126365000D02*
X122982500Y-126365000D01*
X122982500Y-126365000D02*
X124142500Y-125205000D01*
X112712500Y-126365000D02*
X122982500Y-126365000D01*
%TO.N,Net-(D78-A)*%
X131762500Y-126365000D02*
X142032500Y-126365000D01*
X142032500Y-126365000D02*
X143192500Y-125205000D01*
X142032500Y-126365000D02*
X143192500Y-125205000D01*
X142032500Y-126365000D02*
X143192500Y-125205000D01*
X131762500Y-126365000D02*
X142032500Y-126365000D01*
X131762500Y-126365000D02*
X142032500Y-126365000D01*
X142032500Y-126365000D02*
X143192500Y-125205000D01*
X131762500Y-126365000D02*
X142032500Y-126365000D01*
%TO.N,Net-(D79-A)*%
X161082500Y-126365000D02*
X162242500Y-125205000D01*
X150812500Y-126365000D02*
X161082500Y-126365000D01*
X161082500Y-126365000D02*
X162242500Y-125205000D01*
X150812500Y-126365000D02*
X161082500Y-126365000D01*
X150812500Y-126365000D02*
X161082500Y-126365000D01*
X150812500Y-126365000D02*
X161082500Y-126365000D01*
X161082500Y-126365000D02*
X162242500Y-125205000D01*
X161082500Y-126365000D02*
X162242500Y-125205000D01*
%TO.N,Net-(D80-A)*%
X180132500Y-126365000D02*
X181292500Y-125205000D01*
X169862500Y-126365000D02*
X180132500Y-126365000D01*
X180132500Y-126365000D02*
X181292500Y-125205000D01*
X180132500Y-126365000D02*
X181292500Y-125205000D01*
X169862500Y-126365000D02*
X180132500Y-126365000D01*
X169862500Y-126365000D02*
X180132500Y-126365000D01*
X180132500Y-126365000D02*
X181292500Y-125205000D01*
X169862500Y-126365000D02*
X180132500Y-126365000D01*
%TO.N,Net-(D81-A)*%
X188912500Y-126365000D02*
X199182500Y-126365000D01*
X188912500Y-126365000D02*
X199182500Y-126365000D01*
X199182500Y-126365000D02*
X200342500Y-125205000D01*
X188912500Y-126365000D02*
X199182500Y-126365000D01*
X199182500Y-126365000D02*
X200342500Y-125205000D01*
X199182500Y-126365000D02*
X200342500Y-125205000D01*
X188912500Y-126365000D02*
X199182500Y-126365000D01*
X199182500Y-126365000D02*
X200342500Y-125205000D01*
%TO.N,Net-(D82-A)*%
X207962500Y-126365000D02*
X218232500Y-126365000D01*
X207962500Y-126365000D02*
X218232500Y-126365000D01*
X207962500Y-126365000D02*
X218232500Y-126365000D01*
X207962500Y-126365000D02*
X218232500Y-126365000D01*
X218232500Y-126365000D02*
X219392500Y-125205000D01*
X218232500Y-126365000D02*
X219392500Y-125205000D01*
X218232500Y-126365000D02*
X219392500Y-125205000D01*
X218232500Y-126365000D02*
X219392500Y-125205000D01*
%TO.N,Net-(D83-A)*%
X227012500Y-126365000D02*
X237282500Y-126365000D01*
X227012500Y-126365000D02*
X237282500Y-126365000D01*
X237282500Y-126365000D02*
X238442500Y-125205000D01*
X237282500Y-126365000D02*
X238442500Y-125205000D01*
X237282500Y-126365000D02*
X238442500Y-125205000D01*
X227012500Y-126365000D02*
X237282500Y-126365000D01*
X237282500Y-126365000D02*
X238442500Y-125205000D01*
X227012500Y-126365000D02*
X237282500Y-126365000D01*
%TO.N,Net-(D84-A)*%
X256332500Y-126365000D02*
X257492500Y-125205000D01*
X256332500Y-126365000D02*
X257492500Y-125205000D01*
X256332500Y-126365000D02*
X257492500Y-125205000D01*
X246062500Y-126365000D02*
X256332500Y-126365000D01*
X256332500Y-126365000D02*
X257492500Y-125205000D01*
X246062500Y-126365000D02*
X256332500Y-126365000D01*
X246062500Y-126365000D02*
X256332500Y-126365000D01*
X246062500Y-126365000D02*
X256332500Y-126365000D01*
%TO.N,Net-(D85-A)*%
X281781250Y-126365000D02*
X292051250Y-126365000D01*
X281781250Y-126365000D02*
X292051250Y-126365000D01*
X281781250Y-126365000D02*
X292051250Y-126365000D01*
X292051250Y-126365000D02*
X293211250Y-125205000D01*
X292051250Y-126365000D02*
X293211250Y-125205000D01*
X292051250Y-126365000D02*
X293211250Y-125205000D01*
X281781250Y-126365000D02*
X292051250Y-126365000D01*
X292051250Y-126365000D02*
X293211250Y-125205000D01*
%TO.N,Net-(D86-A)*%
X351582500Y-126365000D02*
X352742500Y-125205000D01*
X351582500Y-126365000D02*
X352742500Y-125205000D01*
X351582500Y-126365000D02*
X352742500Y-125205000D01*
X341312500Y-126365000D02*
X351582500Y-126365000D01*
X351582500Y-126365000D02*
X352742500Y-125205000D01*
X341312500Y-126365000D02*
X351582500Y-126365000D01*
X341312500Y-126365000D02*
X351582500Y-126365000D01*
X341312500Y-126365000D02*
X351582500Y-126365000D01*
%TO.N,Net-(D87-A)*%
X394445000Y-126365000D02*
X395605000Y-125205000D01*
X384175000Y-126365000D02*
X394445000Y-126365000D01*
X394445000Y-126365000D02*
X395605000Y-125205000D01*
X394445000Y-126365000D02*
X395605000Y-125205000D01*
X394445000Y-126365000D02*
X395605000Y-125205000D01*
X384175000Y-126365000D02*
X394445000Y-126365000D01*
X384175000Y-126365000D02*
X394445000Y-126365000D01*
X384175000Y-126365000D02*
X394445000Y-126365000D01*
%TO.N,Net-(D88-A)*%
X403225000Y-126365000D02*
X413495000Y-126365000D01*
X413495000Y-126365000D02*
X414655000Y-125205000D01*
X403225000Y-126365000D02*
X413495000Y-126365000D01*
X403225000Y-126365000D02*
X413495000Y-126365000D01*
X413495000Y-126365000D02*
X414655000Y-125205000D01*
X413495000Y-126365000D02*
X414655000Y-125205000D01*
X403225000Y-126365000D02*
X413495000Y-126365000D01*
X413495000Y-126365000D02*
X414655000Y-125205000D01*
%TO.N,Net-(D89-A)*%
X432545000Y-126365000D02*
X433705000Y-125205000D01*
X422275000Y-126365000D02*
X432545000Y-126365000D01*
X422275000Y-126365000D02*
X432545000Y-126365000D01*
X432545000Y-126365000D02*
X433705000Y-125205000D01*
X422275000Y-126365000D02*
X432545000Y-126365000D01*
X422275000Y-126365000D02*
X432545000Y-126365000D01*
X432545000Y-126365000D02*
X433705000Y-125205000D01*
X432545000Y-126365000D02*
X433705000Y-125205000D01*
%TO.N,Net-(D90-A)*%
X44401250Y-145415000D02*
X45561250Y-144255000D01*
X34131250Y-145415000D02*
X44401250Y-145415000D01*
X34131250Y-145415000D02*
X44401250Y-145415000D01*
X44401250Y-145415000D02*
X45561250Y-144255000D01*
X34131250Y-145415000D02*
X44401250Y-145415000D01*
X44401250Y-145415000D02*
X45561250Y-144255000D01*
X44401250Y-145415000D02*
X45561250Y-144255000D01*
X34131250Y-145415000D02*
X44401250Y-145415000D01*
%TO.N,Net-(D91-A)*%
X68213750Y-145415000D02*
X69373750Y-144255000D01*
X57943750Y-145415000D02*
X68213750Y-145415000D01*
X68213750Y-145415000D02*
X69373750Y-144255000D01*
X68213750Y-145415000D02*
X69373750Y-144255000D01*
X68213750Y-145415000D02*
X69373750Y-144255000D01*
X57943750Y-145415000D02*
X68213750Y-145415000D01*
X57943750Y-145415000D02*
X68213750Y-145415000D01*
X57943750Y-145415000D02*
X68213750Y-145415000D01*
%TO.N,Net-(D92-A)*%
X81756250Y-145415000D02*
X92026250Y-145415000D01*
X81756250Y-145415000D02*
X92026250Y-145415000D01*
X81756250Y-145415000D02*
X92026250Y-145415000D01*
X81756250Y-145415000D02*
X92026250Y-145415000D01*
X92026250Y-145415000D02*
X93186250Y-144255000D01*
X92026250Y-145415000D02*
X93186250Y-144255000D01*
X92026250Y-145415000D02*
X93186250Y-144255000D01*
X92026250Y-145415000D02*
X93186250Y-144255000D01*
%TO.N,Net-(D93-A)*%
X153193750Y-145415000D02*
X163463750Y-145415000D01*
X153193750Y-145415000D02*
X163463750Y-145415000D01*
X153193750Y-145415000D02*
X163463750Y-145415000D01*
X163463750Y-145415000D02*
X164623750Y-144255000D01*
X163463750Y-145415000D02*
X164623750Y-144255000D01*
X163463750Y-145415000D02*
X164623750Y-144255000D01*
X163463750Y-145415000D02*
X164623750Y-144255000D01*
X153193750Y-145415000D02*
X163463750Y-145415000D01*
%TO.N,Net-(D94-A)*%
X234901250Y-145415000D02*
X236061250Y-144255000D01*
X224631250Y-145415000D02*
X234901250Y-145415000D01*
X224631250Y-145415000D02*
X234901250Y-145415000D01*
X234901250Y-145415000D02*
X236061250Y-144255000D01*
X234901250Y-145415000D02*
X236061250Y-144255000D01*
X224631250Y-145415000D02*
X234901250Y-145415000D01*
X224631250Y-145415000D02*
X234901250Y-145415000D01*
X234901250Y-145415000D02*
X236061250Y-144255000D01*
%TO.N,Net-(D95-A)*%
X248443750Y-145415000D02*
X258713750Y-145415000D01*
X248443750Y-145415000D02*
X258713750Y-145415000D01*
X258713750Y-145415000D02*
X259873750Y-144255000D01*
X248443750Y-145415000D02*
X258713750Y-145415000D01*
X248443750Y-145415000D02*
X258713750Y-145415000D01*
X258713750Y-145415000D02*
X259873750Y-144255000D01*
X258713750Y-145415000D02*
X259873750Y-144255000D01*
X258713750Y-145415000D02*
X259873750Y-144255000D01*
%TO.N,Net-(D96-A)*%
X272256250Y-145415000D02*
X282526250Y-145415000D01*
X272256250Y-145415000D02*
X282526250Y-145415000D01*
X282526250Y-145415000D02*
X283686250Y-144255000D01*
X272256250Y-145415000D02*
X282526250Y-145415000D01*
X282526250Y-145415000D02*
X283686250Y-144255000D01*
X282526250Y-145415000D02*
X283686250Y-144255000D01*
X282526250Y-145415000D02*
X283686250Y-144255000D01*
X272256250Y-145415000D02*
X282526250Y-145415000D01*
%TO.N,Net-(D97-A)*%
X306338750Y-145415000D02*
X307498750Y-144255000D01*
X306338750Y-145415000D02*
X307498750Y-144255000D01*
X296068750Y-145415000D02*
X306338750Y-145415000D01*
X296068750Y-145415000D02*
X306338750Y-145415000D01*
X306338750Y-145415000D02*
X307498750Y-144255000D01*
X296068750Y-145415000D02*
X306338750Y-145415000D01*
X306338750Y-145415000D02*
X307498750Y-144255000D01*
X296068750Y-145415000D02*
X306338750Y-145415000D01*
%TO.N,Net-(D98-A)*%
X332532500Y-145415000D02*
X333692500Y-144255000D01*
X322262500Y-145415000D02*
X332532500Y-145415000D01*
X322262500Y-145415000D02*
X332532500Y-145415000D01*
X332532500Y-145415000D02*
X333692500Y-144255000D01*
X322262500Y-145415000D02*
X332532500Y-145415000D01*
X332532500Y-145415000D02*
X333692500Y-144255000D01*
X322262500Y-145415000D02*
X332532500Y-145415000D01*
X332532500Y-145415000D02*
X333692500Y-144255000D01*
%TO.N,Net-(D99-A)*%
X341312500Y-145415000D02*
X351582500Y-145415000D01*
X351582500Y-145415000D02*
X352742500Y-144255000D01*
X351582500Y-145415000D02*
X352742500Y-144255000D01*
X351582500Y-145415000D02*
X352742500Y-144255000D01*
X341312500Y-145415000D02*
X351582500Y-145415000D01*
X341312500Y-145415000D02*
X351582500Y-145415000D01*
X341312500Y-145415000D02*
X351582500Y-145415000D01*
X351582500Y-145415000D02*
X352742500Y-144255000D01*
%TO.N,Net-(D100-A)*%
X360362500Y-145415000D02*
X370632500Y-145415000D01*
X360362500Y-145415000D02*
X370632500Y-145415000D01*
X370632500Y-145415000D02*
X371792500Y-144255000D01*
X370632500Y-145415000D02*
X371792500Y-144255000D01*
X370632500Y-145415000D02*
X371792500Y-144255000D01*
X360362500Y-145415000D02*
X370632500Y-145415000D01*
X370632500Y-145415000D02*
X371792500Y-144255000D01*
X360362500Y-145415000D02*
X370632500Y-145415000D01*
%TO.N,Net-(D101-A)*%
X393700000Y-145415000D02*
X403970000Y-145415000D01*
X403970000Y-145415000D02*
X405130000Y-144255000D01*
X403970000Y-145415000D02*
X405130000Y-144255000D01*
X393700000Y-145415000D02*
X403970000Y-145415000D01*
X403970000Y-145415000D02*
X405130000Y-144255000D01*
X403970000Y-145415000D02*
X405130000Y-144255000D01*
X393700000Y-145415000D02*
X403970000Y-145415000D01*
X393700000Y-145415000D02*
X403970000Y-145415000D01*
%TO.N,Net-(D102-A)*%
X422275000Y-145415000D02*
X432545000Y-145415000D01*
X432545000Y-145415000D02*
X433705000Y-144255000D01*
X432545000Y-145415000D02*
X433705000Y-144255000D01*
X422275000Y-145415000D02*
X432545000Y-145415000D01*
X422275000Y-145415000D02*
X432545000Y-145415000D01*
X422275000Y-145415000D02*
X432545000Y-145415000D01*
X432545000Y-145415000D02*
X433705000Y-144255000D01*
X432545000Y-145415000D02*
X433705000Y-144255000D01*
%TD*%
M02*
