M48
; DRILL file {KiCad 9.0.6} date 2026-01-05T20:45:41+0000
; FORMAT={-:-/ absolute / metric / decimal}
; #@! TF.CreationDate,2026-01-05T20:45:41+00:00
; #@! TF.GenerationSoftware,Kicad,Pcbnew,9.0.6
; #@! TF.FileFunction,NonPlated,1,2,NPTH
FMAT,2
METRIC
; #@! TA.AperFunction,NonPlated,NPTH,ComponentDrill
T1C1.700
; #@! TA.AperFunction,NonPlated,NPTH,ComponentDrill
T2C1.850
; #@! TA.AperFunction,NonPlated,NPTH,ComponentDrill
T3C2.200
; #@! TA.AperFunction,NonPlated,NPTH,ComponentDrill
T4C3.050
; #@! TA.AperFunction,NonPlated,NPTH,ComponentDrill
T5C3.200
; #@! TA.AperFunction,NonPlated,NPTH,ComponentDrill
T6C4.000
%
G90
G05
T1
X30.48Y-43.18
X30.48Y-71.755
X32.861Y-128.905
X32.861Y-147.955
X35.242Y-90.805
X37.624Y-109.855
X40.64Y-43.18
X40.64Y-71.755
X43.021Y-128.905
X43.021Y-147.955
X45.402Y-90.805
X47.784Y-109.855
X49.53Y-71.755
X54.292Y-128.905
X56.674Y-147.955
X59.055Y-90.805
X59.69Y-71.755
X63.817Y-109.855
X64.453Y-128.905
X66.834Y-147.955
X68.58Y-43.18
X68.58Y-71.755
X69.215Y-90.805
X73.343Y-128.905
X73.977Y-109.855
X78.105Y-90.805
X78.74Y-43.18
X78.74Y-71.755
X80.486Y-147.955
X82.867Y-109.855
X83.502Y-128.905
X87.63Y-43.18
X87.63Y-71.755
X88.265Y-90.805
X90.646Y-147.955
X92.392Y-128.905
X93.027Y-109.855
X97.155Y-90.805
X97.79Y-43.18
X97.79Y-71.755
X101.917Y-109.855
X102.552Y-128.905
X106.68Y-43.18
X106.68Y-71.755
X107.315Y-90.805
X111.442Y-128.905
X112.078Y-109.855
X116.205Y-90.805
X116.84Y-43.18
X116.84Y-71.755
X120.968Y-109.855
X121.602Y-128.905
X125.73Y-43.18
X125.73Y-71.755
X126.365Y-90.805
X130.493Y-128.905
X131.127Y-109.855
X135.255Y-90.805
X135.89Y-43.18
X135.89Y-71.755
X140.017Y-109.855
X140.653Y-128.905
X144.78Y-71.755
X145.415Y-90.805
X149.542Y-128.905
X150.177Y-109.855
X151.924Y-147.955
X154.305Y-43.18
X154.305Y-90.805
X154.94Y-71.755
X159.067Y-109.855
X159.702Y-128.905
X162.084Y-147.955
X163.83Y-71.755
X164.465Y-43.18
X164.465Y-90.805
X168.593Y-128.905
X169.227Y-109.855
X173.355Y-43.18
X173.355Y-90.805
X173.99Y-71.755
X178.117Y-109.855
X178.752Y-128.905
X182.88Y-71.755
X183.515Y-43.18
X183.515Y-90.805
X187.642Y-128.905
X188.278Y-109.855
X192.405Y-43.18
X192.405Y-90.805
X193.04Y-71.755
X197.167Y-109.855
X197.802Y-128.905
X201.93Y-71.755
X202.565Y-43.18
X202.565Y-90.805
X206.692Y-128.905
X207.327Y-109.855
X211.455Y-43.18
X211.455Y-90.805
X212.09Y-71.755
X216.218Y-109.855
X216.852Y-128.905
X220.98Y-71.755
X221.615Y-43.18
X221.615Y-90.805
X223.361Y-147.955
X225.742Y-128.905
X226.377Y-109.855
X230.505Y-90.805
X231.14Y-71.755
X233.521Y-147.955
X235.267Y-109.855
X235.903Y-128.905
X240.03Y-43.18
X240.03Y-71.755
X240.665Y-90.805
X244.792Y-128.905
X245.427Y-109.855
X247.174Y-147.955
X249.555Y-90.805
X250.19Y-43.18
X250.19Y-71.755
X254.317Y-109.855
X254.952Y-128.905
X257.334Y-147.955
X259.08Y-43.18
X259.08Y-71.755
X259.715Y-90.805
X264.477Y-109.855
X268.605Y-90.805
X269.24Y-43.18
X269.24Y-71.755
X270.986Y-147.955
X273.368Y-109.855
X278.13Y-43.18
X278.765Y-90.805
X280.511Y-128.905
X281.146Y-147.955
X283.527Y-109.855
X287.655Y-71.755
X288.29Y-43.18
X290.671Y-128.905
X294.799Y-100.33
X294.799Y-147.955
X297.18Y-43.18
X297.815Y-71.755
X304.959Y-100.33
X304.959Y-147.955
X307.34Y-43.18
X320.993Y-43.18
X320.993Y-71.755
X320.993Y-90.805
X320.993Y-147.955
X331.152Y-43.18
X331.152Y-71.755
X331.152Y-90.805
X331.152Y-147.955
X340.042Y-43.18
X340.042Y-71.755
X340.042Y-90.805
X340.042Y-128.905
X340.042Y-147.955
X350.202Y-43.18
X350.202Y-71.755
X350.202Y-90.805
X350.202Y-128.905
X350.202Y-147.955
X359.092Y-43.18
X359.092Y-71.755
X359.092Y-90.805
X359.092Y-147.955
X369.252Y-43.18
X369.252Y-71.755
X369.252Y-90.805
X369.252Y-147.955
X382.905Y-71.755
X382.905Y-90.805
X382.905Y-109.855
X382.905Y-128.905
X392.43Y-147.955
X393.065Y-71.755
X393.065Y-90.805
X393.065Y-109.855
X393.065Y-128.905
X401.955Y-71.755
X401.955Y-90.805
X401.955Y-109.855
X401.955Y-128.905
X402.59Y-147.955
X412.115Y-71.755
X412.115Y-90.805
X412.115Y-109.855
X412.115Y-128.905
X421.005Y-71.755
X421.005Y-90.805
X421.005Y-109.855
X421.005Y-128.905
X421.005Y-147.955
X431.165Y-71.755
X431.165Y-90.805
X431.165Y-109.855
X431.165Y-128.905
X431.165Y-147.955
T2
X432.69Y-41.205
X432.69Y-46.055
T3
X435.72Y-40.905
X435.72Y-46.355
T4
X107.004Y-140.955
X207.004Y-140.955
X273.691Y-121.905
X280.835Y-64.755
X292.879Y-88.43
X292.879Y-112.23
X297.491Y-121.905
X304.635Y-64.755
X385.61Y-140.955
X409.41Y-140.955
T5
X19.05Y-154.781
X21.431Y-28.575
X450.056Y-28.575
X452.438Y-154.781
T6
X35.56Y-43.18
X35.56Y-71.755
X37.941Y-128.905
X37.941Y-147.955
X40.322Y-90.805
X42.704Y-109.855
X54.61Y-71.755
X59.372Y-128.905
X61.754Y-147.955
X64.135Y-90.805
X68.897Y-109.855
X73.66Y-43.18
X73.66Y-71.755
X78.422Y-128.905
X83.185Y-90.805
X85.566Y-147.955
X87.947Y-109.855
X92.71Y-43.18
X92.71Y-71.755
X97.472Y-128.905
X102.235Y-90.805
X106.997Y-109.855
X107.004Y-156.195
X111.76Y-43.18
X111.76Y-71.755
X116.522Y-128.905
X121.285Y-90.805
X126.047Y-109.855
X130.81Y-43.18
X130.81Y-71.755
X135.572Y-128.905
X140.335Y-90.805
X145.097Y-109.855
X149.86Y-71.755
X154.623Y-128.905
X157.004Y-147.955
X159.385Y-43.18
X159.385Y-90.805
X164.147Y-109.855
X168.91Y-71.755
X173.672Y-128.905
X178.435Y-43.18
X178.435Y-90.805
X183.197Y-109.855
X187.96Y-71.755
X192.722Y-128.905
X197.485Y-43.18
X197.485Y-90.805
X202.248Y-109.855
X207.004Y-156.195
X207.01Y-71.755
X211.772Y-128.905
X216.535Y-43.18
X216.535Y-90.805
X221.297Y-109.855
X226.06Y-71.755
X228.441Y-147.955
X230.822Y-128.905
X235.585Y-90.805
X240.347Y-109.855
X245.11Y-43.18
X245.11Y-71.755
X249.873Y-128.905
X252.254Y-147.955
X254.635Y-90.805
X259.397Y-109.855
X264.16Y-43.18
X264.16Y-71.755
X273.685Y-90.805
X273.691Y-137.145
X276.066Y-147.955
X278.447Y-109.855
X280.835Y-79.995
X283.21Y-43.18
X285.591Y-128.905
X292.735Y-71.755
X297.491Y-137.145
X299.879Y-100.33
X299.879Y-147.955
X302.26Y-43.18
X304.635Y-79.995
X308.119Y-88.43
X308.119Y-112.23
X326.072Y-43.18
X326.072Y-71.755
X326.072Y-90.805
X326.072Y-147.955
X345.123Y-43.18
X345.123Y-71.755
X345.123Y-90.805
X345.123Y-128.905
X345.123Y-147.955
X364.172Y-43.18
X364.172Y-71.755
X364.172Y-90.805
X364.172Y-147.955
X385.61Y-156.195
X387.985Y-71.755
X387.985Y-90.805
X387.985Y-109.855
X387.985Y-128.905
X397.51Y-147.955
X407.035Y-71.755
X407.035Y-90.805
X407.035Y-109.855
X407.035Y-128.905
X409.41Y-156.195
X426.085Y-71.755
X426.085Y-90.805
X426.085Y-109.855
X426.085Y-128.905
X426.085Y-147.955
M30
