%TF.GenerationSoftware,KiCad,Pcbnew,9.0.6*%
%TF.CreationDate,2026-01-11T11:58:47+00:00*%
%TF.ProjectId,keebv3,6b656562-7633-42e6-9b69-6361645f7063,rev?*%
%TF.SameCoordinates,Original*%
%TF.FileFunction,Copper,L1,Top*%
%TF.FilePolarity,Positive*%
%FSLAX46Y46*%
G04 Gerber Fmt 4.6, Leading zero omitted, Abs format (unit mm)*
G04 Created by KiCad (PCBNEW 9.0.6) date 2026-01-11 11:58:47*
%MOMM*%
%LPD*%
G01*
G04 APERTURE LIST*
G04 Aperture macros list*
%AMRoundRect*
0 Rectangle with rounded corners*
0 $1 Rounding radius*
0 $2 $3 $4 $5 $6 $7 $8 $9 X,Y pos of 4 corners*
0 Add a 4 corners polygon primitive as box body*
4,1,4,$2,$3,$4,$5,$6,$7,$8,$9,$2,$3,0*
0 Add four circle primitives for the rounded corners*
1,1,$1+$1,$2,$3*
1,1,$1+$1,$4,$5*
1,1,$1+$1,$6,$7*
1,1,$1+$1,$8,$9*
0 Add four rect primitives between the rounded corners*
20,1,$1+$1,$2,$3,$4,$5,0*
20,1,$1+$1,$4,$5,$6,$7,0*
20,1,$1+$1,$6,$7,$8,$9,0*
20,1,$1+$1,$8,$9,$2,$3,0*%
%AMFreePoly0*
4,1,37,0.800000,0.796148,0.878414,0.796148,1.032228,0.765552,1.177117,0.705537,1.307515,0.618408,1.418408,0.507515,1.505537,0.377117,1.565552,0.232228,1.596148,0.078414,1.596148,-0.078414,1.565552,-0.232228,1.505537,-0.377117,1.418408,-0.507515,1.307515,-0.618408,1.177117,-0.705537,1.032228,-0.765552,0.878414,-0.796148,0.800000,-0.796148,0.800000,-0.800000,-1.400000,-0.800000,
-1.403843,-0.796157,-1.439018,-0.796157,-1.511114,-0.766294,-1.566294,-0.711114,-1.596157,-0.639018,-1.596157,-0.603843,-1.600000,-0.600000,-1.600000,0.600000,-1.596157,0.603843,-1.596157,0.639018,-1.566294,0.711114,-1.511114,0.766294,-1.439018,0.796157,-1.403843,0.796157,-1.400000,0.800000,0.800000,0.800000,0.800000,0.796148,0.800000,0.796148,$1*%
%AMFreePoly1*
4,1,37,1.403843,0.796157,1.439018,0.796157,1.511114,0.766294,1.566294,0.711114,1.596157,0.639018,1.596157,0.603843,1.600000,0.600000,1.600000,-0.600000,1.596157,-0.603843,1.596157,-0.639018,1.566294,-0.711114,1.511114,-0.766294,1.439018,-0.796157,1.403843,-0.796157,1.400000,-0.800000,-0.800000,-0.800000,-0.800000,-0.796148,-0.878414,-0.796148,-1.032228,-0.765552,-1.177117,-0.705537,
-1.307515,-0.618408,-1.418408,-0.507515,-1.505537,-0.377117,-1.565552,-0.232228,-1.596148,-0.078414,-1.596148,0.078414,-1.565552,0.232228,-1.505537,0.377117,-1.418408,0.507515,-1.307515,0.618408,-1.177117,0.705537,-1.032228,0.765552,-0.878414,0.796148,-0.800000,0.796148,-0.800000,0.800000,1.400000,0.800000,1.403843,0.796157,1.403843,0.796157,$1*%
%AMFreePoly2*
4,1,37,0.603843,0.796157,0.639018,0.796157,0.711114,0.766294,0.766294,0.711114,0.796157,0.639018,0.796157,0.603843,0.800000,0.600000,0.800000,-0.600000,0.796157,-0.603843,0.796157,-0.639018,0.766294,-0.711114,0.711114,-0.766294,0.639018,-0.796157,0.603843,-0.796157,0.600000,-0.800000,0.000000,-0.800000,0.000000,-0.796148,-0.078414,-0.796148,-0.232228,-0.765552,-0.377117,-0.705537,
-0.507515,-0.618408,-0.618408,-0.507515,-0.705537,-0.377117,-0.765552,-0.232228,-0.796148,-0.078414,-0.796148,0.078414,-0.765552,0.232228,-0.705537,0.377117,-0.618408,0.507515,-0.507515,0.618408,-0.377117,0.705537,-0.232228,0.765552,-0.078414,0.796148,0.000000,0.796148,0.000000,0.800000,0.600000,0.800000,0.603843,0.796157,0.603843,0.796157,$1*%
%AMFreePoly3*
4,1,37,0.000000,0.796148,0.078414,0.796148,0.232228,0.765552,0.377117,0.705537,0.507515,0.618408,0.618408,0.507515,0.705537,0.377117,0.765552,0.232228,0.796148,0.078414,0.796148,-0.078414,0.765552,-0.232228,0.705537,-0.377117,0.618408,-0.507515,0.507515,-0.618408,0.377117,-0.705537,0.232228,-0.765552,0.078414,-0.796148,0.000000,-0.796148,0.000000,-0.800000,-0.600000,-0.800000,
-0.603843,-0.796157,-0.639018,-0.796157,-0.711114,-0.766294,-0.766294,-0.711114,-0.796157,-0.639018,-0.796157,-0.603843,-0.800000,-0.600000,-0.800000,0.600000,-0.796157,0.603843,-0.796157,0.639018,-0.766294,0.711114,-0.711114,0.766294,-0.639018,0.796157,-0.603843,0.796157,-0.600000,0.800000,0.000000,0.800000,0.000000,0.796148,0.000000,0.796148,$1*%
G04 Aperture macros list end*
%TA.AperFunction,ComponentPad*%
%ADD10C,2.200000*%
%TD*%
%TA.AperFunction,SMDPad,CuDef*%
%ADD11FreePoly0,270.000000*%
%TD*%
%TA.AperFunction,ComponentPad*%
%ADD12RoundRect,0.200000X-0.600000X0.600000X-0.600000X-0.600000X0.600000X-0.600000X0.600000X0.600000X0*%
%TD*%
%TA.AperFunction,SMDPad,CuDef*%
%ADD13RoundRect,0.800000X-0.000010X0.800000X-0.000010X-0.800000X0.000010X-0.800000X0.000010X0.800000X0*%
%TD*%
%TA.AperFunction,ComponentPad*%
%ADD14C,1.600000*%
%TD*%
%TA.AperFunction,SMDPad,CuDef*%
%ADD15FreePoly1,270.000000*%
%TD*%
%TA.AperFunction,ComponentPad*%
%ADD16FreePoly2,270.000000*%
%TD*%
%TA.AperFunction,ComponentPad*%
%ADD17FreePoly3,270.000000*%
%TD*%
%TA.AperFunction,ViaPad*%
%ADD18C,0.600000*%
%TD*%
%TA.AperFunction,Conductor*%
%ADD19C,0.200000*%
%TD*%
G04 APERTURE END LIST*
D10*
%TO.P,MX29,1,1*%
%TO.N,/COL 12*%
X266700000Y-66675000D03*
%TO.P,MX29,2,2*%
%TO.N,Net-(D29-A)*%
X260350000Y-69215000D03*
%TD*%
%TO.P,MX10,1,1*%
%TO.N,/COL 9*%
X247650000Y-38100000D03*
%TO.P,MX10,2,2*%
%TO.N,Net-(D10-A)*%
X241300000Y-40640000D03*
%TD*%
%TO.P,MX39,1,1*%
%TO.N,/COL 2*%
X85725000Y-85725000D03*
%TO.P,MX39,2,2*%
%TO.N,Net-(D39-A)*%
X79375000Y-88265000D03*
%TD*%
%TO.P,MX31,1,1*%
%TO.N,/COL 14*%
X328612500Y-66675000D03*
%TO.P,MX31,2,2*%
%TO.N,Net-(D31-A)*%
X322262500Y-69215000D03*
%TD*%
%TO.P,MX72,1,1*%
%TO.N,/COL 19*%
X428625000Y-104775000D03*
%TO.P,MX72,2,2*%
%TO.N,Net-(D72-A)*%
X422275000Y-107315000D03*
%TD*%
%TO.P,MX15,1,1*%
%TO.N,/COL 15*%
X347662500Y-38100000D03*
%TO.P,MX15,2,2*%
%TO.N,Net-(D15-A)*%
X341312500Y-40640000D03*
%TD*%
%TO.P,MX48,1,1*%
%TO.N,/COL 11*%
X257175000Y-85725000D03*
%TO.P,MX48,2,2*%
%TO.N,Net-(D48-A)*%
X250825000Y-88265000D03*
%TD*%
%TO.P,MX40,1,1*%
%TO.N,/COL 3*%
X104775000Y-85725000D03*
%TO.P,MX40,2,2*%
%TO.N,Net-(D40-A)*%
X98425000Y-88265000D03*
%TD*%
%TO.P,MX42,1,1*%
%TO.N,/COL 5*%
X142875000Y-85725000D03*
%TO.P,MX42,2,2*%
%TO.N,Net-(D42-A)*%
X136525000Y-88265000D03*
%TD*%
%TO.P,MX24,1,1*%
%TO.N,/COL 7*%
X171450000Y-66675000D03*
%TO.P,MX24,2,2*%
%TO.N,Net-(D24-A)*%
X165100000Y-69215000D03*
%TD*%
%TO.P,MX4,1,1*%
%TO.N,/COL 3*%
X114300000Y-38100000D03*
%TO.P,MX4,2,2*%
%TO.N,Net-(D4-A)*%
X107950000Y-40640000D03*
%TD*%
%TO.P,MX95,1,1*%
%TO.N,/COL 11*%
X254793750Y-142875000D03*
%TO.P,MX95,2,2*%
%TO.N,Net-(D95-A)*%
X248443750Y-145415000D03*
%TD*%
%TO.P,MX35,1,1*%
%TO.N,/COL 18*%
X409575000Y-66675000D03*
%TO.P,MX35,2,2*%
%TO.N,Net-(D35-A)*%
X403225000Y-69215000D03*
%TD*%
D11*
%TO.P,A1,1,GPIO0*%
%TO.N,/COL 0*%
X435850000Y-33940000D03*
D12*
X435850000Y-34740000D03*
D13*
%TO.P,A1,2,GPIO1*%
%TO.N,/COL 1*%
X433310000Y-33940000D03*
D14*
X433310000Y-34740000D03*
D15*
%TO.P,A1,3,GND*%
%TO.N,Net-(A1-GND-Pad13)*%
X430770000Y-33940000D03*
D16*
X430770000Y-34740000D03*
D13*
%TO.P,A1,4,GPIO2*%
%TO.N,/COL 2*%
X428230000Y-33940000D03*
D14*
X428230000Y-34740000D03*
D13*
%TO.P,A1,5,GPIO3*%
%TO.N,/COL 3*%
X425690000Y-33940000D03*
D14*
X425690000Y-34740000D03*
D13*
%TO.P,A1,6,GPIO4*%
%TO.N,/COL 4*%
X423150000Y-33940000D03*
D14*
X423150000Y-34740000D03*
D13*
%TO.P,A1,7,GPIO5*%
%TO.N,/COL 5*%
X420610000Y-33940000D03*
D14*
X420610000Y-34740000D03*
D15*
%TO.P,A1,8,GND*%
%TO.N,Net-(A1-GND-Pad13)*%
X418070000Y-33940000D03*
D16*
X418070000Y-34740000D03*
D13*
%TO.P,A1,9,GPIO6*%
%TO.N,/COL 6*%
X415530000Y-33940000D03*
D14*
X415530000Y-34740000D03*
D13*
%TO.P,A1,10,GPIO7*%
%TO.N,/COL 7*%
X412990000Y-33940000D03*
D14*
X412990000Y-34740000D03*
D13*
%TO.P,A1,11,GPIO8*%
%TO.N,/COL 8*%
X410450000Y-33940000D03*
D14*
X410450000Y-34740000D03*
D13*
%TO.P,A1,12,GPIO9*%
%TO.N,/COL 9*%
X407910000Y-33940000D03*
D14*
X407910000Y-34740000D03*
D15*
%TO.P,A1,13,GND*%
%TO.N,Net-(A1-GND-Pad13)*%
X405370000Y-33940000D03*
D16*
X405370000Y-34740000D03*
D13*
%TO.P,A1,14,GPIO10*%
%TO.N,/COL 10*%
X402830000Y-33940000D03*
D14*
X402830000Y-34740000D03*
D13*
%TO.P,A1,15,GPIO11*%
%TO.N,/COL 11*%
X400290000Y-33940000D03*
D14*
X400290000Y-34740000D03*
D13*
%TO.P,A1,16,GPIO12*%
%TO.N,/COL 12*%
X397750000Y-33940000D03*
D14*
X397750000Y-34740000D03*
D13*
%TO.P,A1,17,GPIO13*%
%TO.N,/COL 13*%
X395210000Y-33940000D03*
D14*
X395210000Y-34740000D03*
D15*
%TO.P,A1,18,GND*%
%TO.N,Net-(A1-GND-Pad13)*%
X392670000Y-33940000D03*
D16*
X392670000Y-34740000D03*
D13*
%TO.P,A1,19,GPIO14*%
%TO.N,/COL 14*%
X390130000Y-33940000D03*
D14*
X390130000Y-34740000D03*
D13*
%TO.P,A1,20,GPIO15*%
%TO.N,/COL 15*%
X387590000Y-33940000D03*
D14*
X387590000Y-34740000D03*
%TO.P,A1,21,GPIO16*%
%TO.N,/COL 16*%
X387590000Y-52520000D03*
D13*
X387590000Y-53320000D03*
D14*
%TO.P,A1,22,GPIO17*%
%TO.N,/COL 17*%
X390130000Y-52520000D03*
D13*
X390130000Y-53320000D03*
D17*
%TO.P,A1,23,GND*%
%TO.N,Net-(A1-GND-Pad13)*%
X392670000Y-52520000D03*
D11*
X392670000Y-53320000D03*
D14*
%TO.P,A1,24,GPIO18*%
%TO.N,/COL 18*%
X395210000Y-52520000D03*
D13*
X395210000Y-53320000D03*
D14*
%TO.P,A1,25,GPIO19*%
%TO.N,/COL 19*%
X397750000Y-52520000D03*
D13*
X397750000Y-53320000D03*
D14*
%TO.P,A1,26,GPIO20*%
%TO.N,/ROW 5*%
X400290000Y-52520000D03*
D13*
X400290000Y-53320000D03*
D14*
%TO.P,A1,27,GPIO21*%
%TO.N,/ROW 0*%
X402830000Y-52520000D03*
D13*
X402830000Y-53320000D03*
D17*
%TO.P,A1,28,GND*%
%TO.N,Net-(A1-GND-Pad13)*%
X405370000Y-52520000D03*
D11*
X405370000Y-53320000D03*
D14*
%TO.P,A1,29,GPIO22*%
%TO.N,/ROW 1*%
X407910000Y-52520000D03*
D13*
X407910000Y-53320000D03*
D14*
%TO.P,A1,30,RUN*%
%TO.N,unconnected-(A1-RUN-Pad30)*%
X410450000Y-52520000D03*
D13*
X410450000Y-53320000D03*
D14*
%TO.P,A1,31,GPIO26_ADC0*%
%TO.N,/ROW 2*%
X412990000Y-52520000D03*
D13*
X412990000Y-53320000D03*
D14*
%TO.P,A1,32,GPIO27_ADC1*%
%TO.N,/ROW 3*%
X415530000Y-52520000D03*
D13*
X415530000Y-53320000D03*
D17*
%TO.P,A1,33,AGND*%
%TO.N,unconnected-(A1-AGND-Pad33)*%
X418070000Y-52520000D03*
D11*
X418070000Y-53320000D03*
D14*
%TO.P,A1,34,GPIO28_ADC2*%
%TO.N,/ROW 4*%
X420610000Y-52520000D03*
D13*
X420610000Y-53320000D03*
D14*
%TO.P,A1,35,ADC_VREF*%
%TO.N,unconnected-(A1-ADC_VREF-Pad35)*%
X423150000Y-52520000D03*
D13*
X423150000Y-53320000D03*
D14*
%TO.P,A1,36,3V3*%
%TO.N,unconnected-(A1-3V3-Pad36)*%
X425690000Y-52520000D03*
D13*
X425690000Y-53320000D03*
D14*
%TO.P,A1,37,3V3_EN*%
%TO.N,unconnected-(A1-3V3_EN-Pad37)*%
X428230000Y-52520000D03*
D13*
X428230000Y-53320000D03*
D17*
%TO.P,A1,38,GND*%
%TO.N,Net-(A1-GND-Pad13)*%
X430770000Y-52520000D03*
D11*
X430770000Y-53320000D03*
D14*
%TO.P,A1,39,VSYS*%
%TO.N,unconnected-(A1-VSYS-Pad39)*%
X433310000Y-52520000D03*
D13*
X433310000Y-53320000D03*
D14*
%TO.P,A1,40,VBUS*%
%TO.N,unconnected-(A1-VBUS-Pad40)*%
X435850000Y-52520000D03*
D13*
X435850000Y-53320000D03*
%TD*%
D10*
%TO.P,MX89,1,1*%
%TO.N,/COL 19*%
X428625000Y-123825000D03*
%TO.P,MX89,2,2*%
%TO.N,Net-(D89-A)*%
X422275000Y-126365000D03*
%TD*%
%TO.P,MX75,1,1*%
%TO.N,/COL 2*%
X80962500Y-123825000D03*
%TO.P,MX75,2,2*%
%TO.N,Net-(D75-A)*%
X74612500Y-126365000D03*
%TD*%
%TO.P,MX63,1,1*%
%TO.N,/COL 6*%
X166687500Y-104775000D03*
%TO.P,MX63,2,2*%
%TO.N,Net-(D63-A)*%
X160337500Y-107315000D03*
%TD*%
%TO.P,MX46,1,1*%
%TO.N,/COL 9*%
X219075000Y-85725000D03*
%TO.P,MX46,2,2*%
%TO.N,Net-(D46-A)*%
X212725000Y-88265000D03*
%TD*%
%TO.P,MX91,1,1*%
%TO.N,/COL 1*%
X64293750Y-142875000D03*
%TO.P,MX91,2,2*%
%TO.N,Net-(D91-A)*%
X57943750Y-145415000D03*
%TD*%
%TO.P,MX23,1,1*%
%TO.N,/COL 6*%
X152400000Y-66675000D03*
%TO.P,MX23,2,2*%
%TO.N,Net-(D23-A)*%
X146050000Y-69215000D03*
%TD*%
%TO.P,MX1,1,1*%
%TO.N,/COL 0*%
X38100000Y-38100000D03*
%TO.P,MX1,2,2*%
%TO.N,Net-(D1-A)*%
X31750000Y-40640000D03*
%TD*%
%TO.P,MX5,1,1*%
%TO.N,/COL 4*%
X133350000Y-38100000D03*
%TO.P,MX5,2,2*%
%TO.N,Net-(D5-A)*%
X127000000Y-40640000D03*
%TD*%
%TO.P,MX98,1,1*%
%TO.N,/COL 14*%
X328612500Y-142875000D03*
%TO.P,MX98,2,2*%
%TO.N,Net-(D98-A)*%
X322262500Y-145415000D03*
%TD*%
%TO.P,MX22,1,1*%
%TO.N,/COL 5*%
X133350000Y-66675000D03*
%TO.P,MX22,2,2*%
%TO.N,Net-(D22-A)*%
X127000000Y-69215000D03*
%TD*%
%TO.P,MX17,1,1*%
%TO.N,/COL 0*%
X38100000Y-66675000D03*
%TO.P,MX17,2,2*%
%TO.N,Net-(D17-A)*%
X31750000Y-69215000D03*
%TD*%
%TO.P,MX62,1,1*%
%TO.N,/COL 5*%
X147637500Y-104775000D03*
%TO.P,MX62,2,2*%
%TO.N,Net-(D62-A)*%
X141287500Y-107315000D03*
%TD*%
%TO.P,MX78,1,1*%
%TO.N,/COL 5*%
X138112500Y-123825000D03*
%TO.P,MX78,2,2*%
%TO.N,Net-(D78-A)*%
X131762500Y-126365000D03*
%TD*%
%TO.P,MX74,1,1*%
%TO.N,/COL 1*%
X61912500Y-123825000D03*
%TO.P,MX74,2,2*%
%TO.N,Net-(D74-A)*%
X55562500Y-126365000D03*
%TD*%
%TO.P,MX93,1,1*%
%TO.N,/COL 5*%
X159543750Y-142875000D03*
%TO.P,MX93,2,2*%
%TO.N,Net-(D93-A)*%
X153193750Y-145415000D03*
%TD*%
%TO.P,MX25,1,1*%
%TO.N,/COL 8*%
X190500000Y-66675000D03*
%TO.P,MX25,2,2*%
%TO.N,Net-(D25-A)*%
X184150000Y-69215000D03*
%TD*%
%TO.P,MX55,1,1*%
%TO.N,/COL 18*%
X409575000Y-85725000D03*
%TO.P,MX55,2,2*%
%TO.N,Net-(D55-A)*%
X403225000Y-88265000D03*
%TD*%
%TO.P,MX59,1,1*%
%TO.N,/COL 2*%
X90487500Y-104775000D03*
%TO.P,MX59,2,2*%
%TO.N,Net-(D59-A)*%
X84137500Y-107315000D03*
%TD*%
%TO.P,MX81,1,1*%
%TO.N,/COL 8*%
X195262500Y-123825000D03*
%TO.P,MX81,2,2*%
%TO.N,Net-(D81-A)*%
X188912500Y-126365000D03*
%TD*%
%TO.P,MX26,1,1*%
%TO.N,/COL 9*%
X209550000Y-66675000D03*
%TO.P,MX26,2,2*%
%TO.N,Net-(D26-A)*%
X203200000Y-69215000D03*
%TD*%
%TO.P,MX79,1,1*%
%TO.N,/COL 6*%
X157162500Y-123825000D03*
%TO.P,MX79,2,2*%
%TO.N,Net-(D79-A)*%
X150812500Y-126365000D03*
%TD*%
%TO.P,MX11,1,1*%
%TO.N,/COL 10*%
X266700000Y-38100000D03*
%TO.P,MX11,2,2*%
%TO.N,Net-(D11-A)*%
X260350000Y-40640000D03*
%TD*%
%TO.P,MX32,1,1*%
%TO.N,/COL 15*%
X347662500Y-66675000D03*
%TO.P,MX32,2,2*%
%TO.N,Net-(D32-A)*%
X341312500Y-69215000D03*
%TD*%
%TO.P,MX49,1,1*%
%TO.N,/COL 12*%
X276225000Y-85725000D03*
%TO.P,MX49,2,2*%
%TO.N,Net-(D49-A)*%
X269875000Y-88265000D03*
%TD*%
%TO.P,MX27,1,1*%
%TO.N,/COL 10*%
X228600000Y-66675000D03*
%TO.P,MX27,2,2*%
%TO.N,Net-(D27-A)*%
X222250000Y-69215000D03*
%TD*%
%TO.P,MX44,1,1*%
%TO.N,/COL 7*%
X180975000Y-85725000D03*
%TO.P,MX44,2,2*%
%TO.N,Net-(D44-A)*%
X174625000Y-88265000D03*
%TD*%
%TO.P,MX41,1,1*%
%TO.N,/COL 4*%
X123825000Y-85725000D03*
%TO.P,MX41,2,2*%
%TO.N,Net-(D41-A)*%
X117475000Y-88265000D03*
%TD*%
%TO.P,MX96,1,1*%
%TO.N,/COL 12*%
X278606250Y-142875000D03*
%TO.P,MX96,2,2*%
%TO.N,Net-(D96-A)*%
X272256250Y-145415000D03*
%TD*%
%TO.P,MX86,1,1*%
%TO.N,/COL 15*%
X347662500Y-123825000D03*
%TO.P,MX86,2,2*%
%TO.N,Net-(D86-A)*%
X341312500Y-126365000D03*
%TD*%
%TO.P,MX85,1,1*%
%TO.N,/COL 12*%
X288131250Y-123825000D03*
%TO.P,MX85,2,2*%
%TO.N,Net-(D85-A)*%
X281781250Y-126365000D03*
%TD*%
%TO.P,MX71,1,1*%
%TO.N,/COL 18*%
X409575000Y-104775000D03*
%TO.P,MX71,2,2*%
%TO.N,Net-(D71-A)*%
X403225000Y-107315000D03*
%TD*%
%TO.P,MX101,1,1*%
%TO.N,/COL 17*%
X400050000Y-142875000D03*
%TO.P,MX101,2,2*%
%TO.N,Net-(D101-A)*%
X393700000Y-145415000D03*
%TD*%
%TO.P,MX64,1,1*%
%TO.N,/COL 7*%
X185737500Y-104775000D03*
%TO.P,MX64,2,2*%
%TO.N,Net-(D64-A)*%
X179387500Y-107315000D03*
%TD*%
%TO.P,MX56,1,1*%
%TO.N,/COL 19*%
X428625000Y-85725000D03*
%TO.P,MX56,2,2*%
%TO.N,Net-(D56-A)*%
X422275000Y-88265000D03*
%TD*%
%TO.P,MX18,1,1*%
%TO.N,/COL 1*%
X57150000Y-66675000D03*
%TO.P,MX18,2,2*%
%TO.N,Net-(D18-A)*%
X50800000Y-69215000D03*
%TD*%
%TO.P,MX80,1,1*%
%TO.N,/COL 7*%
X176212500Y-123825000D03*
%TO.P,MX80,2,2*%
%TO.N,Net-(D80-A)*%
X169862500Y-126365000D03*
%TD*%
%TO.P,MX6,1,1*%
%TO.N,/COL 5*%
X161925000Y-38100000D03*
%TO.P,MX6,2,2*%
%TO.N,Net-(D6-A)*%
X155575000Y-40640000D03*
%TD*%
%TO.P,MX53,1,1*%
%TO.N,/COL 16*%
X366712500Y-85725000D03*
%TO.P,MX53,2,2*%
%TO.N,Net-(D53-A)*%
X360362500Y-88265000D03*
%TD*%
%TO.P,MX12,1,1*%
%TO.N,/COL 11*%
X285750000Y-38100000D03*
%TO.P,MX12,2,2*%
%TO.N,Net-(D12-A)*%
X279400000Y-40640000D03*
%TD*%
%TO.P,MX94,1,1*%
%TO.N,/COL 10*%
X230981250Y-142875000D03*
%TO.P,MX94,2,2*%
%TO.N,Net-(D94-A)*%
X224631250Y-145415000D03*
%TD*%
%TO.P,MX30,1,1*%
%TO.N,/COL 13*%
X295275000Y-66675000D03*
%TO.P,MX30,2,2*%
%TO.N,Net-(D30-A)*%
X288925000Y-69215000D03*
%TD*%
%TO.P,MX47,1,1*%
%TO.N,/COL 10*%
X238125000Y-85725000D03*
%TO.P,MX47,2,2*%
%TO.N,Net-(D47-A)*%
X231775000Y-88265000D03*
%TD*%
%TO.P,MX82,1,1*%
%TO.N,/COL 9*%
X214312500Y-123825000D03*
%TO.P,MX82,2,2*%
%TO.N,Net-(D82-A)*%
X207962500Y-126365000D03*
%TD*%
%TO.P,MX50,1,1*%
%TO.N,/COL 13*%
X302418750Y-95250000D03*
%TO.P,MX50,2,2*%
%TO.N,Net-(D50-A)*%
X296068750Y-97790000D03*
%TD*%
%TO.P,MX73,1,1*%
%TO.N,/COL 0*%
X40481250Y-123825000D03*
%TO.P,MX73,2,2*%
%TO.N,Net-(D73-A)*%
X34131250Y-126365000D03*
%TD*%
%TO.P,MX92,1,1*%
%TO.N,/COL 2*%
X88106250Y-142875000D03*
%TO.P,MX92,2,2*%
%TO.N,Net-(D92-A)*%
X81756250Y-145415000D03*
%TD*%
%TO.P,MX69,1,1*%
%TO.N,/COL 12*%
X280987500Y-104775000D03*
%TO.P,MX69,2,2*%
%TO.N,Net-(D69-A)*%
X274637500Y-107315000D03*
%TD*%
%TO.P,MX37,1,1*%
%TO.N,/COL 0*%
X42862500Y-85725000D03*
%TO.P,MX37,2,2*%
%TO.N,Net-(D37-A)*%
X36512500Y-88265000D03*
%TD*%
%TO.P,MX60,1,1*%
%TO.N,/COL 3*%
X109537500Y-104775000D03*
%TO.P,MX60,2,2*%
%TO.N,Net-(D60-A)*%
X103187500Y-107315000D03*
%TD*%
%TO.P,MX77,1,1*%
%TO.N,/COL 4*%
X119062500Y-123825000D03*
%TO.P,MX77,2,2*%
%TO.N,Net-(D77-A)*%
X112712500Y-126365000D03*
%TD*%
%TO.P,MX52,1,1*%
%TO.N,/COL 15*%
X347662500Y-85725000D03*
%TO.P,MX52,2,2*%
%TO.N,Net-(D52-A)*%
X341312500Y-88265000D03*
%TD*%
%TO.P,MX28,1,1*%
%TO.N,/COL 11*%
X247650000Y-66675000D03*
%TO.P,MX28,2,2*%
%TO.N,Net-(D28-A)*%
X241300000Y-69215000D03*
%TD*%
%TO.P,MX97,1,1*%
%TO.N,/COL 13*%
X302418750Y-142875000D03*
%TO.P,MX97,2,2*%
%TO.N,Net-(D97-A)*%
X296068750Y-145415000D03*
%TD*%
%TO.P,MX76,1,1*%
%TO.N,/COL 3*%
X100012500Y-123825000D03*
%TO.P,MX76,2,2*%
%TO.N,Net-(D76-A)*%
X93662500Y-126365000D03*
%TD*%
%TO.P,MX8,1,1*%
%TO.N,/COL 7*%
X200025000Y-38100000D03*
%TO.P,MX8,2,2*%
%TO.N,Net-(D8-A)*%
X193675000Y-40640000D03*
%TD*%
%TO.P,MX2,1,1*%
%TO.N,/COL 1*%
X76200000Y-38100000D03*
%TO.P,MX2,2,2*%
%TO.N,Net-(D2-A)*%
X69850000Y-40640000D03*
%TD*%
%TO.P,MX43,1,1*%
%TO.N,/COL 6*%
X161925000Y-85725000D03*
%TO.P,MX43,2,2*%
%TO.N,Net-(D43-A)*%
X155575000Y-88265000D03*
%TD*%
%TO.P,MX33,1,1*%
%TO.N,/COL 16*%
X366712500Y-66675000D03*
%TO.P,MX33,2,2*%
%TO.N,Net-(D33-A)*%
X360362500Y-69215000D03*
%TD*%
%TO.P,MX58,1,1*%
%TO.N,/COL 1*%
X71437500Y-104775000D03*
%TO.P,MX58,2,2*%
%TO.N,Net-(D58-A)*%
X65087500Y-107315000D03*
%TD*%
%TO.P,MX61,1,1*%
%TO.N,/COL 4*%
X128587500Y-104775000D03*
%TO.P,MX61,2,2*%
%TO.N,Net-(D61-A)*%
X122237500Y-107315000D03*
%TD*%
%TO.P,MX88,1,1*%
%TO.N,/COL 18*%
X409575000Y-123825000D03*
%TO.P,MX88,2,2*%
%TO.N,Net-(D88-A)*%
X403225000Y-126365000D03*
%TD*%
%TO.P,MX99,1,1*%
%TO.N,/COL 15*%
X347662500Y-142875000D03*
%TO.P,MX99,2,2*%
%TO.N,Net-(D99-A)*%
X341312500Y-145415000D03*
%TD*%
%TO.P,MX66,1,1*%
%TO.N,/COL 9*%
X223837500Y-104775000D03*
%TO.P,MX66,2,2*%
%TO.N,Net-(D66-A)*%
X217487500Y-107315000D03*
%TD*%
%TO.P,MX38,1,1*%
%TO.N,/COL 1*%
X66675000Y-85725000D03*
%TO.P,MX38,2,2*%
%TO.N,Net-(D38-A)*%
X60325000Y-88265000D03*
%TD*%
%TO.P,MX70,1,1*%
%TO.N,/COL 17*%
X390525000Y-104775000D03*
%TO.P,MX70,2,2*%
%TO.N,Net-(D70-A)*%
X384175000Y-107315000D03*
%TD*%
%TO.P,MX16,1,1*%
%TO.N,/COL 16*%
X366712500Y-38100000D03*
%TO.P,MX16,2,2*%
%TO.N,Net-(D16-A)*%
X360362500Y-40640000D03*
%TD*%
%TO.P,MX20,1,1*%
%TO.N,/COL 3*%
X95250000Y-66675000D03*
%TO.P,MX20,2,2*%
%TO.N,Net-(D20-A)*%
X88900000Y-69215000D03*
%TD*%
%TO.P,MX83,1,1*%
%TO.N,/COL 10*%
X233362500Y-123825000D03*
%TO.P,MX83,2,2*%
%TO.N,Net-(D83-A)*%
X227012500Y-126365000D03*
%TD*%
%TO.P,MX102,1,1*%
%TO.N,/COL 19*%
X428625000Y-142875000D03*
%TO.P,MX102,2,2*%
%TO.N,Net-(D102-A)*%
X422275000Y-145415000D03*
%TD*%
%TO.P,MX90,1,1*%
%TO.N,/COL 0*%
X40481250Y-142875000D03*
%TO.P,MX90,2,2*%
%TO.N,Net-(D90-A)*%
X34131250Y-145415000D03*
%TD*%
%TO.P,MX100,1,1*%
%TO.N,/COL 16*%
X366712500Y-142875000D03*
%TO.P,MX100,2,2*%
%TO.N,Net-(D100-A)*%
X360362500Y-145415000D03*
%TD*%
%TO.P,MX54,1,1*%
%TO.N,/COL 17*%
X390525000Y-85725000D03*
%TO.P,MX54,2,2*%
%TO.N,Net-(D54-A)*%
X384175000Y-88265000D03*
%TD*%
%TO.P,MX13,1,1*%
%TO.N,/COL 13*%
X304800000Y-38100000D03*
%TO.P,MX13,2,2*%
%TO.N,Net-(D13-A)*%
X298450000Y-40640000D03*
%TD*%
%TO.P,MX34,1,1*%
%TO.N,/COL 17*%
X390525000Y-66675000D03*
%TO.P,MX34,2,2*%
%TO.N,Net-(D34-A)*%
X384175000Y-69215000D03*
%TD*%
%TO.P,MX87,1,1*%
%TO.N,/COL 17*%
X390525000Y-123825000D03*
%TO.P,MX87,2,2*%
%TO.N,Net-(D87-A)*%
X384175000Y-126365000D03*
%TD*%
%TO.P,MX3,1,1*%
%TO.N,/COL 2*%
X95250000Y-38100000D03*
%TO.P,MX3,2,2*%
%TO.N,Net-(D3-A)*%
X88900000Y-40640000D03*
%TD*%
%TO.P,MX67,1,1*%
%TO.N,/COL 10*%
X242887500Y-104775000D03*
%TO.P,MX67,2,2*%
%TO.N,Net-(D67-A)*%
X236537500Y-107315000D03*
%TD*%
%TO.P,MX57,1,1*%
%TO.N,/COL 0*%
X45243750Y-104775000D03*
%TO.P,MX57,2,2*%
%TO.N,Net-(D57-A)*%
X38893750Y-107315000D03*
%TD*%
%TO.P,MX14,1,1*%
%TO.N,/COL 14*%
X328612500Y-38100000D03*
%TO.P,MX14,2,2*%
%TO.N,Net-(D14-A)*%
X322262500Y-40640000D03*
%TD*%
%TO.P,MX68,1,1*%
%TO.N,/COL 11*%
X261937500Y-104775000D03*
%TO.P,MX68,2,2*%
%TO.N,Net-(D68-A)*%
X255587500Y-107315000D03*
%TD*%
%TO.P,MX36,1,1*%
%TO.N,/COL 19*%
X428625000Y-66675000D03*
%TO.P,MX36,2,2*%
%TO.N,Net-(D36-A)*%
X422275000Y-69215000D03*
%TD*%
%TO.P,MX9,1,1*%
%TO.N,/COL 8*%
X219075000Y-38100000D03*
%TO.P,MX9,2,2*%
%TO.N,Net-(D9-A)*%
X212725000Y-40640000D03*
%TD*%
%TO.P,MX21,1,1*%
%TO.N,/COL 4*%
X114300000Y-66675000D03*
%TO.P,MX21,2,2*%
%TO.N,Net-(D21-A)*%
X107950000Y-69215000D03*
%TD*%
%TO.P,MX7,1,1*%
%TO.N,/COL 6*%
X180975000Y-38100000D03*
%TO.P,MX7,2,2*%
%TO.N,Net-(D7-A)*%
X174625000Y-40640000D03*
%TD*%
%TO.P,MX84,1,1*%
%TO.N,/COL 11*%
X252412500Y-123825000D03*
%TO.P,MX84,2,2*%
%TO.N,Net-(D84-A)*%
X246062500Y-126365000D03*
%TD*%
%TO.P,MX45,1,1*%
%TO.N,/COL 8*%
X200025000Y-85725000D03*
%TO.P,MX45,2,2*%
%TO.N,Net-(D45-A)*%
X193675000Y-88265000D03*
%TD*%
%TO.P,MX51,1,1*%
%TO.N,/COL 14*%
X328612500Y-85725000D03*
%TO.P,MX51,2,2*%
%TO.N,Net-(D51-A)*%
X322262500Y-88265000D03*
%TD*%
%TO.P,MX65,1,1*%
%TO.N,/COL 8*%
X204787500Y-104775000D03*
%TO.P,MX65,2,2*%
%TO.N,Net-(D65-A)*%
X198437500Y-107315000D03*
%TD*%
%TO.P,MX19,1,1*%
%TO.N,/COL 2*%
X76200000Y-66675000D03*
%TO.P,MX19,2,2*%
%TO.N,Net-(D19-A)*%
X69850000Y-69215000D03*
%TD*%
D18*
%TO.N,Net-(A1-GND-Pad13)*%
X395287500Y-50006250D03*
%TO.N,/ROW 5*%
X431090000Y-59920000D03*
%TD*%
D19*
%TO.N,/COL 16*%
X366712500Y-85725000D02*
X366712500Y-142875000D01*
X380067500Y-53320000D02*
X366712500Y-66675000D01*
X366712500Y-66675000D02*
X366712500Y-85725000D01*
X387590000Y-53320000D02*
X380067500Y-53320000D01*
X380067500Y-53320000D02*
X366712500Y-66675000D01*
X366712500Y-66675000D02*
X366712500Y-85725000D01*
X366712500Y-38100000D02*
X373170000Y-38100000D01*
X366712500Y-38100000D02*
X373170000Y-38100000D01*
X366712500Y-66675000D02*
X366712500Y-85725000D01*
X366712500Y-85725000D02*
X366712500Y-142875000D01*
X366712500Y-66675000D02*
X366712500Y-38100000D01*
X366712500Y-38100000D02*
X366712500Y-66675000D01*
X366712500Y-85725000D02*
X366712500Y-142875000D01*
X366712500Y-85725000D02*
X366712500Y-142875000D01*
X373170000Y-38100000D02*
X387590000Y-52520000D01*
X373170000Y-38100000D02*
X387590000Y-52520000D01*
X387590000Y-53320000D02*
X380067500Y-53320000D01*
X366712500Y-66675000D02*
X366712500Y-85725000D01*
%TO.N,/COL 18*%
X409575000Y-66675000D02*
X409575000Y-85725000D01*
X395210000Y-53320000D02*
X408565000Y-66675000D01*
X409575000Y-66675000D02*
X409575000Y-85725000D01*
X395210000Y-53320000D02*
X408565000Y-66675000D01*
X409575000Y-104775000D02*
X409575000Y-123825000D01*
X409575000Y-104775000D02*
X409575000Y-123825000D01*
X409575000Y-85725000D02*
X409575000Y-104775000D01*
X409575000Y-66675000D02*
X409575000Y-85725000D01*
X409575000Y-85725000D02*
X409575000Y-104775000D01*
X409575000Y-66675000D02*
X409575000Y-85725000D01*
X408565000Y-66675000D02*
X409575000Y-66675000D01*
X409575000Y-104775000D02*
X409575000Y-123825000D01*
X408565000Y-66675000D02*
X409575000Y-66675000D01*
X409575000Y-104775000D02*
X409575000Y-123825000D01*
X409575000Y-85725000D02*
X409575000Y-104775000D01*
X409575000Y-85725000D02*
X409575000Y-104775000D01*
%TO.N,/COL 6*%
X166687500Y-104775000D02*
X166687500Y-114300000D01*
X152400000Y-76200000D02*
X161925000Y-85725000D01*
X161925000Y-85725000D02*
X161925000Y-100012500D01*
X161925000Y-100012500D02*
X166687500Y-104775000D01*
X166687500Y-114300000D02*
X157162500Y-123825000D01*
X161925000Y-100012500D02*
X166687500Y-104775000D01*
X180975000Y-38100000D02*
X190244000Y-28831000D01*
X152400000Y-66675000D02*
X152400000Y-76200000D01*
X161925000Y-100012500D02*
X166687500Y-104775000D01*
X152400000Y-66675000D02*
X152400000Y-65890184D01*
X152400000Y-66675000D02*
X152400000Y-76200000D01*
X161925000Y-85725000D02*
X161925000Y-100012500D01*
X166687500Y-104775000D02*
X166687500Y-114300000D01*
X166687500Y-114300000D02*
X157162500Y-123825000D01*
X190244000Y-28831000D02*
X410752370Y-28831000D01*
X180190184Y-38100000D02*
X180975000Y-38100000D01*
X161925000Y-100012500D02*
X166687500Y-104775000D01*
X152400000Y-76200000D02*
X161925000Y-85725000D01*
X166687500Y-104775000D02*
X166687500Y-114300000D01*
X152400000Y-65890184D02*
X180190184Y-38100000D01*
X166687500Y-114300000D02*
X157162500Y-123825000D01*
X152400000Y-76200000D02*
X161925000Y-85725000D01*
X410752370Y-28831000D02*
X415530000Y-33608630D01*
X166687500Y-114300000D02*
X157162500Y-123825000D01*
X161925000Y-85725000D02*
X161925000Y-100012500D01*
X415530000Y-33608630D02*
X415530000Y-34740000D01*
X152400000Y-76200000D02*
X161925000Y-85725000D01*
X166687500Y-104775000D02*
X166687500Y-114300000D01*
X152400000Y-66675000D02*
X152400000Y-76200000D01*
X152400000Y-66675000D02*
X152400000Y-76200000D01*
X161925000Y-85725000D02*
X161925000Y-100012500D01*
%TO.N,Net-(A1-GND-Pad13)*%
X395287500Y-50006250D02*
X395287500Y-50305336D01*
X393072836Y-52520000D02*
X392670000Y-52520000D01*
X395287500Y-50305336D02*
X393072836Y-52520000D01*
%TO.N,/COL 0*%
X38100000Y-38100000D02*
X38100000Y-66675000D01*
X42862500Y-102393750D02*
X45243750Y-104775000D01*
X38100000Y-80962500D02*
X42862500Y-85725000D01*
X42862500Y-85725000D02*
X42862500Y-102393750D01*
X40481250Y-123825000D02*
X40481250Y-142875000D01*
X38100000Y-38100000D02*
X52750000Y-23450000D01*
X38100000Y-66675000D02*
X38100000Y-80962500D01*
X42862500Y-102393750D02*
X45243750Y-104775000D01*
X38100000Y-80962500D02*
X42862500Y-85725000D01*
X45243750Y-104775000D02*
X45243750Y-119062500D01*
X42862500Y-85725000D02*
X42862500Y-102393750D01*
X42862500Y-102393750D02*
X45243750Y-104775000D01*
X38100000Y-80962500D02*
X42862500Y-85725000D01*
X38100000Y-66675000D02*
X38100000Y-80962500D01*
X52750000Y-23450000D02*
X425360000Y-23450000D01*
X45243750Y-119062500D02*
X40481250Y-123825000D01*
X38100000Y-38100000D02*
X38100000Y-66675000D01*
X425360000Y-23450000D02*
X435850000Y-33940000D01*
X40481250Y-123825000D02*
X40481250Y-142875000D01*
X38100000Y-80962500D02*
X42862500Y-85725000D01*
X45243750Y-104775000D02*
X45243750Y-119062500D01*
X38100000Y-38100000D02*
X38100000Y-66675000D01*
X45243750Y-119062500D02*
X40481250Y-123825000D01*
X40481250Y-123825000D02*
X40481250Y-142875000D01*
X435850000Y-33940000D02*
X435850000Y-34740000D01*
X38100000Y-66675000D02*
X38100000Y-80962500D01*
X38100000Y-38100000D02*
X38100000Y-66675000D01*
X42862500Y-85725000D02*
X42862500Y-102393750D01*
X45243750Y-119062500D02*
X40481250Y-123825000D01*
X45243750Y-104775000D02*
X45243750Y-119062500D01*
X40481250Y-123825000D02*
X40481250Y-142875000D01*
X45243750Y-119062500D02*
X40481250Y-123825000D01*
X42862500Y-102393750D02*
X45243750Y-104775000D01*
X38100000Y-66675000D02*
X38100000Y-80962500D01*
X42862500Y-85725000D02*
X42862500Y-102393750D01*
X45243750Y-104775000D02*
X45243750Y-119062500D01*
%TO.N,/COL 3*%
X109537500Y-104775000D02*
X109537500Y-114300000D01*
X109537500Y-114300000D02*
X100012500Y-123825000D01*
X114300000Y-47625000D02*
X114300000Y-38100000D01*
X104775000Y-100012500D02*
X109537500Y-104775000D01*
X95250000Y-66675000D02*
X95250000Y-76200000D01*
X95250000Y-66675000D02*
X114300000Y-47625000D01*
X95250000Y-76200000D02*
X104775000Y-85725000D01*
X114300000Y-47625000D02*
X114300000Y-38100000D01*
X104775000Y-100012500D02*
X109537500Y-104775000D01*
X109537500Y-114300000D02*
X100012500Y-123825000D01*
X95250000Y-66675000D02*
X95250000Y-76200000D01*
X125342000Y-27058000D02*
X418808000Y-27058000D01*
X418808000Y-27058000D02*
X425690000Y-33940000D01*
X109537500Y-104775000D02*
X109537500Y-114300000D01*
X104775000Y-100012500D02*
X109537500Y-104775000D01*
X95250000Y-66675000D02*
X95250000Y-76200000D01*
X95250000Y-66675000D02*
X114300000Y-47625000D01*
X114300000Y-47625000D02*
X114300000Y-38100000D01*
X104775000Y-85725000D02*
X104775000Y-100012500D01*
X109537500Y-114300000D02*
X100012500Y-123825000D01*
X109537500Y-104775000D02*
X109537500Y-114300000D01*
X95250000Y-66675000D02*
X114300000Y-47625000D01*
X114300000Y-47625000D02*
X114300000Y-38100000D01*
X95250000Y-66675000D02*
X95250000Y-76200000D01*
X104775000Y-85725000D02*
X104775000Y-100012500D01*
X95250000Y-76200000D02*
X104775000Y-85725000D01*
X104775000Y-100012500D02*
X109537500Y-104775000D01*
X114300000Y-38100000D02*
X125342000Y-27058000D01*
X104775000Y-85725000D02*
X104775000Y-100012500D01*
X109537500Y-104775000D02*
X109537500Y-114300000D01*
X109537500Y-114300000D02*
X100012500Y-123825000D01*
X95250000Y-66675000D02*
X114300000Y-47625000D01*
X95250000Y-76200000D02*
X104775000Y-85725000D01*
X95250000Y-76200000D02*
X104775000Y-85725000D01*
X104775000Y-85725000D02*
X104775000Y-100012500D01*
%TO.N,/COL 19*%
X428625000Y-123825000D02*
X428625000Y-142875000D01*
X428625000Y-104775000D02*
X428625000Y-123825000D01*
X428625000Y-85725000D02*
X428625000Y-104775000D01*
X428625000Y-104775000D02*
X428625000Y-123825000D01*
X428625000Y-123825000D02*
X428625000Y-142875000D01*
X428625000Y-123825000D02*
X428625000Y-142875000D01*
X428625000Y-123825000D02*
X428625000Y-142875000D01*
X428625000Y-85725000D02*
X428625000Y-104775000D01*
X428625000Y-104775000D02*
X428625000Y-123825000D01*
X428625000Y-104775000D02*
X428625000Y-123825000D01*
X428625000Y-66675000D02*
X428625000Y-85725000D01*
X428625000Y-85725000D02*
X428625000Y-104775000D01*
X428625000Y-66675000D02*
X428625000Y-85725000D01*
X428625000Y-66675000D02*
X428625000Y-85725000D01*
X428625000Y-85725000D02*
X428625000Y-104775000D01*
X428625000Y-66675000D02*
X428625000Y-85725000D01*
%TO.N,/COL 17*%
X390525000Y-104775000D02*
X390525000Y-123825000D01*
X390525000Y-85725000D02*
X390525000Y-104775000D01*
X390525000Y-133350000D02*
X400050000Y-142875000D01*
X390525000Y-123825000D02*
X390525000Y-133350000D01*
X390525000Y-66675000D02*
X390525000Y-85725000D01*
X390525000Y-104775000D02*
X390525000Y-123825000D01*
X390525000Y-104775000D02*
X390525000Y-123825000D01*
X390525000Y-104775000D02*
X390525000Y-123825000D01*
X390130000Y-66280000D02*
X390525000Y-66675000D01*
X390525000Y-85725000D02*
X390525000Y-104775000D01*
X390525000Y-66675000D02*
X390525000Y-85725000D01*
X390130000Y-53320000D02*
X390130000Y-66280000D01*
X390525000Y-66675000D02*
X390525000Y-85725000D01*
X390525000Y-85725000D02*
X390525000Y-104775000D01*
X390525000Y-133350000D02*
X400050000Y-142875000D01*
X390525000Y-123825000D02*
X390525000Y-133350000D01*
X390525000Y-123825000D02*
X390525000Y-133350000D01*
X390130000Y-66280000D02*
X390525000Y-66675000D01*
X390525000Y-133350000D02*
X400050000Y-142875000D01*
X390525000Y-133350000D02*
X400050000Y-142875000D01*
X390525000Y-123825000D02*
X390525000Y-133350000D01*
X390525000Y-66675000D02*
X390525000Y-85725000D01*
X390130000Y-53320000D02*
X390130000Y-66280000D01*
X390525000Y-85725000D02*
X390525000Y-104775000D01*
%TO.N,/COL 7*%
X171450000Y-66675000D02*
X171450000Y-76200000D01*
X171450000Y-66675000D02*
X171450000Y-76200000D01*
X412990000Y-33608630D02*
X412990000Y-34740000D01*
X180975000Y-100012500D02*
X185737500Y-104775000D01*
X185737500Y-114300000D02*
X176212500Y-123825000D01*
X180975000Y-85725000D02*
X180975000Y-100012500D01*
X185737500Y-104775000D02*
X185737500Y-114300000D01*
X171450000Y-65890184D02*
X199240184Y-38100000D01*
X185737500Y-104775000D02*
X185737500Y-114300000D01*
X171450000Y-76200000D02*
X180975000Y-85725000D01*
X180975000Y-100012500D02*
X185737500Y-104775000D01*
X185737500Y-114300000D02*
X176212500Y-123825000D01*
X185737500Y-114300000D02*
X176212500Y-123825000D01*
X408613370Y-29232000D02*
X412990000Y-33608630D01*
X171450000Y-76200000D02*
X180975000Y-85725000D01*
X180975000Y-85725000D02*
X180975000Y-100012500D01*
X185737500Y-104775000D02*
X185737500Y-114300000D01*
X185737500Y-104775000D02*
X185737500Y-114300000D01*
X180975000Y-100012500D02*
X185737500Y-104775000D01*
X171450000Y-66675000D02*
X171450000Y-65890184D01*
X171450000Y-76200000D02*
X180975000Y-85725000D01*
X171450000Y-66675000D02*
X171450000Y-76200000D01*
X180975000Y-85725000D02*
X180975000Y-100012500D01*
X180975000Y-100012500D02*
X185737500Y-104775000D01*
X180975000Y-85725000D02*
X180975000Y-100012500D01*
X171450000Y-66675000D02*
X171450000Y-76200000D01*
X199240184Y-38100000D02*
X200025000Y-38100000D01*
X185737500Y-114300000D02*
X176212500Y-123825000D01*
X171450000Y-76200000D02*
X180975000Y-85725000D01*
X208893000Y-29232000D02*
X408613370Y-29232000D01*
X200025000Y-38100000D02*
X208893000Y-29232000D01*
%TO.N,/COL 10*%
X257175000Y-38100000D02*
X266700000Y-38100000D01*
X233362500Y-140493750D02*
X230981250Y-142875000D01*
X228600000Y-66675000D02*
X228600000Y-76200000D01*
X238125000Y-100012500D02*
X242887500Y-104775000D01*
X399656370Y-30435000D02*
X402830000Y-33608630D01*
X228600000Y-66675000D02*
X257175000Y-38100000D01*
X233362500Y-140493750D02*
X230981250Y-142875000D01*
X257175000Y-38100000D02*
X266700000Y-38100000D01*
X228600000Y-66675000D02*
X228600000Y-76200000D01*
X228600000Y-66675000D02*
X257175000Y-38100000D01*
X233362500Y-123825000D02*
X233362500Y-140493750D01*
X266700000Y-38100000D02*
X274365000Y-30435000D01*
X228600000Y-76200000D02*
X238125000Y-85725000D01*
X233362500Y-123825000D02*
X233362500Y-140493750D01*
X242887500Y-114300000D02*
X233362500Y-123825000D01*
X228600000Y-66675000D02*
X228600000Y-76200000D01*
X274365000Y-30435000D02*
X399656370Y-30435000D01*
X228600000Y-76200000D02*
X238125000Y-85725000D01*
X238125000Y-100012500D02*
X242887500Y-104775000D01*
X402830000Y-33608630D02*
X402830000Y-34740000D01*
X238125000Y-100012500D02*
X242887500Y-104775000D01*
X242887500Y-114300000D02*
X233362500Y-123825000D01*
X242887500Y-114300000D02*
X233362500Y-123825000D01*
X257175000Y-38100000D02*
X266700000Y-38100000D01*
X238125000Y-85725000D02*
X238125000Y-100012500D01*
X242887500Y-114300000D02*
X233362500Y-123825000D01*
X228600000Y-66675000D02*
X228600000Y-76200000D01*
X238125000Y-85725000D02*
X238125000Y-100012500D01*
X238125000Y-85725000D02*
X238125000Y-100012500D01*
X242887500Y-104775000D02*
X242887500Y-114300000D01*
X233362500Y-140493750D02*
X230981250Y-142875000D01*
X228600000Y-66675000D02*
X257175000Y-38100000D01*
X233362500Y-123825000D02*
X233362500Y-140493750D01*
X238125000Y-100012500D02*
X242887500Y-104775000D01*
X233362500Y-140493750D02*
X230981250Y-142875000D01*
X228600000Y-76200000D02*
X238125000Y-85725000D01*
X257175000Y-38100000D02*
X266700000Y-38100000D01*
X228600000Y-76200000D02*
X238125000Y-85725000D01*
X242887500Y-104775000D02*
X242887500Y-114300000D01*
X238125000Y-85725000D02*
X238125000Y-100012500D01*
X242887500Y-104775000D02*
X242887500Y-114300000D01*
X228600000Y-66675000D02*
X257175000Y-38100000D01*
X233362500Y-123825000D02*
X233362500Y-140493750D01*
X242887500Y-104775000D02*
X242887500Y-114300000D01*
%TO.N,/COL 15*%
X347662500Y-38100000D02*
X347662500Y-66675000D01*
X347662500Y-38100000D02*
X347662500Y-66675000D01*
X347662500Y-85725000D02*
X347662500Y-123825000D01*
X347662500Y-38100000D02*
X351022500Y-34740000D01*
X347662500Y-66675000D02*
X347662500Y-85725000D01*
X347662500Y-66675000D02*
X347662500Y-85725000D01*
X347662500Y-123825000D02*
X347662500Y-142875000D01*
X347662500Y-123825000D02*
X347662500Y-142875000D01*
X347662500Y-66675000D02*
X347662500Y-85725000D01*
X347662500Y-85725000D02*
X347662500Y-123825000D01*
X351022500Y-34740000D02*
X387590000Y-34740000D01*
X347662500Y-38100000D02*
X347662500Y-66675000D01*
X347662500Y-85725000D02*
X347662500Y-123825000D01*
X347662500Y-66675000D02*
X347662500Y-38100000D01*
X347662500Y-85725000D02*
X347662500Y-123825000D01*
X347662500Y-123825000D02*
X347662500Y-142875000D01*
X347662500Y-38100000D02*
X351022500Y-34740000D01*
X347662500Y-123825000D02*
X347662500Y-142875000D01*
X347662500Y-66675000D02*
X347662500Y-85725000D01*
X351022500Y-34740000D02*
X387590000Y-34740000D01*
%TO.N,/COL 14*%
X328612500Y-85725000D02*
X328612500Y-142875000D01*
X328612500Y-66675000D02*
X328612500Y-85725000D01*
X328612500Y-85725000D02*
X328612500Y-142875000D01*
X328612500Y-85725000D02*
X328612500Y-142875000D01*
X328612500Y-66675000D02*
X328612500Y-85725000D01*
X328612500Y-38100000D02*
X328612500Y-66675000D01*
X334673500Y-32039000D02*
X388229000Y-32039000D01*
X328612500Y-38100000D02*
X334673500Y-32039000D01*
X328612500Y-66675000D02*
X328612500Y-85725000D01*
X328612500Y-66675000D02*
X328612500Y-85725000D01*
X328612500Y-38100000D02*
X328612500Y-66675000D01*
X328612500Y-38100000D02*
X328612500Y-66675000D01*
X388229000Y-32039000D02*
X390130000Y-33940000D01*
X390130000Y-33940000D02*
X390130000Y-34740000D01*
X328612500Y-38100000D02*
X328612500Y-66675000D01*
X328612500Y-85725000D02*
X328612500Y-142875000D01*
%TO.N,/COL 11*%
X400290000Y-33608630D02*
X400290000Y-34740000D01*
X261937500Y-104775000D02*
X261937500Y-114300000D01*
X252412500Y-123825000D02*
X252412500Y-140493750D01*
X261937500Y-114300000D02*
X252412500Y-123825000D01*
X261937500Y-104775000D02*
X261937500Y-114300000D01*
X252412500Y-140493750D02*
X254793750Y-142875000D01*
X247650000Y-66675000D02*
X276225000Y-38100000D01*
X276225000Y-38100000D02*
X285750000Y-38100000D01*
X252412500Y-140493750D02*
X254793750Y-142875000D01*
X397517370Y-30836000D02*
X400290000Y-33608630D01*
X252412500Y-140493750D02*
X254793750Y-142875000D01*
X247650000Y-66675000D02*
X276225000Y-38100000D01*
X257175000Y-100012500D02*
X261937500Y-104775000D01*
X247650000Y-76200000D02*
X257175000Y-85725000D01*
X247650000Y-66675000D02*
X247650000Y-76200000D01*
X257175000Y-85725000D02*
X257175000Y-100012500D01*
X293014000Y-30836000D02*
X397517370Y-30836000D01*
X247650000Y-66675000D02*
X276225000Y-38100000D01*
X257175000Y-85725000D02*
X257175000Y-100012500D01*
X257175000Y-85725000D02*
X257175000Y-100012500D01*
X247650000Y-76200000D02*
X257175000Y-85725000D01*
X252412500Y-140493750D02*
X254793750Y-142875000D01*
X276225000Y-38100000D02*
X285750000Y-38100000D01*
X276225000Y-38100000D02*
X285750000Y-38100000D01*
X252412500Y-123825000D02*
X252412500Y-140493750D01*
X285750000Y-38100000D02*
X293014000Y-30836000D01*
X261937500Y-114300000D02*
X252412500Y-123825000D01*
X261937500Y-114300000D02*
X252412500Y-123825000D01*
X257175000Y-100012500D02*
X261937500Y-104775000D01*
X247650000Y-76200000D02*
X257175000Y-85725000D01*
X276225000Y-38100000D02*
X285750000Y-38100000D01*
X257175000Y-100012500D02*
X261937500Y-104775000D01*
X257175000Y-100012500D02*
X261937500Y-104775000D01*
X247650000Y-66675000D02*
X276225000Y-38100000D01*
X261937500Y-114300000D02*
X252412500Y-123825000D01*
X247650000Y-66675000D02*
X247650000Y-76200000D01*
X257175000Y-85725000D02*
X257175000Y-100012500D01*
X261937500Y-104775000D02*
X261937500Y-114300000D01*
X247650000Y-66675000D02*
X247650000Y-76200000D01*
X247650000Y-76200000D02*
X257175000Y-85725000D01*
X247650000Y-66675000D02*
X247650000Y-76200000D01*
X252412500Y-123825000D02*
X252412500Y-140493750D01*
X252412500Y-123825000D02*
X252412500Y-140493750D01*
X261937500Y-104775000D02*
X261937500Y-114300000D01*
%TO.N,/COL 5*%
X147637500Y-104775000D02*
X147637500Y-114300000D01*
X138112500Y-123825000D02*
X140493750Y-123825000D01*
X133350000Y-66675000D02*
X133350000Y-65890184D01*
X133350000Y-66675000D02*
X133350000Y-76200000D01*
X133350000Y-65890184D02*
X161140184Y-38100000D01*
X161140184Y-38100000D02*
X161925000Y-38100000D01*
X147637500Y-104775000D02*
X147637500Y-114300000D01*
X133350000Y-66675000D02*
X133350000Y-76200000D01*
X133350000Y-66675000D02*
X133350000Y-76200000D01*
X147637500Y-114300000D02*
X138112500Y-123825000D01*
X142875000Y-100012500D02*
X147637500Y-104775000D01*
X147637500Y-104775000D02*
X147637500Y-114300000D01*
X133350000Y-76200000D02*
X142875000Y-85725000D01*
X147637500Y-114300000D02*
X138112500Y-123825000D01*
X147637500Y-114300000D02*
X138112500Y-123825000D01*
X140493750Y-123825000D02*
X159543750Y-142875000D01*
X161925000Y-38100000D02*
X172165000Y-27860000D01*
X142875000Y-85725000D02*
X142875000Y-100012500D01*
X138112500Y-123825000D02*
X140493750Y-123825000D01*
X133350000Y-76200000D02*
X142875000Y-85725000D01*
X172165000Y-27860000D02*
X414861370Y-27860000D01*
X140493750Y-123825000D02*
X159543750Y-142875000D01*
X133350000Y-66675000D02*
X133350000Y-76200000D01*
X140493750Y-123825000D02*
X159543750Y-142875000D01*
X142875000Y-85725000D02*
X142875000Y-100012500D01*
X133350000Y-76200000D02*
X142875000Y-85725000D01*
X142875000Y-100012500D02*
X147637500Y-104775000D01*
X142875000Y-85725000D02*
X142875000Y-100012500D01*
X147637500Y-114300000D02*
X138112500Y-123825000D01*
X420610000Y-33608630D02*
X420610000Y-34740000D01*
X147637500Y-104775000D02*
X147637500Y-114300000D01*
X142875000Y-100012500D02*
X147637500Y-104775000D01*
X138112500Y-123825000D02*
X140493750Y-123825000D01*
X138112500Y-123825000D02*
X140493750Y-123825000D01*
X140493750Y-123825000D02*
X159543750Y-142875000D01*
X414861370Y-27860000D02*
X420610000Y-33608630D01*
X133350000Y-76200000D02*
X142875000Y-85725000D01*
X142875000Y-85725000D02*
X142875000Y-100012500D01*
X142875000Y-100012500D02*
X147637500Y-104775000D01*
%TO.N,/COL 8*%
X200025000Y-85725000D02*
X200025000Y-100012500D01*
X213440000Y-42179366D02*
X213440000Y-43735000D01*
X204787500Y-104775000D02*
X204787500Y-114300000D01*
X219075000Y-38100000D02*
X227542000Y-29633000D01*
X200025000Y-100012500D02*
X204787500Y-104775000D01*
X200025000Y-85725000D02*
X200025000Y-100012500D01*
X204787500Y-114300000D02*
X195262500Y-123825000D01*
X204787500Y-114300000D02*
X195262500Y-123825000D01*
X190500000Y-76200000D02*
X200025000Y-85725000D01*
X410450000Y-33608630D02*
X410450000Y-34740000D01*
X406474370Y-29633000D02*
X410450000Y-33608630D01*
X204787500Y-104775000D02*
X204787500Y-114300000D01*
X190500000Y-66675000D02*
X190500000Y-76200000D01*
X204787500Y-114300000D02*
X195262500Y-123825000D01*
X213440000Y-43735000D02*
X190500000Y-66675000D01*
X190500000Y-76200000D02*
X200025000Y-85725000D01*
X190500000Y-76200000D02*
X200025000Y-85725000D01*
X219075000Y-38100000D02*
X217519366Y-38100000D01*
X217519366Y-38100000D02*
X213440000Y-42179366D01*
X200025000Y-100012500D02*
X204787500Y-104775000D01*
X204787500Y-114300000D02*
X195262500Y-123825000D01*
X200025000Y-100012500D02*
X204787500Y-104775000D01*
X190500000Y-76200000D02*
X200025000Y-85725000D01*
X190500000Y-66675000D02*
X190500000Y-76200000D01*
X190500000Y-66675000D02*
X190500000Y-76200000D01*
X200025000Y-85725000D02*
X200025000Y-100012500D01*
X227542000Y-29633000D02*
X406474370Y-29633000D01*
X190500000Y-66675000D02*
X190500000Y-76200000D01*
X204787500Y-104775000D02*
X204787500Y-114300000D01*
X200025000Y-100012500D02*
X204787500Y-104775000D01*
X204787500Y-104775000D02*
X204787500Y-114300000D01*
X200025000Y-85725000D02*
X200025000Y-100012500D01*
%TO.N,/COL 12*%
X280987500Y-116681250D02*
X288131250Y-123825000D01*
X266700000Y-66675000D02*
X266700000Y-76200000D01*
X280987500Y-104775000D02*
X280987500Y-116681250D01*
X280987500Y-116681250D02*
X288131250Y-123825000D01*
X397750000Y-34122950D02*
X394864050Y-31237000D01*
X276225000Y-100012500D02*
X280987500Y-104775000D01*
X266700000Y-66675000D02*
X266700000Y-76200000D01*
X280987500Y-116681250D02*
X288131250Y-123825000D01*
X288131250Y-123825000D02*
X288131250Y-133350000D01*
X266700000Y-66675000D02*
X266700000Y-76200000D01*
X288131250Y-123825000D02*
X288131250Y-133350000D01*
X394864050Y-31237000D02*
X302138000Y-31237000D01*
X280987500Y-104775000D02*
X280987500Y-116681250D01*
X276225000Y-85725000D02*
X276225000Y-100012500D01*
X276225000Y-85725000D02*
X276225000Y-100012500D01*
X288131250Y-123825000D02*
X288131250Y-133350000D01*
X276225000Y-85725000D02*
X276225000Y-100012500D01*
X276225000Y-100012500D02*
X280987500Y-104775000D01*
X266700000Y-76200000D02*
X276225000Y-85725000D01*
X280987500Y-104775000D02*
X280987500Y-116681250D01*
X266700000Y-76200000D02*
X276225000Y-85725000D01*
X288131250Y-133350000D02*
X278606250Y-142875000D01*
X288131250Y-123825000D02*
X288131250Y-133350000D01*
X266700000Y-76200000D02*
X276225000Y-85725000D01*
X280987500Y-104775000D02*
X280987500Y-116681250D01*
X302138000Y-31237000D02*
X266700000Y-66675000D01*
X288131250Y-133350000D02*
X278606250Y-142875000D01*
X276225000Y-85725000D02*
X276225000Y-100012500D01*
X266700000Y-76200000D02*
X276225000Y-85725000D01*
X288131250Y-133350000D02*
X278606250Y-142875000D01*
X288131250Y-133350000D02*
X278606250Y-142875000D01*
X266700000Y-66675000D02*
X266700000Y-76200000D01*
X276225000Y-100012500D02*
X280987500Y-104775000D01*
X397750000Y-34740000D02*
X397750000Y-34122950D01*
X280987500Y-116681250D02*
X288131250Y-123825000D01*
X276225000Y-100012500D02*
X280987500Y-104775000D01*
%TO.N,/COL 2*%
X95250000Y-47625000D02*
X95250000Y-38100000D01*
X80962500Y-135731250D02*
X88106250Y-142875000D01*
X76200000Y-76200000D02*
X85725000Y-85725000D01*
X85725000Y-85725000D02*
X85725000Y-100012500D01*
X85725000Y-100012500D02*
X90487500Y-104775000D01*
X85725000Y-100012500D02*
X90487500Y-104775000D01*
X90487500Y-114300000D02*
X80962500Y-123825000D01*
X90487500Y-114300000D02*
X80962500Y-123825000D01*
X76200000Y-66675000D02*
X76200000Y-76200000D01*
X76200000Y-66675000D02*
X95250000Y-47625000D01*
X85725000Y-100012500D02*
X90487500Y-104775000D01*
X90487500Y-104775000D02*
X90487500Y-114300000D01*
X80962500Y-123825000D02*
X80962500Y-135731250D01*
X90487500Y-104775000D02*
X90487500Y-114300000D01*
X76200000Y-66675000D02*
X76200000Y-76200000D01*
X90487500Y-114300000D02*
X80962500Y-123825000D01*
X95250000Y-47625000D02*
X95250000Y-38100000D01*
X80962500Y-135731250D02*
X88106250Y-142875000D01*
X80962500Y-123825000D02*
X80962500Y-135731250D01*
X90487500Y-114300000D02*
X80962500Y-123825000D01*
X106693000Y-26657000D02*
X95250000Y-38100000D01*
X76200000Y-66675000D02*
X95250000Y-47625000D01*
X76200000Y-66675000D02*
X76200000Y-76200000D01*
X85725000Y-85725000D02*
X85725000Y-100012500D01*
X90487500Y-104775000D02*
X90487500Y-114300000D01*
X85725000Y-85725000D02*
X85725000Y-100012500D01*
X90487500Y-104775000D02*
X90487500Y-114300000D01*
X76200000Y-76200000D02*
X85725000Y-85725000D01*
X85725000Y-85725000D02*
X85725000Y-100012500D01*
X76200000Y-76200000D02*
X85725000Y-85725000D01*
X428230000Y-33940000D02*
X420947000Y-26657000D01*
X76200000Y-76200000D02*
X85725000Y-85725000D01*
X80962500Y-135731250D02*
X88106250Y-142875000D01*
X420947000Y-26657000D02*
X106693000Y-26657000D01*
X95250000Y-47625000D02*
X95250000Y-38100000D01*
X76200000Y-66675000D02*
X76200000Y-76200000D01*
X80962500Y-123825000D02*
X80962500Y-135731250D01*
X76200000Y-66675000D02*
X95250000Y-47625000D01*
X85725000Y-100012500D02*
X90487500Y-104775000D01*
X80962500Y-123825000D02*
X80962500Y-135731250D01*
X95250000Y-47625000D02*
X95250000Y-38100000D01*
X76200000Y-66675000D02*
X95250000Y-47625000D01*
X80962500Y-135731250D02*
X88106250Y-142875000D01*
%TO.N,/COL 9*%
X209550000Y-76200000D02*
X219075000Y-85725000D01*
X209550000Y-66675000D02*
X209550000Y-76200000D01*
X223837500Y-104775000D02*
X223837500Y-114300000D01*
X209550000Y-76200000D02*
X219075000Y-85725000D01*
X209550000Y-66675000D02*
X238125000Y-38100000D01*
X238125000Y-38100000D02*
X247650000Y-38100000D01*
X247650000Y-38100000D02*
X255716000Y-30034000D01*
X209550000Y-66675000D02*
X209550000Y-76200000D01*
X223837500Y-114300000D02*
X214312500Y-123825000D01*
X209550000Y-66675000D02*
X209550000Y-76200000D01*
X219075000Y-100012500D02*
X223837500Y-104775000D01*
X223837500Y-104775000D02*
X223837500Y-114300000D01*
X219075000Y-85725000D02*
X219075000Y-100012500D01*
X219075000Y-85725000D02*
X219075000Y-100012500D01*
X219075000Y-100012500D02*
X223837500Y-104775000D01*
X209550000Y-66675000D02*
X238125000Y-38100000D01*
X223837500Y-104775000D02*
X223837500Y-114300000D01*
X209550000Y-66675000D02*
X238125000Y-38100000D01*
X209550000Y-66675000D02*
X209550000Y-76200000D01*
X209550000Y-76200000D02*
X219075000Y-85725000D01*
X223837500Y-114300000D02*
X214312500Y-123825000D01*
X404335370Y-30034000D02*
X407910000Y-33608630D01*
X209550000Y-66675000D02*
X238125000Y-38100000D01*
X238125000Y-38100000D02*
X247650000Y-38100000D01*
X219075000Y-85725000D02*
X219075000Y-100012500D01*
X407910000Y-33608630D02*
X407910000Y-34740000D01*
X219075000Y-85725000D02*
X219075000Y-100012500D01*
X238125000Y-38100000D02*
X247650000Y-38100000D01*
X238125000Y-38100000D02*
X247650000Y-38100000D01*
X209550000Y-76200000D02*
X219075000Y-85725000D01*
X219075000Y-100012500D02*
X223837500Y-104775000D01*
X219075000Y-100012500D02*
X223837500Y-104775000D01*
X223837500Y-114300000D02*
X214312500Y-123825000D01*
X223837500Y-114300000D02*
X214312500Y-123825000D01*
X223837500Y-104775000D02*
X223837500Y-114300000D01*
X255716000Y-30034000D02*
X404335370Y-30034000D01*
%TO.N,/ROW 5*%
X431090000Y-59920000D02*
X405020000Y-59920000D01*
X405020000Y-59920000D02*
X404660000Y-60280000D01*
X400290000Y-55910000D02*
X400290000Y-52520000D01*
X404660000Y-60280000D02*
X400290000Y-55910000D01*
%TO.N,/COL 4*%
X128587500Y-104775000D02*
X128587500Y-114300000D01*
X123825000Y-85725000D02*
X123825000Y-100012500D01*
X128587500Y-104775000D02*
X128587500Y-114300000D01*
X416486050Y-27459000D02*
X143991000Y-27459000D01*
X123825000Y-85725000D02*
X123825000Y-100012500D01*
X114300000Y-66675000D02*
X133350000Y-47625000D01*
X114300000Y-76200000D02*
X123825000Y-85725000D01*
X128587500Y-104775000D02*
X128587500Y-114300000D01*
X128587500Y-114300000D02*
X119062500Y-123825000D01*
X128587500Y-114300000D02*
X119062500Y-123825000D01*
X423150000Y-34122950D02*
X416486050Y-27459000D01*
X133350000Y-47625000D02*
X133350000Y-38100000D01*
X114300000Y-66675000D02*
X114300000Y-76200000D01*
X114300000Y-76200000D02*
X123825000Y-85725000D01*
X123825000Y-85725000D02*
X123825000Y-100012500D01*
X123825000Y-85725000D02*
X123825000Y-100012500D01*
X123825000Y-100012500D02*
X128587500Y-104775000D01*
X128587500Y-104775000D02*
X128587500Y-114300000D01*
X114300000Y-66675000D02*
X114300000Y-76200000D01*
X114300000Y-66675000D02*
X133350000Y-47625000D01*
X123825000Y-100012500D02*
X128587500Y-104775000D01*
X423150000Y-34740000D02*
X423150000Y-34122950D01*
X114300000Y-76200000D02*
X123825000Y-85725000D01*
X128587500Y-114300000D02*
X119062500Y-123825000D01*
X133350000Y-47625000D02*
X133350000Y-38100000D01*
X114300000Y-66675000D02*
X114300000Y-76200000D01*
X143991000Y-27459000D02*
X133350000Y-38100000D01*
X114300000Y-66675000D02*
X133350000Y-47625000D01*
X123825000Y-100012500D02*
X128587500Y-104775000D01*
X114300000Y-66675000D02*
X114300000Y-76200000D01*
X123825000Y-100012500D02*
X128587500Y-104775000D01*
X133350000Y-47625000D02*
X133350000Y-38100000D01*
X128587500Y-114300000D02*
X119062500Y-123825000D01*
X133350000Y-47625000D02*
X133350000Y-38100000D01*
X114300000Y-76200000D02*
X123825000Y-85725000D01*
X114300000Y-66675000D02*
X133350000Y-47625000D01*
%TO.N,/COL 1*%
X57150000Y-76200000D02*
X66675000Y-85725000D01*
X433310000Y-33608630D02*
X433310000Y-34740000D01*
X66675000Y-85725000D02*
X66675000Y-100012500D01*
X71437500Y-104775000D02*
X71437500Y-114300000D01*
X61912500Y-140493750D02*
X64293750Y-142875000D01*
X76200000Y-47625000D02*
X76200000Y-38100000D01*
X66675000Y-100012500D02*
X71437500Y-104775000D01*
X71437500Y-104775000D02*
X71437500Y-114300000D01*
X71437500Y-114300000D02*
X61912500Y-123825000D01*
X57150000Y-66675000D02*
X76200000Y-47625000D01*
X57150000Y-76200000D02*
X66675000Y-85725000D01*
X76200000Y-38100000D02*
X88044000Y-26256000D01*
X76200000Y-47625000D02*
X76200000Y-38100000D01*
X61912500Y-140493750D02*
X64293750Y-142875000D01*
X66675000Y-100012500D02*
X71437500Y-104775000D01*
X61912500Y-140493750D02*
X64293750Y-142875000D01*
X57150000Y-66675000D02*
X76200000Y-47625000D01*
X57150000Y-76200000D02*
X66675000Y-85725000D01*
X57150000Y-76200000D02*
X66675000Y-85725000D01*
X57150000Y-66675000D02*
X57150000Y-76200000D01*
X71437500Y-114300000D02*
X61912500Y-123825000D01*
X88044000Y-26256000D02*
X425957370Y-26256000D01*
X61912500Y-123825000D02*
X61912500Y-140493750D01*
X66675000Y-100012500D02*
X71437500Y-104775000D01*
X57150000Y-66675000D02*
X57150000Y-76200000D01*
X66675000Y-85725000D02*
X66675000Y-100012500D01*
X57150000Y-66675000D02*
X76200000Y-47625000D01*
X71437500Y-114300000D02*
X61912500Y-123825000D01*
X61912500Y-123825000D02*
X61912500Y-140493750D01*
X76200000Y-47625000D02*
X76200000Y-38100000D01*
X61912500Y-140493750D02*
X64293750Y-142875000D01*
X71437500Y-104775000D02*
X71437500Y-114300000D01*
X57150000Y-66675000D02*
X76200000Y-47625000D01*
X66675000Y-100012500D02*
X71437500Y-104775000D01*
X71437500Y-104775000D02*
X71437500Y-114300000D01*
X76200000Y-47625000D02*
X76200000Y-38100000D01*
X57150000Y-66675000D02*
X57150000Y-76200000D01*
X425957370Y-26256000D02*
X433310000Y-33608630D01*
X71437500Y-114300000D02*
X61912500Y-123825000D01*
X57150000Y-66675000D02*
X57150000Y-76200000D01*
X61912500Y-123825000D02*
X61912500Y-140493750D01*
X61912500Y-123825000D02*
X61912500Y-140493750D01*
X66675000Y-85725000D02*
X66675000Y-100012500D01*
X66675000Y-85725000D02*
X66675000Y-100012500D01*
%TO.N,/COL 13*%
X295275000Y-88106250D02*
X302418750Y-95250000D01*
X295275000Y-66675000D02*
X295275000Y-88106250D01*
X311262000Y-31638000D02*
X392732122Y-31638000D01*
X295275000Y-66675000D02*
X295275000Y-88106250D01*
X295275000Y-88106250D02*
X302418750Y-95250000D01*
X295275000Y-66675000D02*
X295275000Y-88106250D01*
X295275000Y-88106250D02*
X302418750Y-95250000D01*
X302418750Y-95250000D02*
X302418750Y-142875000D01*
X304800000Y-57150000D02*
X304800000Y-38100000D01*
X302418750Y-95250000D02*
X302418750Y-142875000D01*
X302418750Y-95250000D02*
X302418750Y-142875000D01*
X304800000Y-57150000D02*
X304800000Y-38100000D01*
X392732122Y-31638000D02*
X395210000Y-34115878D01*
X295275000Y-66675000D02*
X295275000Y-88106250D01*
X295275000Y-66675000D02*
X304800000Y-57150000D01*
X304800000Y-38100000D02*
X311262000Y-31638000D01*
X395210000Y-34115878D02*
X395210000Y-34740000D01*
X304800000Y-57150000D02*
X304800000Y-38100000D01*
X295275000Y-88106250D02*
X302418750Y-95250000D01*
X295275000Y-66675000D02*
X304800000Y-57150000D01*
X304800000Y-57150000D02*
X304800000Y-38100000D01*
X295275000Y-66675000D02*
X304800000Y-57150000D01*
X295275000Y-66675000D02*
X304800000Y-57150000D01*
X302418750Y-95250000D02*
X302418750Y-142875000D01*
%TD*%
M02*
