%TF.GenerationSoftware,KiCad,Pcbnew,9.0.6*%
%TF.CreationDate,2026-01-11T11:58:47+00:00*%
%TF.ProjectId,keebv3,6b656562-7633-42e6-9b69-6361645f7063,rev?*%
%TF.SameCoordinates,Original*%
%TF.FileFunction,Paste,Bot*%
%TF.FilePolarity,Positive*%
%FSLAX46Y46*%
G04 Gerber Fmt 4.6, Leading zero omitted, Abs format (unit mm)*
G04 Created by KiCad (PCBNEW 9.0.6) date 2026-01-11 11:58:47*
%MOMM*%
%LPD*%
G01*
G04 APERTURE LIST*
G04 Aperture macros list*
%AMRoundRect*
0 Rectangle with rounded corners*
0 $1 Rounding radius*
0 $2 $3 $4 $5 $6 $7 $8 $9 X,Y pos of 4 corners*
0 Add a 4 corners polygon primitive as box body*
4,1,4,$2,$3,$4,$5,$6,$7,$8,$9,$2,$3,0*
0 Add four circle primitives for the rounded corners*
1,1,$1+$1,$2,$3*
1,1,$1+$1,$4,$5*
1,1,$1+$1,$6,$7*
1,1,$1+$1,$8,$9*
0 Add four rect primitives between the rounded corners*
20,1,$1+$1,$2,$3,$4,$5,0*
20,1,$1+$1,$4,$5,$6,$7,0*
20,1,$1+$1,$6,$7,$8,$9,0*
20,1,$1+$1,$8,$9,$2,$3,0*%
G04 Aperture macros list end*
%ADD10RoundRect,0.225000X0.375000X-0.225000X0.375000X0.225000X-0.375000X0.225000X-0.375000X-0.225000X0*%
G04 APERTURE END LIST*
D10*
%TO.C,D7*%
X186055000Y-42780000D03*
X186055000Y-39480000D03*
%TD*%
%TO.C,D29*%
X271780000Y-71355000D03*
X271780000Y-68055000D03*
%TD*%
%TO.C,D11*%
X271780000Y-42780000D03*
X271780000Y-39480000D03*
%TD*%
%TO.C,D81*%
X200342500Y-128505000D03*
X200342500Y-125205000D03*
%TD*%
%TO.C,D10*%
X252730000Y-42780000D03*
X252730000Y-39480000D03*
%TD*%
%TO.C,D5*%
X138430000Y-42780000D03*
X138430000Y-39480000D03*
%TD*%
%TO.C,D61*%
X133667500Y-109455000D03*
X133667500Y-106155000D03*
%TD*%
%TO.C,D44*%
X186055000Y-90405000D03*
X186055000Y-87105000D03*
%TD*%
%TO.C,D35*%
X414655000Y-71355000D03*
X414655000Y-68055000D03*
%TD*%
%TO.C,D31*%
X333692500Y-71355000D03*
X333692500Y-68055000D03*
%TD*%
%TO.C,D16*%
X371792500Y-42780000D03*
X371792500Y-39480000D03*
%TD*%
%TO.C,D23*%
X157480000Y-71355000D03*
X157480000Y-68055000D03*
%TD*%
%TO.C,D97*%
X307498750Y-147555000D03*
X307498750Y-144255000D03*
%TD*%
%TO.C,D6*%
X167005000Y-42780000D03*
X167005000Y-39480000D03*
%TD*%
%TO.C,D18*%
X62230000Y-71355000D03*
X62230000Y-68055000D03*
%TD*%
%TO.C,D21*%
X119380000Y-71355000D03*
X119380000Y-68055000D03*
%TD*%
%TO.C,D2*%
X81280000Y-42780000D03*
X81280000Y-39480000D03*
%TD*%
%TO.C,D82*%
X219392500Y-128505000D03*
X219392500Y-125205000D03*
%TD*%
%TO.C,D36*%
X433705000Y-71355000D03*
X433705000Y-68055000D03*
%TD*%
%TO.C,D64*%
X190817500Y-109455000D03*
X190817500Y-106155000D03*
%TD*%
%TO.C,D73*%
X45561250Y-128505000D03*
X45561250Y-125205000D03*
%TD*%
%TO.C,D43*%
X167005000Y-90405000D03*
X167005000Y-87105000D03*
%TD*%
%TO.C,D45*%
X205105000Y-90405000D03*
X205105000Y-87105000D03*
%TD*%
%TO.C,D76*%
X105092500Y-128505000D03*
X105092500Y-125205000D03*
%TD*%
%TO.C,D74*%
X66992500Y-128505000D03*
X66992500Y-125205000D03*
%TD*%
%TO.C,D26*%
X214630000Y-71355000D03*
X214630000Y-68055000D03*
%TD*%
%TO.C,D39*%
X90805000Y-90405000D03*
X90805000Y-87105000D03*
%TD*%
%TO.C,D4*%
X119380000Y-42780000D03*
X119380000Y-39480000D03*
%TD*%
%TO.C,D96*%
X283686250Y-147555000D03*
X283686250Y-144255000D03*
%TD*%
%TO.C,D70*%
X395605000Y-109455000D03*
X395605000Y-106155000D03*
%TD*%
%TO.C,D17*%
X43180000Y-71355000D03*
X43180000Y-68055000D03*
%TD*%
%TO.C,D88*%
X414655000Y-128505000D03*
X414655000Y-125205000D03*
%TD*%
%TO.C,D25*%
X195580000Y-71355000D03*
X195580000Y-68055000D03*
%TD*%
%TO.C,D62*%
X152717500Y-109455000D03*
X152717500Y-106155000D03*
%TD*%
%TO.C,D58*%
X76517500Y-109455000D03*
X76517500Y-106155000D03*
%TD*%
%TO.C,D46*%
X224155000Y-90405000D03*
X224155000Y-87105000D03*
%TD*%
%TO.C,D14*%
X333692500Y-42780000D03*
X333692500Y-39480000D03*
%TD*%
%TO.C,D63*%
X171767500Y-109455000D03*
X171767500Y-106155000D03*
%TD*%
%TO.C,D50*%
X307498750Y-99930000D03*
X307498750Y-96630000D03*
%TD*%
%TO.C,D93*%
X164623750Y-147555000D03*
X164623750Y-144255000D03*
%TD*%
%TO.C,D47*%
X243205000Y-90405000D03*
X243205000Y-87105000D03*
%TD*%
%TO.C,D55*%
X414655000Y-90405000D03*
X414655000Y-87105000D03*
%TD*%
%TO.C,D60*%
X114617500Y-109455000D03*
X114617500Y-106155000D03*
%TD*%
%TO.C,D65*%
X209867500Y-109455000D03*
X209867500Y-106155000D03*
%TD*%
%TO.C,D86*%
X352742500Y-128505000D03*
X352742500Y-125205000D03*
%TD*%
%TO.C,D56*%
X433705000Y-90405000D03*
X433705000Y-87105000D03*
%TD*%
%TO.C,D72*%
X433705000Y-109455000D03*
X433705000Y-106155000D03*
%TD*%
%TO.C,D78*%
X143192500Y-128505000D03*
X143192500Y-125205000D03*
%TD*%
%TO.C,D102*%
X433705000Y-147555000D03*
X433705000Y-144255000D03*
%TD*%
%TO.C,D1*%
X43180000Y-42780000D03*
X43180000Y-39480000D03*
%TD*%
%TO.C,D75*%
X86042500Y-128505000D03*
X86042500Y-125205000D03*
%TD*%
%TO.C,D83*%
X238442500Y-128505000D03*
X238442500Y-125205000D03*
%TD*%
%TO.C,D84*%
X257492500Y-128505000D03*
X257492500Y-125205000D03*
%TD*%
%TO.C,D101*%
X405130000Y-147555000D03*
X405130000Y-144255000D03*
%TD*%
%TO.C,D69*%
X286067500Y-109455000D03*
X286067500Y-106155000D03*
%TD*%
%TO.C,D89*%
X433705000Y-128505000D03*
X433705000Y-125205000D03*
%TD*%
%TO.C,D94*%
X236061250Y-147555000D03*
X236061250Y-144255000D03*
%TD*%
%TO.C,D79*%
X162242500Y-128505000D03*
X162242500Y-125205000D03*
%TD*%
%TO.C,D12*%
X290830000Y-42780000D03*
X290830000Y-39480000D03*
%TD*%
%TO.C,D53*%
X371792500Y-90405000D03*
X371792500Y-87105000D03*
%TD*%
%TO.C,D52*%
X352742500Y-90405000D03*
X352742500Y-87105000D03*
%TD*%
%TO.C,D32*%
X352742500Y-71355000D03*
X352742500Y-68055000D03*
%TD*%
%TO.C,D68*%
X267017500Y-109455000D03*
X267017500Y-106155000D03*
%TD*%
%TO.C,D48*%
X262255000Y-90405000D03*
X262255000Y-87105000D03*
%TD*%
%TO.C,D87*%
X395605000Y-128505000D03*
X395605000Y-125205000D03*
%TD*%
%TO.C,D41*%
X128905000Y-90405000D03*
X128905000Y-87105000D03*
%TD*%
%TO.C,D19*%
X81280000Y-71355000D03*
X81280000Y-68055000D03*
%TD*%
%TO.C,D100*%
X371792500Y-147555000D03*
X371792500Y-144255000D03*
%TD*%
%TO.C,D91*%
X69373750Y-147555000D03*
X69373750Y-144255000D03*
%TD*%
%TO.C,D98*%
X333692500Y-147555000D03*
X333692500Y-144255000D03*
%TD*%
%TO.C,D38*%
X71755000Y-90405000D03*
X71755000Y-87105000D03*
%TD*%
%TO.C,D80*%
X181292500Y-128505000D03*
X181292500Y-125205000D03*
%TD*%
%TO.C,D20*%
X100330000Y-71355000D03*
X100330000Y-68055000D03*
%TD*%
%TO.C,D66*%
X228917500Y-109455000D03*
X228917500Y-106155000D03*
%TD*%
%TO.C,D37*%
X47942500Y-90405000D03*
X47942500Y-87105000D03*
%TD*%
%TO.C,D28*%
X252730000Y-71355000D03*
X252730000Y-68055000D03*
%TD*%
%TO.C,D24*%
X176530000Y-71355000D03*
X176530000Y-68055000D03*
%TD*%
%TO.C,D27*%
X233680000Y-71355000D03*
X233680000Y-68055000D03*
%TD*%
%TO.C,D40*%
X109855000Y-90405000D03*
X109855000Y-87105000D03*
%TD*%
%TO.C,D57*%
X50323750Y-109455000D03*
X50323750Y-106155000D03*
%TD*%
%TO.C,D49*%
X281305000Y-90405000D03*
X281305000Y-87105000D03*
%TD*%
%TO.C,D22*%
X138430000Y-71355000D03*
X138430000Y-68055000D03*
%TD*%
%TO.C,D33*%
X371792500Y-71355000D03*
X371792500Y-68055000D03*
%TD*%
%TO.C,D59*%
X95567500Y-109455000D03*
X95567500Y-106155000D03*
%TD*%
%TO.C,D42*%
X147955000Y-90405000D03*
X147955000Y-87105000D03*
%TD*%
%TO.C,D34*%
X395605000Y-71355000D03*
X395605000Y-68055000D03*
%TD*%
%TO.C,D95*%
X259873750Y-147555000D03*
X259873750Y-144255000D03*
%TD*%
%TO.C,D77*%
X124142500Y-128505000D03*
X124142500Y-125205000D03*
%TD*%
%TO.C,D30*%
X300355000Y-71355000D03*
X300355000Y-68055000D03*
%TD*%
%TO.C,D54*%
X395605000Y-90405000D03*
X395605000Y-87105000D03*
%TD*%
%TO.C,D8*%
X205105000Y-42780000D03*
X205105000Y-39480000D03*
%TD*%
%TO.C,D71*%
X414655000Y-109455000D03*
X414655000Y-106155000D03*
%TD*%
%TO.C,D3*%
X100330000Y-42780000D03*
X100330000Y-39480000D03*
%TD*%
%TO.C,D15*%
X352742500Y-42780000D03*
X352742500Y-39480000D03*
%TD*%
%TO.C,D51*%
X333692500Y-90405000D03*
X333692500Y-87105000D03*
%TD*%
%TO.C,D13*%
X309880000Y-42780000D03*
X309880000Y-39480000D03*
%TD*%
%TO.C,D85*%
X293211250Y-128505000D03*
X293211250Y-125205000D03*
%TD*%
%TO.C,D99*%
X352742500Y-147555000D03*
X352742500Y-144255000D03*
%TD*%
%TO.C,D90*%
X45561250Y-147555000D03*
X45561250Y-144255000D03*
%TD*%
%TO.C,D92*%
X93186250Y-147555000D03*
X93186250Y-144255000D03*
%TD*%
%TO.C,D9*%
X224155000Y-42780000D03*
X224155000Y-39480000D03*
%TD*%
%TO.C,D67*%
X247967500Y-109455000D03*
X247967500Y-106155000D03*
%TD*%
M02*
